<svg width="4069" height="2334" xmlns="http://www.w3.org/2000/svg" xmlns:xlink="http://www.w3.org/1999/xlink" xml:space="preserve" overflow="hidden"><defs><clipPath id="clip0"><rect x="186" y="81" width="4069" height="2334"/></clipPath></defs><g clip-path="url(#clip0)" transform="translate(-186 -81)"><text font-family="BIZ UDPGothic,BIZ UDPGothic_MSFontService,sans-serif" font-weight="400" font-size="202" transform="matrix(1 0 0 1 335.5 451)">JSON</text><text font-family="BIZ UDPGothic,BIZ UDPGothic_MSFontService,sans-serif" font-weight="400" font-size="202" transform="matrix(1 0 0 1 926.75 451)">-</text><text font-family="BIZ UDPGothic,BIZ UDPGothic_MSFontService,sans-serif" font-weight="400" font-size="202" transform="matrix(1 0 0 1 1023.57 451)">LD </text><text font-family="BIZ UDPGothic,BIZ UDPGothic_MSFontService,sans-serif" font-weight="400" font-size="202" transform="matrix(1 0 0 1 1381.07 451)">の変化（醸造時）</text><path d="M186 808.734C186 764.698 221.698 729 265.734 729L1949.27 729C1993.3 729 2029 764.698 2029 808.734L2029 1852.27C2029 1896.3 1993.3 1932 1949.27 1932L265.734 1932C221.698 1932 186 1896.3 186 1852.27Z" fill="#2F5597" fill-rule="evenodd"/><text fill="#FFFFFF" font-family="BIZ UDPGothic,BIZ UDPGothic_MSFontService,sans-serif" font-weight="400" font-size="83" transform="matrix(1 0 0 1 242.407 856)">RWDataset</text><text fill="#FFFFFF" font-family="BIZ UDPGothic,BIZ UDPGothic_MSFontService,sans-serif" font-weight="400" font-size="73" transform="matrix(1 0 0 1 242.407 1033)">structureInfo</text><text fill="#FFFFFF" font-family="BIZ UDPGothic,BIZ UDPGothic_MSFontService,sans-serif" font-weight="400" font-size="73" transform="matrix(1 0 0 1 790.688 1033)">:</text><text fill="#FFFFFF" font-family="BIZ UDPGothic,BIZ UDPGothic_MSFontService,sans-serif" font-weight="400" font-size="73" transform="matrix(1 0 0 1 242.407 1231)">storingInfo</text><text fill="#FFFFFF" font-family="BIZ UDPGothic,BIZ UDPGothic_MSFontService,sans-serif" font-weight="400" font-size="73" transform="matrix(1 0 0 1 696.73 1231)">:</text><text fill="#FFFFFF" font-family="BIZ UDPGothic,BIZ UDPGothic_MSFontService,sans-serif" font-weight="400" font-size="73" transform="matrix(1 0 0 1 242.407 1429)">collectionInfo</text><text fill="#FFFFFF" font-family="BIZ UDPGothic,BIZ UDPGothic_MSFontService,sans-serif" font-weight="400" font-size="73" transform="matrix(1 0 0 1 813.032 1429)">:</text><path d="M896 967.209C896 939.479 918.479 917 946.208 917L1924.79 917C1952.52 917 1975 939.479 1975 967.209L1975 1023.79C1975 1051.52 1952.52 1074 1924.79 1074L946.208 1074C918.479 1074 896 1051.52 896 1023.79Z" fill="#548235" fill-rule="evenodd"/><text fill="#FFFFFF" font-family="BIZ UDPGothic,BIZ UDPGothic_MSFontService,sans-serif" font-weight="400" font-size="83" transform="matrix(1 0 0 1 1063.81 1035)">RWD</text><text fill="#FFFFFF" font-family="BIZ UDPGothic,BIZ UDPGothic_MSFontService,sans-serif" font-weight="400" font-size="83" transform="matrix(1 0 0 1 1276.36 1035)">FieldProfile</text><path d="M895 1164.21C895 1136.48 917.479 1114 945.208 1114L1923.79 1114C1951.52 1114 1974 1136.48 1974 1164.21L1974 1220.79C1974 1248.52 1951.52 1271 1923.79 1271L945.208 1271C917.479 1271 895 1248.52 895 1220.79Z" fill="#BF9000" fill-rule="evenodd"/><text fill="#FFFFFF" font-family="BIZ UDPGothic,BIZ UDPGothic_MSFontService,sans-serif" font-weight="400" font-size="83" transform="matrix(1 0 0 1 1068.04 1232)">RWDStoringInfo</text><path d="M895 1368.21C895 1340.48 917.479 1318 945.208 1318L1923.79 1318C1951.52 1318 1974 1340.48 1974 1368.21L1974 1424.79C1974 1452.52 1951.52 1475 1923.79 1475L945.208 1475C917.479 1475 895 1452.52 895 1424.79Z" fill="#C55A11" fill-rule="evenodd"/><text fill="#FFFFFF" font-family="BIZ UDPGothic,BIZ UDPGothic_MSFontService,sans-serif" font-weight="400" font-size="83" transform="matrix(1 0 0 1 1000.15 1436)">RWDCollectionInfo</text><path d="M895 1568.21C895 1540.48 917.479 1518 945.209 1518L1361.79 1518C1389.52 1518 1412 1540.48 1412 1568.21L1412 1624.79C1412 1652.52 1389.52 1675 1361.79 1675L945.209 1675C917.479 1675 895 1652.52 895 1624.79Z" fill="#595959" fill-rule="evenodd"/><text fill="#FFFFFF" font-family="BIZ UDPGothic,BIZ UDPGothic_MSFontService,sans-serif" font-weight="400" font-size="83" transform="matrix(1 0 0 1 1037.45 1636)">What</text><path d="M1454 1565.21C1454 1537.48 1476.48 1515 1504.21 1515L1920.79 1515C1948.52 1515 1971 1537.48 1971 1565.21L1971 1621.79C1971 1649.52 1948.52 1672 1920.79 1672L1504.21 1672C1476.48 1672 1454 1649.52 1454 1621.79Z" fill="#595959" fill-rule="evenodd"/><text fill="#FFFFFF" font-family="BIZ UDPGothic,BIZ UDPGothic_MSFontService,sans-serif" font-weight="400" font-size="83" transform="matrix(1 0 0 1 1567.47 1633)">Where</text><path d="M895 1769.21C895 1741.48 917.479 1719 945.209 1719L1155.79 1719C1183.52 1719 1206 1741.48 1206 1769.21L1206 1825.79C1206 1853.52 1183.52 1876 1155.79 1876L945.209 1876C917.479 1876 895 1853.52 895 1825.79Z" fill="#595959" fill-rule="evenodd"/><text fill="#FFFFFF" font-family="BIZ UDPGothic,BIZ UDPGothic_MSFontService,sans-serif" font-weight="400" font-size="83" transform="matrix(1 0 0 1 953.117 1837)">Who</text><path d="M1278 1769.21C1278 1741.48 1300.48 1719 1328.21 1719L1539.79 1719C1567.52 1719 1590 1741.48 1590 1769.21L1590 1825.79C1590 1853.52 1567.52 1876 1539.79 1876L1328.21 1876C1300.48 1876 1278 1853.52 1278 1825.79Z" fill="#595959" fill-rule="evenodd"/><text fill="#FFFFFF" font-family="BIZ UDPGothic,BIZ UDPGothic_MSFontService,sans-serif" font-weight="400" font-size="83" transform="matrix(1 0 0 1 1339.6 1837)">Why</text><path d="M1646 1769.21C1646 1741.48 1668.48 1719 1696.21 1719L1906.79 1719C1934.52 1719 1957 1741.48 1957 1769.21L1957 1825.79C1957 1853.52 1934.52 1876 1906.79 1876L1696.21 1876C1668.48 1876 1646 1853.52 1646 1825.79Z" fill="#595959" fill-rule="evenodd"/><text fill="#FFFFFF" font-family="BIZ UDPGothic,BIZ UDPGothic_MSFontService,sans-serif" font-weight="400" font-size="83" transform="matrix(1 0 0 1 1703.25 1837)">How</text><path d="M2350 636.531C2350 595.369 2383.37 562 2424.53 562L4180.47 562C4221.63 562 4255 595.369 4255 636.531L4255 2316.47C4255 2357.63 4221.63 2391 4180.47 2391L2424.53 2391C2383.37 2391 2350 2357.63 2350 2316.47Z" fill="#4472C4" fill-rule="evenodd"/><text fill="#FFFF00" font-family="BIZ UDPGothic,BIZ UDPGothic_MSFontService,sans-serif" font-weight="700" font-size="83" transform="matrix(1 0 0 1 2405.03 688)">RWDataset</text><text fill="#FFFF00" font-family="BIZ UDPGothic,BIZ UDPGothic_MSFontService,sans-serif" font-weight="700" font-size="83" transform="matrix(1 0 0 1 2915.5 688)">’</text><text fill="#FFFFFF" font-family="BIZ UDPGothic,BIZ UDPGothic_MSFontService,sans-serif" font-weight="400" font-size="73" transform="matrix(1 0 0 1 2405.03 865)">structureInfo</text><text fill="#FFFFFF" font-family="BIZ UDPGothic,BIZ UDPGothic_MSFontService,sans-serif" font-weight="400" font-size="73" transform="matrix(1 0 0 1 2953.31 865)">:</text><text fill="#FFFFFF" font-family="BIZ UDPGothic,BIZ UDPGothic_MSFontService,sans-serif" font-weight="400" font-size="73" transform="matrix(1 0 0 1 2405.03 1063)">storingInfo</text><text fill="#FFFFFF" font-family="BIZ UDPGothic,BIZ UDPGothic_MSFontService,sans-serif" font-weight="400" font-size="73" transform="matrix(1 0 0 1 2859.35 1063)">:</text><text fill="#FFFFFF" font-family="BIZ UDPGothic,BIZ UDPGothic_MSFontService,sans-serif" font-weight="400" font-size="73" transform="matrix(1 0 0 1 2405.03 1261)">collectionInfo</text><text fill="#FFFFFF" font-family="BIZ UDPGothic,BIZ UDPGothic_MSFontService,sans-serif" font-weight="400" font-size="73" transform="matrix(1 0 0 1 2975.65 1261)">:</text><text fill="#FFFF00" font-family="BIZ UDPGothic,BIZ UDPGothic_MSFontService,sans-serif" font-weight="700" font-size="73" transform="matrix(1 0 0 1 2405.03 1877)">generatedArgs</text><text fill="#FFFF00" font-family="BIZ UDPGothic,BIZ UDPGothic_MSFontService,sans-serif" font-weight="700" font-size="73" transform="matrix(1 0 0 1 3018.62 1877)">:</text><text fill="#FFFF00" font-family="BIZ UDPGothic,BIZ UDPGothic_MSFontService,sans-serif" font-weight="700" font-size="73" transform="matrix(1 0 0 1 2405.03 2075)">generatedUsing</text><text fill="#FFFF00" font-family="BIZ UDPGothic,BIZ UDPGothic_MSFontService,sans-serif" font-weight="700" font-size="73" transform="matrix(1 0 0 1 3064.45 2075)">:</text><text fill="#FFFF00" font-family="BIZ UDPGothic,BIZ UDPGothic_MSFontService,sans-serif" font-weight="700" font-size="73" transform="matrix(1 0 0 1 2405.03 2273)">generatedFrom</text><text fill="#FFFF00" font-family="BIZ UDPGothic,BIZ UDPGothic_MSFontService,sans-serif" font-weight="700" font-size="73" transform="matrix(1 0 0 1 3039.82 2273)">:</text><path d="M3122 802.209C3122 774.479 3144.48 752 3172.21 752L4150.79 752C4178.52 752 4201 774.479 4201 802.209L4201 858.791C4201 886.521 4178.52 909 4150.79 909L3172.21 909C3144.48 909 3122 886.521 3122 858.791Z" fill="#548235" fill-rule="evenodd"/><text fill="#FFFF00" font-family="BIZ UDPGothic,BIZ UDPGothic_MSFontService,sans-serif" font-weight="700" font-size="83" transform="matrix(1 0 0 1 3261.36 870)">RWD</text><text fill="#FFFF00" font-family="BIZ UDPGothic,BIZ UDPGothic_MSFontService,sans-serif" font-weight="700" font-size="83" transform="matrix(1 0 0 1 3476.2 870)">FieldProfile</text><text fill="#FFFF00" font-family="BIZ UDPGothic,BIZ UDPGothic_MSFontService,sans-serif" font-weight="700" font-size="83" transform="matrix(1 0 0 1 4019.9 870)">’</text><path d="M3121 999.209C3121 971.479 3143.48 949 3171.21 949L4149.79 949C4177.52 949 4200 971.479 4200 999.209L4200 1055.79C4200 1083.52 4177.52 1106 4149.79 1106L3171.21 1106C3143.48 1106 3121 1083.52 3121 1055.79Z" fill="#BF9000" fill-rule="evenodd"/><text fill="#FFFF00" font-family="BIZ UDPGothic,BIZ UDPGothic_MSFontService,sans-serif" font-weight="700" font-size="83" transform="matrix(1 0 0 1 3264.45 1067)">RWDStoringInfo</text><text fill="#FFFF00" font-family="BIZ UDPGothic,BIZ UDPGothic_MSFontService,sans-serif" font-weight="700" font-size="83" transform="matrix(1 0 0 1 4014.97 1067)">’</text><path d="M3121 1203.21C3121 1175.48 3143.48 1153 3171.21 1153L4149.79 1153C4177.52 1153 4200 1175.48 4200 1203.21L4200 1259.79C4200 1287.52 4177.52 1310 4149.79 1310L3171.21 1310C3143.48 1310 3121 1287.52 3121 1259.79Z" fill="#C55A11" fill-rule="evenodd"/><text fill="#FFFFFF" font-family="BIZ UDPGothic,BIZ UDPGothic_MSFontService,sans-serif" font-weight="400" font-size="83" transform="matrix(1 0 0 1 3226.35 1271)">RWDCollectionInfo</text><path d="M3121 1403.21C3121 1375.48 3143.48 1353 3171.21 1353L3587.79 1353C3615.52 1353 3638 1375.48 3638 1403.21L3638 1459.79C3638 1487.52 3615.52 1510 3587.79 1510L3171.21 1510C3143.48 1510 3121 1487.52 3121 1459.79Z" fill="#595959" fill-rule="evenodd"/><text fill="#FFFFFF" font-family="BIZ UDPGothic,BIZ UDPGothic_MSFontService,sans-serif" font-weight="400" font-size="83" transform="matrix(1 0 0 1 3263.65 1471)">What</text><path d="M3680 1400.21C3680 1372.48 3702.48 1350 3730.21 1350L4146.79 1350C4174.52 1350 4197 1372.48 4197 1400.21L4197 1456.79C4197 1484.52 4174.52 1507 4146.79 1507L3730.21 1507C3702.48 1507 3680 1484.52 3680 1456.79Z" fill="#595959" fill-rule="evenodd"/><text fill="#FFFFFF" font-family="BIZ UDPGothic,BIZ UDPGothic_MSFontService,sans-serif" font-weight="400" font-size="83" transform="matrix(1 0 0 1 3793.67 1468)">Where</text><path d="M3121 1603.53C3121 1575.62 3143.62 1553 3171.53 1553L3382.47 1553C3410.38 1553 3433 1575.62 3433 1603.53L3433 1660.47C3433 1688.38 3410.38 1711 3382.47 1711L3171.53 1711C3143.62 1711 3121 1688.38 3121 1660.47Z" fill="#595959" fill-rule="evenodd"/><text fill="#FFFFFF" font-family="BIZ UDPGothic,BIZ UDPGothic_MSFontService,sans-serif" font-weight="400" font-size="83" transform="matrix(1 0 0 1 3179.31 1672)">Who</text><path d="M3504 1603.53C3504 1575.62 3526.62 1553 3554.53 1553L3765.47 1553C3793.38 1553 3816 1575.62 3816 1603.53L3816 1660.47C3816 1688.38 3793.38 1711 3765.47 1711L3554.53 1711C3526.62 1711 3504 1688.38 3504 1660.47Z" fill="#595959" fill-rule="evenodd"/><text fill="#FFFFFF" font-family="BIZ UDPGothic,BIZ UDPGothic_MSFontService,sans-serif" font-weight="400" font-size="83" transform="matrix(1 0 0 1 3565.8 1672)">Why</text><path d="M3872 1603.53C3872 1575.62 3894.62 1553 3922.53 1553L4133.47 1553C4161.38 1553 4184 1575.62 4184 1603.53L4184 1660.47C4184 1688.38 4161.38 1711 4133.47 1711L3922.53 1711C3894.62 1711 3872 1688.38 3872 1660.47Z" fill="#595959" fill-rule="evenodd"/><text fill="#FFFFFF" font-family="BIZ UDPGothic,BIZ UDPGothic_MSFontService,sans-serif" font-weight="400" font-size="83" transform="matrix(1 0 0 1 3929.45 1672)">How</text><path d="M3121 2220.65C3121 2192.68 3143.68 2170 3171.65 2170L4149.35 2170C4177.32 2170 4200 2192.68 4200 2220.65L4200 2276.35C4200 2304.32 4177.32 2327 4149.35 2327L3171.65 2327C3143.68 2327 3121 2304.32 3121 2276.35Z" fill="#2F5597" fill-rule="evenodd"/><text fill="#FFFFFF" font-family="BIZ UDPGothic,BIZ UDPGothic_MSFontService,sans-serif" font-weight="700" font-size="83" transform="matrix(1 0 0 1 3405.1 2289)">RWDataset</text><path d="M0-5.15625 482.801-5.15625 482.801 2558.16 420.924 2558.16 420.924 2547.85 477.645 2547.85 472.488 2553 472.488 0 477.645 5.15625 0 5.15625ZM426.081 2568.47 395.143 2553 426.081 2537.54Z" fill="#FF0000" transform="matrix(1.83697e-16 1 1 -1.83697e-16 1107 1932)"/><path d="M2078 1187.75 2189.5 1187.75 2189.5 1045 2301 1330.5 2189.5 1616 2189.5 1473.25 2078 1473.25Z" fill="#FF0000" fill-rule="evenodd"/><text fill="#FFFFFF" font-family="BIZ UDPGothic,BIZ UDPGothic_MSFontService,sans-serif" font-weight="400" font-size="83" transform="matrix(1 0 0 1 2120.37 1318)">醸</text><text fill="#FFFFFF" font-family="BIZ UDPGothic,BIZ UDPGothic_MSFontService,sans-serif" font-weight="400" font-size="83" transform="matrix(1 0 0 1 2120.37 1417)">造</text><path d="M3042.5 151.335C3042.5 114.423 3072.42 84.5001 3109.33 84.5001L3241.17 84.5001 3241.17 84.5001 3539.17 84.5001 4167.67 84.5001C4204.58 84.5001 4234.5 114.423 4234.5 151.335L4234.5 318.416 4234.5 318.416 4234.5 418.666 4234.5 418.665C4234.5 455.577 4204.58 485.5 4167.67 485.5L3539.17 485.5 3392.69 568.9 3241.17 485.5 3109.33 485.5C3072.42 485.5 3042.5 455.577 3042.5 418.665L3042.5 418.666 3042.5 318.416 3042.5 318.416Z" stroke="#FF0000" stroke-width="6.875" stroke-miterlimit="8" stroke-dasharray="27.5 20.625" fill="none" fill-rule="evenodd"/><text fill="#FF0000" font-family="Arial,Arial_MSFontService,sans-serif" font-weight="400" font-size="83" transform="matrix(1 0 0 1 3087.32 223)">•</text><text fill="#FF0000" font-family="BIZ UDPGothic,BIZ UDPGothic_MSFontService,sans-serif" font-weight="400" font-size="83" transform="matrix(1 0 0 1 3190.45 223)">データ構造と保管先が変化</text><text fill="#FF0000" font-family="Arial,Arial_MSFontService,sans-serif" font-weight="400" font-size="83" transform="matrix(1 0 0 1 3087.32 322)">•</text><text fill="#FF0000" font-family="BIZ UDPGothic,BIZ UDPGothic_MSFontService,sans-serif" font-weight="400" font-size="83" transform="matrix(1 0 0 1 3190.45 322)">生成元データセットとリンク</text><text fill="#FF0000" font-family="Arial,Arial_MSFontService,sans-serif" font-weight="400" font-size="83" transform="matrix(1 0 0 1 3087.32 421)">•</text><text fill="#FF0000" font-family="BIZ UDPGothic,BIZ UDPGothic_MSFontService,sans-serif" font-weight="400" font-size="83" transform="matrix(1 0 0 1 3190.45 421)">生成時引数・酵母とリンク</text><path d="M3121 1823.65C3121 1795.68 3143.68 1773 3171.65 1773L4149.35 1773C4177.32 1773 4200 1795.68 4200 1823.65L4200 1879.35C4200 1907.32 4177.32 1930 4149.35 1930L3171.65 1930C3143.68 1930 3121 1907.32 3121 1879.35Z" fill="#C00000" fill-rule="evenodd"/><text fill="#FFFFFF" font-family="BIZ UDPGothic,BIZ UDPGothic_MSFontService,sans-serif" font-weight="700" font-size="83" transform="matrix(1 0 0 1 3260.44 1892)">RWDBrewingArgs</text><path d="M3121 2020.97C3121 1992.82 3143.82 1970 3171.97 1970L4149.03 1970C4177.18 1970 4200 1992.82 4200 2020.97L4200 2077.03C4200 2105.18 4177.18 2128 4149.03 2128L3171.97 2128C3143.82 2128 3121 2105.18 3121 2077.03Z" fill="#C00000" fill-rule="evenodd"/><text fill="#FFFFFF" font-family="BIZ UDPGothic,BIZ UDPGothic_MSFontService,sans-serif" font-weight="700" font-size="83" transform="matrix(1 0 0 1 3288.79 2089)">RWDBrewerInfo</text></g></svg>