<svg width="2972" height="1736" xmlns="http://www.w3.org/2000/svg" xmlns:xlink="http://www.w3.org/1999/xlink" xml:space="preserve" overflow="hidden"><g transform="translate(-314 -347)"><text font-family="BIZ UDPGothic,BIZ UDPGothic_MSFontService,sans-serif" font-weight="700" font-size="64" transform="matrix(1 0 0 1 1087.74 1154)">基盤による</text><text font-family="BIZ UDPGothic,BIZ UDPGothic_MSFontService,sans-serif" font-weight="700" font-size="64" transform="matrix(1 0 0 1 1118.38 1231)">自動通知</text><g><g><g><path d="M203.844 128.219C189.406 128.219 178.062 116.531 178.062 102.438 178.062 88.3438 189.75 76.6562 203.844 76.6562 218.281 76.6562 229.625 88.3438 229.625 102.438 229.625 116.531 217.938 128.219 203.844 128.219ZM261.938 86.2812C260.562 81.4688 258.844 77 256.438 72.875L261.938 56.7188 249.562 44.3438 233.406 49.8438C229.281 47.4375 224.812 45.7188 220 44.3438L212.438 29.2188 195.25 29.2188 187.688 44.3438C182.875 45.7188 178.406 47.4375 174.281 49.8438L158.125 44.3438 145.75 56.7188 151.25 72.875C148.844 77 147.125 81.4688 145.75 86.2812L130.625 93.8438 130.625 111.031 145.75 118.594C147.125 123.406 148.844 127.875 151.25 132L145.75 148.156 157.781 160.188 173.938 154.688C178.062 157.094 182.531 158.812 187.344 160.188L194.906 175.312 212.094 175.312 219.656 160.188C224.469 158.812 228.938 157.094 233.063 154.688L249.219 160.188 261.594 148.156 256.094 132C258.5 127.875 260.562 123.062 261.938 118.594L277.062 111.031 277.062 93.8438 261.938 86.2812Z" fill="#2F5597" transform="matrix(-1 0 0 1 1415 759)"/><path d="M126.156 253.344C111.719 253.344 100.375 241.656 100.375 227.562 100.375 213.125 112.062 201.781 126.156 201.781 140.594 201.781 151.938 213.469 151.938 227.562 151.938 241.656 140.594 253.344 126.156 253.344L126.156 253.344ZM178.75 198 184.25 181.844 171.875 169.469 155.719 174.969C151.594 172.562 146.781 170.844 142.312 169.469L134.75 154.344 117.562 154.344 110 169.469C105.188 170.844 100.719 172.562 96.5938 174.969L80.4375 169.469 68.4062 181.5 73.5625 197.656C71.1562 201.781 69.4375 206.594 68.0625 211.062L52.9375 218.625 52.9375 235.812 68.0625 243.375C69.4375 248.187 71.1562 252.656 73.5625 256.781L68.4062 272.938 80.4375 284.969 96.5938 279.812C100.719 282.219 105.188 283.938 110 285.312L117.562 300.438 134.75 300.438 142.312 285.312C147.125 283.938 151.594 282.219 155.719 279.812L171.875 285.312 183.906 272.938 178.75 257.125C181.156 253 182.875 248.531 184.25 243.719L199.375 236.156 199.375 218.969 184.25 211.406C182.875 206.594 181.156 202.125 178.75 198Z" fill="#2F5597" transform="matrix(-1 0 0 1 1415 759)"/></g></g></g><rect x="1482" y="898" width="256" height="57.0001" fill="#A6A6A6"/><rect x="1482" y="1703" width="256" height="57.0001" fill="#A6A6A6"/><path d="M1710 1301 1883 1301 1883 1273 1939 1329 1883 1385 1883 1357 1710 1357Z" fill="#A6A6A6" fill-rule="evenodd"/><g><g><g><path d="M1305 1667.13C1305 1697.5 1280.38 1722.13 1250 1722.13 1219.62 1722.13 1195 1697.5 1195 1667.13 1195 1636.75 1219.62 1612.13 1250 1612.13 1280.38 1612.13 1305 1636.75 1305 1667.13Z" fill="#2F5597"/><path d="M1360 1845.88 1360 1790.88C1360 1782.63 1355.87 1774.38 1349 1768.88 1333.87 1756.5 1314.62 1748.25 1295.37 1742.75 1281.62 1738.63 1266.5 1735.88 1250 1735.88 1234.87 1735.88 1219.75 1738.63 1204.62 1742.75 1185.37 1748.25 1166.12 1757.88 1151 1768.88 1144.12 1774.38 1140 1782.63 1140 1790.88L1140 1845.88 1360 1845.88Z" fill="#2F5597"/></g></g></g><text fill="#7030A0" font-family="MS Mincho,MS Mincho_MSFontService,sans-serif" font-weight="700" font-size="55" transform="matrix(1 0 0 1 1368.99 1369)">➊</text><text fill="#7030A0" font-family="BIZ UDPGothic,BIZ UDPGothic_MSFontService,sans-serif" font-weight="700" font-size="55" transform="matrix(1 0 0 1 1442.33 1369)">醸造需要</text><text fill="#7030A0" font-family="BIZ UDPGothic,BIZ UDPGothic_MSFontService,sans-serif" font-weight="700" font-size="55" transform="matrix(1 0 0 1 1432.86 1436)">(</text><text fill="#7030A0" font-family="BIZ UDPGothic,BIZ UDPGothic_MSFontService,sans-serif" font-weight="700" font-size="55" transform="matrix(1 0 0 1 1460.36 1436)">指示</text><text fill="#7030A0" font-family="BIZ UDPGothic,BIZ UDPGothic_MSFontService,sans-serif" font-weight="700" font-size="55" transform="matrix(1 0 0 1 1570.36 1436)">)</text><g><g><g><path d="M90.8813 19.6563 20.1188 19.6563C17.9348 19.669 16.1748 21.4497 16.1875 23.6336 16.1875 23.6336 16.1875 23.6338 16.1875 23.6338L16.1875 71.4331C16.1747 73.6171 17.9347 75.3978 20.1186 75.4107 20.1186 75.4107 20.1188 75.4107 20.1188 75.4107L63.3625 75.4107 79.0875 91.3438 79.0875 75.4107 90.8813 75.4107C93.0652 75.3979 94.8252 73.6172 94.8125 71.4333 94.8125 71.4333 94.8125 71.4331 94.8125 71.4331L94.8125 23.6338C94.8254 21.4498 93.0653 19.6691 90.8814 19.6563 90.8814 19.6563 90.8813 19.6563 90.8813 19.6563ZM37 53.1875C33.8071 53.1875 31.2188 50.5991 31.2188 47.4063 31.2188 44.2134 33.8071 41.625 37 41.625 40.1929 41.625 42.7813 44.2134 42.7813 47.4063 42.7813 50.5991 40.1929 53.1875 37 53.1875ZM55.5 53.1875C52.3071 53.1875 49.7188 50.5991 49.7188 47.4063 49.7188 44.2134 52.3071 41.625 55.5 41.625 58.6929 41.625 61.2813 44.2134 61.2813 47.4063 61.2813 50.5991 58.6929 53.1875 55.5 53.1875ZM74 53.1875C70.8072 53.1875 68.2188 50.5991 68.2188 47.4063 68.2188 44.2134 70.8072 41.625 74 41.625 77.1929 41.625 79.7813 44.2134 79.7813 47.4063 79.7813 50.5991 77.1929 53.1875 74 53.1875Z" fill="#7030A0" transform="matrix(1 0 0 1.00901 1461 1209)"/></g></g></g><text font-family="BIZ UDPGothic,BIZ UDPGothic_MSFontService,sans-serif" font-weight="700" font-size="64" transform="matrix(1 0 0 1 1118.09 1973)">手動通知</text><g><g><g><path d="M95.5208 100.979 81.875 100.979 81.875 49.125 95.5208 49.125 95.5208 100.979ZM70.9583 98.25C70.9583 99.751 69.7302 100.979 68.2291 100.979 66.7281 100.979 65.5 99.751 65.5 98.25L65.5 51.8542C65.5 50.3531 66.7281 49.125 68.2291 49.125 69.7302 49.125 70.9583 50.3531 70.9583 51.8542L70.9583 98.25ZM57.3125 98.25C57.3125 99.751 56.0844 100.979 54.5833 100.979 53.0823 100.979 51.8542 99.751 51.8542 98.25L51.8542 51.8542C51.8542 50.3531 53.0823 49.125 54.5833 49.125 56.0844 49.125 57.3125 50.3531 57.3125 51.8542L57.3125 98.25ZM43.6667 98.25C43.6667 99.751 42.4385 100.979 40.9375 100.979 39.4364 100.979 38.2083 99.751 38.2083 98.25L38.2083 51.8542C38.2083 50.3531 39.4364 49.125 40.9375 49.125 42.4385 49.125 43.6667 50.3531 43.6667 51.8542L43.6667 98.25ZM98.25 40.9375 81.875 40.9375 81.875 35.4792 27.2917 35.4792 27.2917 114.625C27.2917 117.627 29.7479 120.083 32.75 120.083L76.4166 120.083C79.4187 120.083 81.875 117.627 81.875 114.625L81.875 109.167 98.25 109.167C101.252 109.167 103.708 106.71 103.708 103.708L103.708 46.3958C103.708 43.3937 101.252 40.9375 98.25 40.9375Z" fill="#7030A0" transform="matrix(1.00763 0 0 1 2102 1280)"/><path d="M72.3229 20.4687C69.8667 20.4687 67.6833 21.424 66.0458 22.925 63.9989 21.424 61.4062 20.4687 58.6771 20.4687 58.6771 20.4687 58.6771 20.4687 58.5406 20.4687 57.8583 15.1469 53.2187 10.9167 47.7604 10.9167 42.3021 10.9167 37.6625 15.1469 36.9802 20.4687 36.9802 20.4687 36.9802 20.4687 36.8437 20.4687 31.5219 20.4687 27.2917 24.699 27.2917 30.0208L81.875 30.0208C81.875 24.699 77.6448 20.4687 72.3229 20.4687Z" fill="#7030A0" transform="matrix(1.00763 0 0 1 2102 1280)"/></g></g></g><g><g><g><path d="M2030.5 1222.44 2030.5 1435.56 2305.5 1435.56 2305.5 1222.44ZM2267.69 1243.06C2271.48 1243.06 2274.56 1246.14 2274.56 1249.94 2274.56 1253.73 2271.48 1256.81 2267.69 1256.81 2263.89 1256.81 2260.81 1253.73 2260.81 1249.94 2260.81 1246.14 2263.89 1243.06 2267.69 1243.06ZM2243.62 1243.06C2247.42 1243.06 2250.5 1246.14 2250.5 1249.94 2250.5 1253.73 2247.42 1256.81 2243.62 1256.81 2239.83 1256.81 2236.75 1253.73 2236.75 1249.94 2236.75 1246.14 2239.83 1243.06 2243.62 1243.06ZM2219.56 1243.06C2223.36 1243.06 2226.44 1246.14 2226.44 1249.94 2226.44 1253.73 2223.36 1256.81 2219.56 1256.81 2215.77 1256.81 2212.69 1253.73 2212.69 1249.94 2212.69 1246.14 2215.77 1243.06 2219.56 1243.06ZM2284.88 1414.94 2051.12 1414.94 2051.12 1277.44 2284.88 1277.44Z" fill="#7030A0"/></g></g></g><text font-family="BIZ UDPGothic,BIZ UDPGothic_MSFontService,sans-serif" font-weight="700" font-size="64" transform="matrix(1 0 0 1 2039.79 1543)">醸造酵母</text><text font-family="BIZ UDPGothic,BIZ UDPGothic_MSFontService,sans-serif" font-weight="700" font-size="64" transform="matrix(1 0 0 1 1866.2 1620)">(</text><text font-family="BIZ UDPGothic,BIZ UDPGothic_MSFontService,sans-serif" font-weight="700" font-size="64" transform="matrix(1 0 0 1 1898.85 1620)">マイクロプログラム</text><text font-family="BIZ UDPGothic,BIZ UDPGothic_MSFontService,sans-serif" font-weight="700" font-size="64" transform="matrix(1 0 0 1 2437.39 1620)">)</text><path d="M0 28 173 28 173 0 229 56.0002 173 112 173 84.0001 0 84.0001Z" fill="#A6A6A6" fill-rule="evenodd" transform="matrix(6.12323e-17 1 1 -6.12323e-17 2046 898)"/><path d="M0 27.9999 173 27.9999 173 0 229 56.0001 173 112 173 84 0 84Z" fill="#A6A6A6" fill-rule="evenodd" transform="matrix(-1.83697e-16 -1 -1 1.83697e-16 2284 1130)"/><g><g><g><path d="M2102.34 474.187 2274.56 474.187 2274.56 457C2274.56 449.437 2268.38 443.25 2260.81 443.25L2157.69 443.25 2119.88 418.156C2117.47 416.781 2115.06 415.75 2112.31 415.75L2047.69 415.75C2040.12 415.75 2033.94 421.937 2033.94 429.5L2033.94 597.937C2033.94 598.625 2078.28 490.344 2078.28 490.344 2082.41 480.719 2091.69 474.187 2102.34 474.187Z" fill="#7F6000"/><path d="M2302.06 501.687C2302.06 494.469 2296.91 488.625 2289.69 487.937L2102.34 487.937C2097.19 487.937 2092.72 491.031 2090.66 495.5L2044.25 608.25 2253.94 608.25 2300.69 507.875C2301.72 505.812 2302.06 503.75 2302.06 501.687L2302.06 501.687Z" fill="#7F6000"/></g></g></g><g><g><g><path d="M26.5938 94.8125 26.5938 16.1875 55.5 16.1875 55.5 40.4688 84.4063 40.4688 84.4063 94.8125 26.5938 94.8125ZM62.4375 19.0781 76.8906 33.5313 62.4375 33.5313 62.4375 19.0781ZM62.4375 9.25 19.6563 9.25 19.6563 101.75 91.3438 101.75 91.3438 34.6875 62.4375 9.25Z" fill="#7F6000" transform="matrix(1 0 0 1.00901 1935 1022)"/><path d="M33.5313 52.0313 77.4688 52.0313 77.4688 56.6563 33.5313 56.6563Z" fill="#7F6000" transform="matrix(1 0 0 1.00901 1935 1022)"/><path d="M33.5313 42.7813 48.5625 42.7813 48.5625 47.4063 33.5313 47.4063Z" fill="#7F6000" transform="matrix(1 0 0 1.00901 1935 1022)"/><path d="M33.5313 61.2813 77.4688 61.2813 77.4688 65.9063 33.5313 65.9063Z" fill="#7F6000" transform="matrix(1 0 0 1.00901 1935 1022)"/><path d="M33.5313 70.5313 77.4688 70.5313 77.4688 75.1563 33.5313 75.1563Z" fill="#7F6000" transform="matrix(1 0 0 1.00901 1935 1022)"/><path d="M33.5313 79.7813 77.4688 79.7813 77.4688 84.4063 33.5313 84.4063Z" fill="#7F6000" transform="matrix(1 0 0 1.00901 1935 1022)"/></g></g></g><text font-family="BIZ UDPGothic,BIZ UDPGothic_MSFontService,sans-serif" font-weight="700" font-size="64" transform="matrix(1 0 0 1 2071.86 740)">実世界</text><text font-family="BIZ UDPGothic,BIZ UDPGothic_MSFontService,sans-serif" font-weight="700" font-size="64" transform="matrix(1 0 0 1 1991.95 817)">データストア</text><text fill="#7F6000" font-family="MS Mincho,MS Mincho_MSFontService,sans-serif" font-weight="700" font-size="55" transform="matrix(1 0 0 1 1797.16 940)">➋</text><text fill="#7F6000" font-family="BIZ UDPGothic,BIZ UDPGothic_MSFontService,sans-serif" font-weight="700" font-size="55" transform="matrix(1 0 0 1 1870.49 940)">醸造前</text><text fill="#7F6000" font-family="BIZ UDPGothic,BIZ UDPGothic_MSFontService,sans-serif" font-weight="700" font-size="55" transform="matrix(1 0 0 1 1879.09 1007)">データ</text><g><g><g><path d="M2309.67 938 2356.33 938 2356.33 940.333 2309.67 940.333Z" fill="#7030A0"/><path d="M2309.67 928.667 2331.83 928.667 2331.83 931 2309.67 931Z" fill="#7030A0"/><path d="M2309.67 947.333 2356.33 947.333 2356.33 949.667 2309.67 949.667Z" fill="#7030A0"/><path d="M2309.67 956.667 2356.33 956.667 2356.33 959 2309.67 959Z" fill="#7030A0"/><path d="M2309.67 966 2356.33 966 2356.33 968.333 2309.67 968.333Z" fill="#7030A0"/><path d="M2309.67 975.333 2356.33 975.333 2356.33 977.667 2309.67 977.667Z" fill="#7030A0"/><path d="M2298 898.333 2298 991.667 2368 991.667 2368 923.517 2342.82 898.333ZM2343.52 902.336 2364 922.813C2364 922.818 2364 922.826 2364 922.83 2363.99 922.832 2363.99 922.833 2363.99 922.833L2343.5 922.833 2343.5 902.344C2343.5 902.338 2343.51 902.333 2343.51 902.333 2343.51 902.333 2343.52 902.334 2343.52 902.336ZM2300.33 989.333 2300.33 900.667 2341.17 900.667 2341.17 925.167 2365.67 925.167 2365.67 989.333Z" fill="#7030A0"/></g></g></g><text fill="#7030A0" font-family="MS Mincho,MS Mincho_MSFontService,sans-serif" font-weight="700" font-size="55" transform="matrix(1 0 0 1 2295.37 1059)">➌</text><text fill="#7030A0" font-family="BIZ UDPGothic,BIZ UDPGothic_MSFontService,sans-serif" font-weight="700" font-size="55" transform="matrix(1 0 0 1 2368.7 1059)">醸造後</text><text fill="#7030A0" font-family="BIZ UDPGothic,BIZ UDPGothic_MSFontService,sans-serif" font-weight="700" font-size="55" transform="matrix(1 0 0 1 2295.37 1126)">データ</text><path d="M2456 1308 2801 1308 2801 1280 2857 1336 2801 1392 2801 1364 2456 1364Z" fill="#A6A6A6" fill-rule="evenodd"/><text fill="#7030A0" font-family="MS Mincho,MS Mincho_MSFontService,sans-serif" font-weight="700" font-size="55" transform="matrix(1 0 0 1 2484.02 1433)">➍</text><text fill="#7030A0" font-family="BIZ UDPGothic,BIZ UDPGothic_MSFontService,sans-serif" font-weight="700" font-size="55" transform="matrix(1 0 0 1 2557.35 1433)">醸造供給</text><text fill="#7030A0" font-family="BIZ UDPGothic,BIZ UDPGothic_MSFontService,sans-serif" font-weight="700" font-size="55" transform="matrix(1 0 0 1 2492.89 1500)">(</text><text fill="#7030A0" font-family="BIZ UDPGothic,BIZ UDPGothic_MSFontService,sans-serif" font-weight="700" font-size="55" transform="matrix(1 0 0 1 2520.39 1500)">結果通知</text><text fill="#7030A0" font-family="BIZ UDPGothic,BIZ UDPGothic_MSFontService,sans-serif" font-weight="700" font-size="55" transform="matrix(1 0 0 1 2740.39 1500)">)</text><g><g><g><path d="M90.8813 19.6563 20.1188 19.6563C17.9348 19.669 16.1748 21.4497 16.1875 23.6336 16.1875 23.6336 16.1875 23.6338 16.1875 23.6338L16.1875 71.4331C16.1747 73.6171 17.9347 75.3978 20.1186 75.4107 20.1186 75.4107 20.1188 75.4107 20.1188 75.4107L63.3625 75.4107 79.0875 91.3438 79.0875 75.4107 90.8813 75.4107C93.0652 75.3979 94.8252 73.6172 94.8125 71.4333 94.8125 71.4333 94.8125 71.4331 94.8125 71.4331L94.8125 23.6338C94.8254 21.4498 93.0653 19.6691 90.8814 19.6563 90.8814 19.6563 90.8813 19.6563 90.8813 19.6563ZM37 53.1875C33.8071 53.1875 31.2188 50.5991 31.2188 47.4063 31.2188 44.2134 33.8071 41.625 37 41.625 40.1929 41.625 42.7813 44.2134 42.7813 47.4063 42.7813 50.5991 40.1929 53.1875 37 53.1875ZM55.5 53.1875C52.3071 53.1875 49.7188 50.5991 49.7188 47.4063 49.7188 44.2134 52.3071 41.625 55.5 41.625 58.6929 41.625 61.2813 44.2134 61.2813 47.4063 61.2813 50.5991 58.6929 53.1875 55.5 53.1875ZM74 53.1875C70.8072 53.1875 68.2188 50.5991 68.2188 47.4063 68.2188 44.2134 70.8072 41.625 74 41.625 77.1929 41.625 79.7813 44.2134 79.7813 47.4063 79.7813 50.5991 77.1929 53.1875 74 53.1875Z" fill="#7030A0" transform="matrix(1.00901 0 0 1 2575 1194)"/></g></g></g><g><g><g><path d="M235.125 55.6875C235.125 69.3565 196.342 80.4375 148.5 80.4375 100.658 80.4375 61.875 69.3565 61.875 55.6875 61.875 42.0185 100.658 30.9375 148.5 30.9375 196.342 30.9375 235.125 42.0185 235.125 55.6875Z" fill="#ED7D31" transform="matrix(1 0 0 1.00337 2915 1187)"/><path d="M210.375 117.562C206.663 117.562 204.188 115.088 204.188 111.375 204.188 107.662 206.663 105.188 210.375 105.188 214.087 105.188 216.562 107.662 216.562 111.375 216.562 115.088 214.087 117.562 210.375 117.562ZM148.5 92.8125C100.856 92.8125 61.875 81.675 61.875 68.0625L61.875 117.562C61.875 131.175 100.856 142.312 148.5 142.312 196.144 142.312 235.125 131.175 235.125 117.562L235.125 68.0625C235.125 81.675 196.144 92.8125 148.5 92.8125Z" fill="#ED7D31" transform="matrix(1 0 0 1.00337 2915 1187)"/><path d="M210.375 179.438C206.663 179.438 204.188 176.963 204.188 173.25 204.188 169.537 206.663 167.062 210.375 167.062 214.087 167.062 216.562 169.537 216.562 173.25 216.562 176.963 214.087 179.438 210.375 179.438ZM148.5 154.688C100.856 154.688 61.875 143.55 61.875 129.938L61.875 179.438C61.875 193.05 100.856 204.188 148.5 204.188 196.144 204.188 235.125 193.05 235.125 179.438L235.125 129.938C235.125 143.55 196.144 154.688 148.5 154.688Z" fill="#ED7D31" transform="matrix(1 0 0 1.00337 2915 1187)"/><path d="M210.375 241.312C206.663 241.312 204.188 238.837 204.188 235.125 204.188 231.413 206.663 228.938 210.375 228.938 214.087 228.938 216.562 231.413 216.562 235.125 216.562 238.837 214.087 241.312 210.375 241.312ZM148.5 216.562C100.856 216.562 61.875 205.425 61.875 191.812L61.875 241.312C61.875 254.925 100.856 266.062 148.5 266.062 196.144 266.062 235.125 254.925 235.125 241.312L235.125 191.812C235.125 205.425 196.144 216.562 148.5 216.562Z" fill="#ED7D31" transform="matrix(1 0 0 1.00337 2915 1187)"/></g></g></g><text font-family="BIZ UDPGothic,BIZ UDPGothic_MSFontService,sans-serif" font-weight="700" font-size="64" transform="matrix(1 0 0 1 2904.4 1543)">JSON</text><text font-family="BIZ UDPGothic,BIZ UDPGothic_MSFontService,sans-serif" font-weight="700" font-size="64" transform="matrix(1 0 0 1 3098.05 1543)">-</text><text font-family="BIZ UDPGothic,BIZ UDPGothic_MSFontService,sans-serif" font-weight="700" font-size="64" transform="matrix(1 0 0 1 3128.99 1543)">LD</text><text font-family="BIZ UDPGothic,BIZ UDPGothic_MSFontService,sans-serif" font-weight="700" font-size="64" transform="matrix(1 0 0 1 2879.49 1620)">データベース</text><rect x="1897.5" y="1765.5" width="1177" height="303" stroke="#7030A0" stroke-width="4.58333" stroke-miterlimit="8" fill="none"/><text fill="#7030A0" font-family="Arial,Arial_MSFontService,sans-serif" font-weight="400" font-size="50" transform="matrix(1 0 0 1 1942.78 1858)">•</text><text fill="#7030A0" font-family="BIZ UDPGothic,BIZ UDPGothic_MSFontService,sans-serif" font-weight="400" font-size="50" transform="matrix(1 0 0 1 1981.74 1858)">使用する醸造酵母</text><text fill="#7030A0" font-family="Consolas,Consolas_MSFontService,sans-serif" font-weight="400" font-size="50" transform="matrix(1 0 0 1 2449.46 1858)">RWDataBrewerInfo</text><text fill="#7030A0" font-family="Arial,Arial_MSFontService,sans-serif" font-weight="400" font-size="50" transform="matrix(1 0 0 1 1942.78 1918)">•</text><text fill="#7030A0" font-family="BIZ UDPGothic,BIZ UDPGothic_MSFontService,sans-serif" font-weight="400" font-size="50" transform="matrix(1 0 0 1 1981.74 1918)">入力データセット</text><text fill="#7030A0" font-family="Consolas,Consolas_MSFontService,sans-serif" font-weight="400" font-size="50" transform="matrix(1 0 0 1 2449.46 1918)">RWDataBrewerInput</text><text fill="#7030A0" font-family="Arial,Arial_MSFontService,sans-serif" font-weight="400" font-size="50" transform="matrix(1 0 0 1 1942.78 1979)">•</text><text fill="#7030A0" font-family="BIZ UDPGothic,BIZ UDPGothic_MSFontService,sans-serif" font-weight="400" font-size="50" transform="matrix(1 0 0 1 1981.74 1979)">醸造時引数</text><text fill="#7030A0" font-family="Consolas,Consolas_MSFontService,sans-serif" font-weight="400" font-size="50" transform="matrix(1 0 0 1 2449.46 1979)">RWDataBrewingArgument</text><text fill="#7030A0" font-family="Arial,Arial_MSFontService,sans-serif" font-weight="400" font-size="50" transform="matrix(1 0 0 1 1942.78 2039)">•</text><text fill="#7030A0" font-family="BIZ UDPGothic,BIZ UDPGothic_MSFontService,sans-serif" font-weight="400" font-size="50" transform="matrix(1 0 0 1 1981.74 2039)">醸造後データ出力先</text><text fill="#7030A0" font-family="Consolas,Consolas_MSFontService,sans-serif" font-weight="400" font-size="50" transform="matrix(1 0 0 1 2449.46 2039)">RWDataStoringInfo</text><path d="M1516.5 1461.5 1897.56 1916.74" stroke="#7030A0" stroke-width="4.58333" stroke-miterlimit="8" fill="none" fill-rule="evenodd"/><rect x="1681" y="898" width="57.0001" height="862" fill="#A6A6A6"/><text font-family="BIZ UDPGothic,BIZ UDPGothic_MSFontService,sans-serif" font-weight="700" font-size="64" transform="matrix(1 0 0 1 430.525 1154)">傾向に基づき</text><text font-family="BIZ UDPGothic,BIZ UDPGothic_MSFontService,sans-serif" font-weight="700" font-size="64" transform="matrix(1 0 0 1 376.946 1231)">自動スケジュール</text><text font-family="BIZ UDPGothic,BIZ UDPGothic_MSFontService,sans-serif" font-weight="700" font-size="64" transform="matrix(1 0 0 1 376.367 1717)">手動スケジュール</text><path d="M870 753C919.982 753 960.501 793.421 960.501 843.282L960.501 843.421C960.501 893.282 1001.02 933.703 1051 933.703 1001.02 933.703 960.501 974.123 960.501 1023.98L960.501 1718.72C960.501 1768.58 919.982 1809 870 1809" stroke="#A6A6A6" stroke-width="13.75" stroke-miterlimit="8" fill="none" fill-rule="evenodd"/><g><g><g><path d="M149.333 70C149.333 90.6187 132.619 107.333 112 107.333 91.3814 107.333 74.6667 90.6187 74.6667 70 74.6667 49.3814 91.3814 32.6667 112 32.6667 132.619 32.6667 149.333 49.3814 149.333 70Z" fill="#548235" transform="matrix(1 0 0 1.00446 461 1421)"/><path d="M186.667 191.333 186.667 154C186.667 148.4 183.867 142.8 179.2 139.067 168.933 130.667 155.867 125.067 142.8 121.333 133.467 118.533 123.2 116.667 112 116.667 101.733 116.667 91.4667 118.533 81.2 121.333 68.1334 125.067 55.0667 131.6 44.8 139.067 40.1334 142.8 37.3334 148.4 37.3334 154L37.3334 191.333 186.667 191.333Z" fill="#548235" transform="matrix(1 0 0 1.00446 461 1421)"/></g></g></g><path d="M622.5 1429.5C622.5 1393.6 651.602 1364.5 687.5 1364.5 723.398 1364.5 752.5 1393.6 752.5 1429.5 752.5 1465.4 723.398 1494.5 687.5 1494.5 651.602 1494.5 622.5 1465.4 622.5 1429.5Z" stroke="#507E32" stroke-width="11.4583" stroke-miterlimit="8" fill="none" fill-rule="evenodd"/><path d="M682 1382 692.096 1382 692.096 1424.66 734 1424.66 734 1434 682 1434Z" fill="#548235" fill-rule="evenodd"/><g><g><g><path d="M138.367 87.0334C128.567 87.0334 120.867 79.1001 120.867 69.5334 120.867 59.9667 128.8 52.0334 138.367 52.0334 148.167 52.0334 155.867 59.9667 155.867 69.5334 155.867 79.1001 147.933 87.0334 138.367 87.0334ZM177.8 58.5667C176.867 55.3 175.7 52.2667 174.067 49.4667L177.8 38.5 169.4 30.1 158.433 33.8334C155.633 32.2 152.6 31.0334 149.333 30.1L144.2 19.8333 132.533 19.8333 127.4 30.1C124.133 31.0334 121.1 32.2 118.3 33.8334L107.333 30.1 98.9334 38.5 102.667 49.4667C101.033 52.2667 99.8667 55.3 98.9334 58.5667L88.6667 63.7 88.6667 75.3667 98.9334 80.5C99.8667 83.7667 101.033 86.8 102.667 89.6001L98.9334 100.567 107.1 108.733 118.067 105C120.867 106.633 123.9 107.8 127.167 108.733L132.3 119 143.967 119 149.1 108.733C152.367 107.8 155.4 106.633 158.2 105L169.167 108.733 177.567 100.567 173.833 89.6001C175.467 86.8 176.867 83.5334 177.8 80.5L188.067 75.3667 188.067 63.7 177.8 58.5667Z" fill="#548235" transform="matrix(-1 0 0 1.00446 682 852)"/><path d="M85.6334 171.967C75.8334 171.967 68.1334 164.033 68.1334 154.467 68.1334 144.667 76.0667 136.967 85.6334 136.967 95.4334 136.967 103.133 144.9 103.133 154.467 103.133 164.033 95.4334 171.967 85.6334 171.967L85.6334 171.967ZM121.333 134.4 125.067 123.433 116.667 115.033 105.7 118.767C102.9 117.133 99.6334 115.967 96.6001 115.033L91.4667 104.767 79.8 104.767 74.6667 115.033C71.4 115.967 68.3667 117.133 65.5667 118.767L54.6 115.033 46.4334 123.2 49.9334 134.167C48.3 136.967 47.1334 140.233 46.2 143.267L35.9334 148.4 35.9334 160.067 46.2 165.2C47.1334 168.467 48.3 171.5 49.9334 174.3L46.4334 185.267 54.6 193.433 65.5667 189.933C68.3667 191.567 71.4 192.733 74.6667 193.667L79.8 203.933 91.4667 203.933 96.6001 193.667C99.8667 192.733 102.9 191.567 105.7 189.933L116.667 193.667 124.833 185.267 121.333 174.533C122.967 171.733 124.133 168.7 125.067 165.433L135.333 160.3 135.333 148.633 125.067 143.5C124.133 140.233 122.967 137.2 121.333 134.4Z" fill="#548235" transform="matrix(-1 0 0 1.00446 682 852)"/></g></g></g><path d="M614.5 857.5C614.5 821.601 643.602 792.5 679.5 792.5 715.399 792.5 744.5 821.601 744.5 857.5 744.5 893.399 715.399 922.5 679.5 922.5 643.602 922.5 614.5 893.399 614.5 857.5Z" stroke="#507E32" stroke-width="11.4583" stroke-miterlimit="8" fill="none" fill-rule="evenodd"/><path d="M674 810 684.096 810 684.096 852.661 726 852.661 726 862 674 862Z" fill="#548235" fill-rule="evenodd"/><rect x="1930" y="1729" width="565" height="70.9998" fill="#FFFFFF"/><text fill="#7030A0" font-family="Consolas,Consolas_MSFontService,sans-serif" font-weight="700" font-size="50" transform="matrix(1 0 0 1 1951.52 1782)">RWDataBrewingDemand</text></g></svg>