<svg width="4003" height="1503" xmlns="http://www.w3.org/2000/svg" xmlns:xlink="http://www.w3.org/1999/xlink" xml:space="preserve" overflow="hidden"><g transform="translate(-153 -445)"><g><g><g><path d="M163.875 38.8125C163.875 48.3394 136.844 56.0625 103.5 56.0625 70.1558 56.0625 43.125 48.3394 43.125 38.8125 43.125 29.2856 70.1558 21.5625 103.5 21.5625 136.844 21.5625 163.875 29.2856 163.875 38.8125Z" fill="#ED7D31" transform="matrix(1.00483 0 0 1 3948 1034)"/><path d="M146.625 81.9375C144.037 81.9375 142.312 80.2125 142.312 77.625 142.312 75.0375 144.037 73.3125 146.625 73.3125 149.212 73.3125 150.937 75.0375 150.937 77.625 150.937 80.2125 149.212 81.9375 146.625 81.9375ZM103.5 64.6875C70.2937 64.6875 43.125 56.925 43.125 47.4375L43.125 81.9375C43.125 91.425 70.2937 99.1875 103.5 99.1875 136.706 99.1875 163.875 91.425 163.875 81.9375L163.875 47.4375C163.875 56.925 136.706 64.6875 103.5 64.6875Z" fill="#ED7D31" transform="matrix(1.00483 0 0 1 3948 1034)"/><path d="M146.625 125.062C144.037 125.062 142.312 123.337 142.312 120.75 142.312 118.162 144.037 116.437 146.625 116.437 149.212 116.437 150.937 118.162 150.937 120.75 150.937 123.337 149.212 125.062 146.625 125.062ZM103.5 107.812C70.2937 107.812 43.125 100.05 43.125 90.5625L43.125 125.062C43.125 134.55 70.2937 142.312 103.5 142.312 136.706 142.312 163.875 134.55 163.875 125.062L163.875 90.5625C163.875 100.05 136.706 107.812 103.5 107.812Z" fill="#ED7D31" transform="matrix(1.00483 0 0 1 3948 1034)"/><path d="M146.625 168.187C144.037 168.187 142.312 166.462 142.312 163.875 142.312 161.287 144.037 159.562 146.625 159.562 149.212 159.562 150.937 161.287 150.937 163.875 150.937 166.462 149.212 168.187 146.625 168.187ZM103.5 150.937C70.2937 150.937 43.125 143.175 43.125 133.687L43.125 168.187C43.125 177.675 70.2937 185.437 103.5 185.437 136.706 185.437 163.875 177.675 163.875 168.187L163.875 133.687C163.875 143.175 136.706 150.937 103.5 150.937Z" fill="#ED7D31" transform="matrix(1.00483 0 0 1 3948 1034)"/></g></g></g><g><g><g><path d="M3774.88 1779.81C3774.88 1789.34 3747.84 1797.06 3714.5 1797.06 3681.16 1797.06 3654.12 1789.34 3654.12 1779.81 3654.12 1770.29 3681.16 1762.56 3714.5 1762.56 3747.84 1762.56 3774.88 1770.29 3774.88 1779.81Z" fill="#ED7D31"/><path d="M3757.62 1822.94C3755.04 1822.94 3753.31 1821.21 3753.31 1818.63 3753.31 1816.04 3755.04 1814.31 3757.62 1814.31 3760.21 1814.31 3761.94 1816.04 3761.94 1818.63 3761.94 1821.21 3760.21 1822.94 3757.62 1822.94ZM3714.5 1805.69C3681.29 1805.69 3654.12 1797.93 3654.12 1788.44L3654.12 1822.94C3654.12 1832.43 3681.29 1840.19 3714.5 1840.19 3747.71 1840.19 3774.88 1832.43 3774.88 1822.94L3774.88 1788.44C3774.88 1797.93 3747.71 1805.69 3714.5 1805.69Z" fill="#ED7D31"/><path d="M3757.62 1866.06C3755.04 1866.06 3753.31 1864.34 3753.31 1861.75 3753.31 1859.16 3755.04 1857.44 3757.62 1857.44 3760.21 1857.44 3761.94 1859.16 3761.94 1861.75 3761.94 1864.34 3760.21 1866.06 3757.62 1866.06ZM3714.5 1848.81C3681.29 1848.81 3654.12 1841.05 3654.12 1831.56L3654.12 1866.06C3654.12 1875.55 3681.29 1883.31 3714.5 1883.31 3747.71 1883.31 3774.88 1875.55 3774.88 1866.06L3774.88 1831.56C3774.88 1841.05 3747.71 1848.81 3714.5 1848.81Z" fill="#ED7D31"/><path d="M3757.62 1909.19C3755.04 1909.19 3753.31 1907.46 3753.31 1904.88 3753.31 1902.29 3755.04 1900.56 3757.62 1900.56 3760.21 1900.56 3761.94 1902.29 3761.94 1904.88 3761.94 1907.46 3760.21 1909.19 3757.62 1909.19ZM3714.5 1891.94C3681.29 1891.94 3654.12 1884.18 3654.12 1874.69L3654.12 1909.19C3654.12 1918.68 3681.29 1926.44 3714.5 1926.44 3747.71 1926.44 3774.88 1918.68 3774.88 1909.19L3774.88 1874.69C3774.88 1884.18 3747.71 1891.94 3714.5 1891.94Z" fill="#ED7D31"/></g></g></g><path d="M2638.5 1493.83C2638.5 1469.9 2657.9 1450.5 2681.83 1450.5L3245.17 1450.5C3269.1 1450.5 3288.5 1469.9 3288.5 1493.83L3288.5 1667.17C3288.5 1691.1 3269.1 1710.5 3245.17 1710.5L2681.83 1710.5C2657.9 1710.5 2638.5 1691.1 2638.5 1667.17Z" stroke="#525252" stroke-width="4.58333" stroke-miterlimit="8" fill="#7C7C7C" fill-rule="evenodd"/><text fill="#FFFFFF" font-family="Yu Gothic,Yu Gothic_MSFontService,sans-serif" font-weight="700" font-size="83" transform="matrix(1 0 0 1 2715.79 1557)">センサ付属の</text><text fill="#FFFFFF" font-family="Yu Gothic,Yu Gothic_MSFontService,sans-serif" font-weight="700" font-size="83" transform="matrix(1 0 0 1 2715.79 1656)">収集システム</text><path d="M820.5 490.667C820.5 466.827 839.827 447.5 863.667 447.5L1426.33 447.5C1450.17 447.5 1469.5 466.827 1469.5 490.667L1469.5 663.333C1469.5 687.173 1450.17 706.5 1426.33 706.5L863.667 706.5C839.827 706.5 820.5 687.173 820.5 663.333Z" stroke="#525252" stroke-width="4.58333" stroke-miterlimit="8" fill="#7C7C7C" fill-rule="evenodd"/><text fill="#FFFFFF" font-family="Yu Gothic,Yu Gothic_MSFontService,sans-serif" font-weight="700" font-size="83" transform="matrix(1 0 0 1 955.903 603)">IoT</text><text fill="#FFFFFF" font-family="Yu Gothic,Yu Gothic_MSFontService,sans-serif" font-weight="700" font-size="83" transform="matrix(1 0 0 1 1085.38 603)">センサ</text><path d="M1530.87 569.125 2576.42 569.125 2576.42 582.875 1530.87 582.875ZM1537.75 596.625 1469 576 1537.75 555.375ZM2569.54 555.375 2638.29 576 2569.54 596.625Z" fill="#525252"/><path d="M170 771 4119.61 771" stroke="#A5A5A5" stroke-width="2.29167" stroke-miterlimit="8" fill="none" fill-rule="evenodd"/><text font-family="Yu Gothic,Yu Gothic_MSFontService,sans-serif" font-weight="700" font-size="83" transform="matrix(1 0 0 1 202.984 553)">従来型の</text><text font-family="Yu Gothic,Yu Gothic_MSFontService,sans-serif" font-weight="700" font-size="83" transform="matrix(1 0 0 1 202.984 652)">データ収集</text><path d="M2638.5 490.668C2638.5 466.827 2657.83 447.5 2681.67 447.5L3245.33 447.5C3269.17 447.5 3288.5 466.827 3288.5 490.668L3288.5 663.332C3288.5 687.173 3269.17 706.5 3245.33 706.5L2681.67 706.5C2657.83 706.5 2638.5 687.173 2638.5 663.332Z" stroke="#525252" stroke-width="4.58333" stroke-miterlimit="8" fill="#7C7C7C" fill-rule="evenodd"/><text fill="#FFFFFF" font-family="Yu Gothic,Yu Gothic_MSFontService,sans-serif" font-weight="700" font-size="83" transform="matrix(1 0 0 1 2715.79 553)">センサ付属の</text><text fill="#FFFFFF" font-family="Yu Gothic,Yu Gothic_MSFontService,sans-serif" font-weight="700" font-size="83" transform="matrix(1 0 0 1 2715.79 652)">収集システム</text><text fill="#525252" font-family="Yu Gothic,Yu Gothic_MSFontService,sans-serif" font-weight="700" font-size="64" transform="matrix(1 0 0 1 1765.09 551)">専用のプロトコルで</text><text fill="#525252" font-family="Yu Gothic,Yu Gothic_MSFontService,sans-serif" font-weight="700" font-size="64" transform="matrix(1 0 0 1 1861.34 644)">データを転送</text><path d="M170 1291 4119.61 1291" stroke="#A5A5A5" stroke-width="2.29167" stroke-miterlimit="8" fill="none" fill-rule="evenodd"/><path d="M820.5 951.834C820.5 927.901 839.901 908.5 863.834 908.5L1426.17 908.5C1450.1 908.5 1469.5 927.901 1469.5 951.834L1469.5 1125.17C1469.5 1149.1 1450.1 1168.5 1426.17 1168.5L863.834 1168.5C839.901 1168.5 820.5 1149.1 820.5 1125.17Z" stroke="#525252" stroke-width="4.58333" stroke-miterlimit="8" fill="#7C7C7C" fill-rule="evenodd"/><text fill="#FFFFFF" font-family="Yu Gothic,Yu Gothic_MSFontService,sans-serif" font-weight="700" font-size="83" transform="matrix(1 0 0 1 955.903 1064)">IoT</text><text fill="#FFFFFF" font-family="Yu Gothic,Yu Gothic_MSFontService,sans-serif" font-weight="700" font-size="83" transform="matrix(1 0 0 1 1085.38 1064)">センサ</text><path d="M1530.87 1031.13 2576.42 1031.13 2576.42 1044.88 1530.87 1044.88ZM1537.75 1058.63 1469 1038 1537.75 1017.38ZM2569.54 1017.38 2638.29 1038 2569.54 1058.63Z" fill="#4472C4"/><text font-family="Yu Gothic,Yu Gothic_MSFontService,sans-serif" font-weight="700" font-size="83" transform="matrix(1 0 0 1 202.984 965)">本基盤による</text><text font-family="Yu Gothic,Yu Gothic_MSFontService,sans-serif" font-weight="700" font-size="83" transform="matrix(1 0 0 1 202.984 1064)">データ収集</text><text font-family="Yu Gothic,Yu Gothic_MSFontService,sans-serif" font-weight="700" font-size="83" transform="matrix(1 0 0 1 202.984 1163)">(</text><text font-family="Yu Gothic,Yu Gothic_MSFontService,sans-serif" font-weight="700" font-size="83" transform="matrix(1 0 0 1 236.213 1163)">再現型</text><text font-family="Yu Gothic,Yu Gothic_MSFontService,sans-serif" font-weight="700" font-size="83" transform="matrix(1 0 0 1 483.713 1163)">)</text><path d="M2638.5 951.834C2638.5 927.901 2657.9 908.5 2681.83 908.5L3245.17 908.5C3269.1 908.5 3288.5 927.901 3288.5 951.834L3288.5 1125.17C3288.5 1149.1 3269.1 1168.5 3245.17 1168.5L2681.83 1168.5C2657.9 1168.5 2638.5 1149.1 2638.5 1125.17Z" stroke="#2F528F" stroke-width="4.58333" stroke-miterlimit="8" fill="#4472C4" fill-rule="evenodd"/><text fill="#FFFFFF" font-family="Yu Gothic,Yu Gothic_MSFontService,sans-serif" font-weight="700" font-size="83" transform="matrix(1 0 0 1 2798.29 1015)">本基盤の</text><text fill="#FFFFFF" font-family="Yu Gothic,Yu Gothic_MSFontService,sans-serif" font-weight="700" font-size="83" transform="matrix(1 0 0 1 2715.79 1114)">収集システム</text><text fill="#4472C4" font-family="Yu Gothic,Yu Gothic_MSFontService,sans-serif" font-weight="700" font-size="64" transform="matrix(1 0 0 1 1668.84 1016)">専用のプロトコルを再現し</text><text fill="#4472C4" font-family="Yu Gothic,Yu Gothic_MSFontService,sans-serif" font-weight="700" font-size="64" transform="matrix(1 0 0 1 1861.34 1109)">データを転送</text><path d="M7.83395e-06-6.875 254.841-6.87471 254.841 6.87529-7.83395e-06 6.875ZM247.966-20.6247 316.716 0.000360892 247.966 20.6253Z" fill="#525252" transform="matrix(1 0 0 -1 3288 576)"/><text fill="#525252" font-family="Yu Gothic,Yu Gothic_MSFontService,sans-serif" font-weight="700" font-size="64" transform="matrix(1 0 0 1 3360.66 551)">保存</text><path d="M1.56679e-05-6.875 254.84-6.87442 254.84 6.87558-1.56679e-05 6.875ZM247.965-20.6244 316.715 0.000721785 247.965 20.6256Z" fill="#525252" transform="matrix(1 0 0 -1 3288 946.001)"/><text fill="#525252" font-family="Yu Gothic,Yu Gothic_MSFontService,sans-serif" font-weight="700" font-size="64" transform="matrix(1 0 0 1 3360.66 922)">保存</text><path d="M3.76432e-06-6.875 597.245-6.87467 597.245 6.87533-3.76432e-06 6.875ZM590.37-20.6247 659.12 0.000360892 590.37 20.6253Z" fill="#4472C4" transform="matrix(1 0 0 -1 3288 1138)"/><text fill="#4472C4" font-family="Yu Gothic,Yu Gothic_MSFontService,sans-serif" font-weight="700" font-size="64" transform="matrix(1 0 0 1 3398.35 1115)">メタデータ・</text><text fill="#4472C4" font-family="Yu Gothic,Yu Gothic_MSFontService,sans-serif" font-weight="700" font-size="64" transform="matrix(1 0 0 1 3366.26 1208)">ステータス更新</text><text font-family="Yu Gothic,Yu Gothic_MSFontService,sans-serif" font-weight="700" font-size="83" transform="matrix(1 0 0 1 202.984 1488)">本基盤による</text><text font-family="Yu Gothic,Yu Gothic_MSFontService,sans-serif" font-weight="700" font-size="83" transform="matrix(1 0 0 1 202.984 1587)">データ収集</text><text font-family="Yu Gothic,Yu Gothic_MSFontService,sans-serif" font-weight="700" font-size="83" transform="matrix(1 0 0 1 202.984 1686)">(</text><text font-family="Yu Gothic,Yu Gothic_MSFontService,sans-serif" font-weight="700" font-size="83" transform="matrix(1 0 0 1 236.213 1686)">プロキシ型</text><text font-family="Yu Gothic,Yu Gothic_MSFontService,sans-serif" font-weight="700" font-size="83" transform="matrix(1 0 0 1 648.713 1686)">)</text><path d="M820.5 1493.83C820.5 1469.9 839.901 1450.5 863.834 1450.5L1426.17 1450.5C1450.1 1450.5 1469.5 1469.9 1469.5 1493.83L1469.5 1667.17C1469.5 1691.1 1450.1 1710.5 1426.17 1710.5L863.834 1710.5C839.901 1710.5 820.5 1691.1 820.5 1667.17Z" stroke="#525252" stroke-width="4.58333" stroke-miterlimit="8" fill="#7C7C7C" fill-rule="evenodd"/><text fill="#FFFFFF" font-family="Yu Gothic,Yu Gothic_MSFontService,sans-serif" font-weight="700" font-size="83" transform="matrix(1 0 0 1 955.903 1607)">IoT</text><text fill="#FFFFFF" font-family="Yu Gothic,Yu Gothic_MSFontService,sans-serif" font-weight="700" font-size="83" transform="matrix(1 0 0 1 1085.38 1607)">センサ</text><path d="M1530.87 1573.12 2576.42 1573.13 2576.42 1586.88 1530.87 1586.87ZM1537.75 1600.62 1469 1580 1537.75 1559.37ZM2569.54 1559.38 2638.29 1580 2569.54 1600.63Z" fill="#525252"/><path d="M1729.5 1493.83C1729.5 1469.9 1748.9 1450.5 1772.83 1450.5L2336.17 1450.5C2360.1 1450.5 2379.5 1469.9 2379.5 1493.83L2379.5 1667.17C2379.5 1691.1 2360.1 1710.5 2336.17 1710.5L1772.83 1710.5C1748.9 1710.5 1729.5 1691.1 1729.5 1667.17Z" stroke="#2F528F" stroke-width="4.58333" stroke-miterlimit="8" fill="#4472C4" fill-rule="evenodd"/><text fill="#FFFFFF" font-family="Yu Gothic,Yu Gothic_MSFontService,sans-serif" font-weight="700" font-size="83" transform="matrix(1 0 0 1 1888.84 1557)">本基盤の</text><text fill="#FFFFFF" font-family="Yu Gothic,Yu Gothic_MSFontService,sans-serif" font-weight="700" font-size="83" transform="matrix(1 0 0 1 1806.34 1656)">収集システム</text><path d="M3288 1573.12 3542.84 1573.13 3542.84 1586.88 3288 1586.87ZM3535.97 1559.38 3604.72 1580 3535.97 1600.63Z" fill="#525252"/><text fill="#525252" font-family="Yu Gothic,Yu Gothic_MSFontService,sans-serif" font-weight="700" font-size="64" transform="matrix(1 0 0 1 3360.66 1557)">保存</text><text fill="#4472C4" font-family="Yu Gothic,Yu Gothic_MSFontService,sans-serif" font-weight="700" font-size="64" transform="matrix(1 0 0 1 1769.85 1427)">プロキシとして動作</text><path d="M0-6.875 141.228-6.875 141.228 1489.09 127.478 1489.09 127.478 0 134.353 6.875 0 6.875ZM154.978 1482.22 134.353 1550.97 113.728 1482.22Z" fill="#4472C4" transform="matrix(1.83697e-16 1 1 -1.83697e-16 2054 1710)"/><text fill="#4472C4" font-family="Yu Gothic,Yu Gothic_MSFontService,sans-serif" font-weight="700" font-size="64" transform="matrix(1 0 0 1 2390.58 1822)">メタデータ・ステータス更新</text><g><g><g><path d="M62.9177 80.5521 171.99 80.5521 171.99 69.6667C171.99 64.8771 168.071 60.9583 163.281 60.9583L97.9688 60.9583 74.0208 45.0656C72.4969 44.1948 70.9729 43.5417 69.2312 43.5417L28.3021 43.5417C23.5125 43.5417 19.5938 47.4604 19.5938 52.25L19.5938 158.927C19.5938 159.362 47.6781 90.7844 47.6781 90.7844 50.2906 84.6885 56.1687 80.5521 62.9177 80.5521Z" fill="#7F6000" transform="matrix(1 0 0 1.00478 3615 848)"/><path d="M189.406 97.9688C189.406 93.3969 186.141 89.6958 181.569 89.2604L62.9177 89.2604C59.6521 89.2604 56.8219 91.2198 55.5156 94.05L26.125 165.458 158.927 165.458 188.535 101.887C189.189 100.581 189.406 99.275 189.406 97.9688L189.406 97.9688Z" fill="#7F6000" transform="matrix(1 0 0 1.00478 3615 848)"/></g></g></g><g><g><g><path d="M62.9177 80.5521 171.99 80.5521 171.99 69.6667C171.99 64.8771 168.071 60.9583 163.281 60.9583L97.9688 60.9583 74.0208 45.0656C72.4969 44.1948 70.9729 43.5417 69.2312 43.5417L28.3021 43.5417C23.5125 43.5417 19.5938 47.4604 19.5938 52.25L19.5938 158.927C19.5938 159.362 47.6781 90.7844 47.6781 90.7844 50.2906 84.6885 56.1687 80.5521 62.9177 80.5521Z" fill="#7F6000" transform="matrix(1 0 0 1.00478 3611 469)"/><path d="M189.406 97.9688C189.406 93.3969 186.141 89.6958 181.569 89.2604L62.9177 89.2604C59.6521 89.2604 56.8219 91.2198 55.5156 94.05L26.125 165.458 158.927 165.458 188.535 101.887C189.189 100.581 189.406 99.275 189.406 97.9688L189.406 97.9688Z" fill="#7F6000" transform="matrix(1 0 0 1.00478 3611 469)"/></g></g></g><g><g><g><path d="M3677.92 1556.55 3786.99 1556.55 3786.99 1545.67C3786.99 1540.88 3783.07 1536.96 3778.28 1536.96L3712.97 1536.96 3689.02 1521.07C3687.5 1520.19 3685.97 1519.54 3684.23 1519.54L3643.3 1519.54C3638.51 1519.54 3634.59 1523.46 3634.59 1528.25L3634.59 1634.93C3634.59 1635.36 3662.68 1566.78 3662.68 1566.78 3665.29 1560.69 3671.17 1556.55 3677.92 1556.55Z" fill="#7F6000"/><path d="M3804.41 1573.97C3804.41 1569.4 3801.14 1565.7 3796.57 1565.26L3677.92 1565.26C3674.65 1565.26 3671.82 1567.22 3670.52 1570.05L3641.12 1641.46 3773.93 1641.46 3803.54 1577.89C3804.19 1576.58 3804.41 1575.28 3804.41 1573.97L3804.41 1573.97Z" fill="#7F6000"/></g></g></g></g></svg>