<svg width="3870" height="2366" xmlns="http://www.w3.org/2000/svg" xmlns:xlink="http://www.w3.org/1999/xlink" xml:space="preserve" overflow="hidden"><g transform="translate(-395 -4)"><path d="M402 267.331C402 192.037 463.037 131 538.33 131L4121.67 131C4196.96 131 4258 192.037 4258 267.331L4258 2226.67C4258 2301.96 4196.96 2363 4121.67 2363L538.33 2363C463.037 2363 402 2301.96 402 2226.67Z" stroke="#ED7D31" stroke-width="13.75" stroke-miterlimit="8" fill="none" fill-rule="evenodd"/><rect x="585" y="4.00013" width="254" height="254" fill="#FFFFFF"/><g><g><g><path d="M772.875 65.8127C772.875 75.3396 745.844 83.0626 712.5 83.0626 679.156 83.0626 652.125 75.3396 652.125 65.8127 652.125 56.2857 679.156 48.5627 712.5 48.5627 745.844 48.5627 772.875 56.2857 772.875 65.8127Z" fill="#ED7D31"/><path d="M755.625 108.938C753.038 108.938 751.313 107.213 751.313 104.625 751.313 102.038 753.038 100.313 755.625 100.313 758.213 100.313 759.938 102.038 759.938 104.625 759.938 107.213 758.213 108.938 755.625 108.938ZM712.5 91.6876C679.294 91.6876 652.125 83.9251 652.125 74.4377L652.125 108.938C652.125 118.425 679.294 126.188 712.5 126.188 745.706 126.188 772.875 118.425 772.875 108.938L772.875 74.4377C772.875 83.9251 745.706 91.6876 712.5 91.6876Z" fill="#ED7D31"/><path d="M755.625 152.063C753.038 152.063 751.313 150.338 751.313 147.75 751.313 145.163 753.038 143.438 755.625 143.438 758.213 143.438 759.938 145.163 759.938 147.75 759.938 150.338 758.213 152.063 755.625 152.063ZM712.5 134.813C679.294 134.813 652.125 127.05 652.125 117.563L652.125 152.063C652.125 161.55 679.294 169.313 712.5 169.313 745.706 169.313 772.875 161.55 772.875 152.063L772.875 117.563C772.875 127.05 745.706 134.813 712.5 134.813Z" fill="#ED7D31"/><path d="M755.625 195.188C753.038 195.188 751.313 193.463 751.313 190.875 751.313 188.288 753.038 186.563 755.625 186.563 758.213 186.563 759.938 188.288 759.938 190.875 759.938 193.463 758.213 195.188 755.625 195.188ZM712.5 177.938C679.294 177.938 652.125 170.175 652.125 160.688L652.125 195.188C652.125 204.675 679.294 212.438 712.5 212.438 745.706 212.438 772.875 204.675 772.875 195.188L772.875 160.688C772.875 170.175 745.706 177.938 712.5 177.938Z" fill="#ED7D31"/></g></g></g><rect x="784" y="58.0001" width="1110" height="145" fill="#FFFFFF"/><text font-family="BIZ UDPGothic,BIZ UDPGothic_MSFontService,sans-serif" font-weight="700" font-size="92" transform="matrix(1 0 0 1 834.424 172)">JSON</text><text font-family="BIZ UDPGothic,BIZ UDPGothic_MSFontService,sans-serif" font-weight="700" font-size="92" transform="matrix(1 0 0 1 1110.57 172)">-</text><text font-family="BIZ UDPGothic,BIZ UDPGothic_MSFontService,sans-serif" font-weight="700" font-size="92" transform="matrix(1 0 0 1 1154.68 172)">LD</text><text font-family="BIZ UDPGothic,BIZ UDPGothic_MSFontService,sans-serif" font-weight="700" font-size="92" transform="matrix(1 0 0 1 1319.11 172)">データベース</text><path d="M596 485.219C596 454.723 620.723 430 651.219 430L1393.78 430C1424.28 430 1449 454.723 1449 485.219L1449 628.781C1449 659.278 1424.28 684 1393.78 684L651.219 684C620.723 684 596 659.278 596 628.781Z" fill="#71DAFF" fill-rule="evenodd"/><path d="M541 430.219C541 399.723 565.723 375 596.219 375L1338.78 375C1369.28 375 1394 399.723 1394 430.219L1394 573.781C1394 604.278 1369.28 629 1338.78 629L596.219 629C565.723 629 541 604.278 541 573.781Z" fill="#29C7FF" fill-rule="evenodd"/><path d="M486 375.219C486 344.723 510.723 320 541.219 320L1283.78 320C1314.28 320 1339 344.723 1339 375.219L1339 518.781C1339 549.278 1314.28 574 1283.78 574L541.219 574C510.723 574 486 549.278 486 518.781Z" fill="#00B0F0" fill-rule="evenodd"/><text fill="#FFFFFF" font-family="BIZ UDPGothic,BIZ UDPGothic_MSFontService,sans-serif" font-weight="700" font-size="83" transform="matrix(1 0 0 1 747.349 440)">構造情報</text><text fill="#FFFFFF" font-family="Consolas,Consolas_MSFontService,sans-serif" font-weight="400" font-size="73" transform="matrix(1 0 0 1 611.568 521)">RWStructureInfo</text><path d="M1722 541.194C1722 510.159 1747.16 485 1778.19 485L3044.81 485C3075.84 485 3101 510.159 3101 541.194L3101 1819.81C3101 1850.84 3075.84 1876 3044.81 1876L1778.19 1876C1747.16 1876 1722 1850.84 1722 1819.81Z" fill="#FFD44B" fill-rule="evenodd"/><text fill="#FFFFFF" font-family="BIZ UDPGothic,BIZ UDPGothic_MSFontService,sans-serif" font-weight="700" font-size="83" transform="matrix(1 0 0 1 1771.04 598)">実世界データセット</text><text fill="#FFFFFF" font-family="Consolas,Consolas_MSFontService,sans-serif" font-weight="400" font-size="83" transform="matrix(1 0 0 1 2494.06 598)">RWDataset</text><path d="M1667 486.194C1667 455.159 1692.16 430 1723.19 430L2989.81 430C3020.84 430 3046 455.159 3046 486.194L3046 1764.81C3046 1795.84 3020.84 1821 2989.81 1821L1723.19 1821C1692.16 1821 1667 1795.84 1667 1764.81Z" fill="#FEC200" fill-rule="evenodd"/><text fill="#FFFFFF" font-family="BIZ UDPGothic,BIZ UDPGothic_MSFontService,sans-serif" font-weight="700" font-size="83" transform="matrix(1 0 0 1 1716.04 543)">実世界データセット</text><text fill="#FFFFFF" font-family="Consolas,Consolas_MSFontService,sans-serif" font-weight="400" font-size="83" transform="matrix(1 0 0 1 2439.06 543)">RWDataset</text><path d="M1612 431.194C1612 400.159 1637.16 375 1668.19 375L2934.81 375C2965.84 375 2991 400.159 2991 431.194L2991 1709.81C2991 1740.84 2965.84 1766 2934.81 1766L1668.19 1766C1637.16 1766 1612 1740.84 1612 1709.81Z" fill="#EAB200" fill-rule="evenodd"/><text fill="#FFFFFF" font-family="BIZ UDPGothic,BIZ UDPGothic_MSFontService,sans-serif" font-weight="700" font-size="83" transform="matrix(1 0 0 1 1661.04 488)">実世界データセット</text><text fill="#FFFFFF" font-family="Consolas,Consolas_MSFontService,sans-serif" font-weight="400" font-size="83" transform="matrix(1 0 0 1 2384.06 488)">RWDataset</text><path d="M1557 376.194C1557 345.159 1582.16 320 1613.19 320L2879.81 320C2910.84 320 2936 345.159 2936 376.194L2936 1654.81C2936 1685.84 2910.84 1711 2879.81 1711L1613.19 1711C1582.16 1711 1557 1685.84 1557 1654.81Z" fill="#BF9000" fill-rule="evenodd"/><text fill="#FFFFFF" font-family="BIZ UDPGothic,BIZ UDPGothic_MSFontService,sans-serif" font-weight="700" font-size="83" transform="matrix(1 0 0 1 1606.04 434)">実世界データセット</text><text fill="#FFFFFF" font-family="Consolas,Consolas_MSFontService,sans-serif" font-weight="400" font-size="73" transform="matrix(1 0 0 1 2329.06 434)">RWDataset</text><path d="M1623 738.528C1623 710.622 1645.62 688 1673.53 688L2163.47 688C2191.38 688 2214 710.622 2214 738.528L2214 795.471C2214 823.378 2191.38 846 2163.47 846L1673.53 846C1645.62 846 1623 823.378 1623 795.471Z" fill="#00B0F0" fill-rule="evenodd"/><text fill="#FFFFFF" font-family="Consolas,Consolas_MSFontService,sans-serif" font-weight="400" font-size="64" transform="matrix(1 0 0 1 1687.8 789)">structureInfo</text><path d="M1622 939.209C1622 911.479 1644.48 889 1672.21 889L2162.79 889C2190.52 889 2213 911.479 2213 939.209L2213 995.791C2213 1023.52 2190.52 1046 2162.79 1046L1672.21 1046C1644.48 1046 1622 1023.52 1622 995.791Z" fill="#2E75B6" fill-rule="evenodd"/><text fill="#FFFFFF" font-family="Consolas,Consolas_MSFontService,sans-serif" font-weight="400" font-size="64" transform="matrix(1 0 0 1 1704.64 990)">distribution</text><path d="M1622 1139.21C1622 1111.48 1644.48 1089 1672.21 1089L2162.79 1089C2190.52 1089 2213 1111.48 2213 1139.21L2213 1195.79C2213 1223.52 2190.52 1246 2162.79 1246L1672.21 1246C1644.48 1246 1622 1223.52 1622 1195.79Z" fill="#C55A11" fill-rule="evenodd"/><text fill="#FFFFFF" font-family="Consolas,Consolas_MSFontService,sans-serif" font-weight="400" font-size="64" transform="matrix(1 0 0 1 1669.12 1190)">collectionInfo</text><path d="M2279 1340.21C2279 1312.48 2301.48 1290 2329.21 1290L2822.79 1290C2850.52 1290 2873 1312.48 2873 1340.21L2873 1396.79C2873 1424.52 2850.52 1447 2822.79 1447L2329.21 1447C2301.48 1447 2279 1424.52 2279 1396.79Z" fill="#595959" fill-rule="evenodd"/><text fill="#FFFFFF" font-family="Consolas,Consolas_MSFontService,sans-serif" font-weight="400" font-size="64" transform="matrix(1 0 0 1 2415.92 1391)">subjectOf</text><path d="M1622 1538.53C1622 1510.62 1644.62 1488 1672.53 1488L1935.47 1488C1963.38 1488 1986 1510.62 1986 1538.53L1986 1595.47C1986 1623.38 1963.38 1646 1935.47 1646L1672.53 1646C1644.62 1646 1622 1623.38 1622 1595.47Z" fill="#595959" fill-rule="evenodd"/><text fill="#FFFFFF" font-family="Consolas,Consolas_MSFontService,sans-serif" font-weight="400" font-size="64" transform="matrix(1 0 0 1 1697.71 1590)">author</text><path d="M2064 1533.53C2064 1505.62 2086.62 1483 2114.53 1483L2377.47 1483C2405.38 1483 2428 1505.62 2428 1533.53L2428 1590.47C2428 1618.38 2405.38 1641 2377.47 1641L2114.53 1641C2086.62 1641 2064 1618.38 2064 1590.47Z" fill="#595959" fill-rule="evenodd"/><text fill="#FFFFFF" font-family="Consolas,Consolas_MSFontService,sans-serif" font-weight="400" font-size="64" transform="matrix(1 0 0 1 2193.12 1585)">why</text><path d="M2506 1538.53C2506 1510.62 2528.62 1488 2556.53 1488L2820.47 1488C2848.38 1488 2871 1510.62 2871 1538.53L2871 1595.47C2871 1623.38 2848.38 1646 2820.47 1646L2556.53 1646C2528.62 1646 2506 1623.38 2506 1595.47Z" fill="#595959" fill-rule="evenodd"/><text fill="#FFFFFF" font-family="Consolas,Consolas_MSFontService,sans-serif" font-weight="400" font-size="64" transform="matrix(1 0 0 1 2635.25 1590)">how</text><path d="M2280 1133.65C2280 1105.68 2302.68 1083 2330.65 1083L2820.35 1083C2848.32 1083 2871 1105.68 2871 1133.65L2871 1189.35C2871 1217.32 2848.32 1240 2820.35 1240L2330.65 1240C2302.68 1240 2280 1217.32 2280 1189.35Z" fill="#7F6000" fill-rule="evenodd"/><text fill="#FFFFFF" font-family="Consolas,Consolas_MSFontService,sans-serif" font-weight="400" font-size="64" transform="matrix(1 0 0 1 2344.4 1184)">generatedFrom</text><path d="M2280 738.97C2280 710.82 2302.82 688 2330.97 688L2820.03 688C2848.18 688 2871 710.82 2871 738.97L2871 795.029C2871 823.18 2848.18 846 2820.03 846L2330.97 846C2302.82 846 2280 823.18 2280 795.029Z" fill="#C00000" fill-rule="evenodd"/><text fill="#FFFFFF" font-family="Consolas,Consolas_MSFontService,sans-serif" font-weight="400" font-size="64" transform="matrix(1 0 0 1 2344.4 789)">generatedArgs</text><path d="M2280 939.648C2280 911.676 2302.68 889 2330.65 889L2820.35 889C2848.32 889 2871 911.676 2871 939.648L2871 995.352C2871 1023.32 2848.32 1046 2820.35 1046L2330.65 1046C2302.68 1046 2280 1023.32 2280 995.352Z" fill="#C00000" fill-rule="evenodd"/><text fill="#FFFFFF" font-family="Consolas,Consolas_MSFontService,sans-serif" font-weight="400" font-size="64" transform="matrix(1 0 0 1 2326.64 990)">generatedUsing</text><path d="M1622 544.209C1622 516.479 1644.48 494 1672.21 494L1789.79 494C1817.52 494 1840 516.479 1840 544.209L1840 600.791C1840 628.521 1817.52 651 1789.79 651L1672.21 651C1644.48 651 1622 628.521 1622 600.791Z" fill="#595959" fill-rule="evenodd"/><text fill="#FFFFFF" font-family="Consolas,Consolas_MSFontService,sans-serif" font-weight="400" font-size="64" transform="matrix(1 0 0 1 1695.75 586)">id</text><path d="M1892 544.209C1892 516.479 1914.48 494 1942.21 494L2162.79 494C2190.52 494 2213 516.479 2213 544.209L2213 600.792C2213 628.521 2190.52 651 2162.79 651L1942.21 651C1914.48 651 1892 628.521 1892 600.792Z" fill="#595959" fill-rule="evenodd"/><text fill="#FFFFFF" font-family="Consolas,Consolas_MSFontService,sans-serif" font-weight="400" font-size="64" transform="matrix(1 0 0 1 1981.47 586)">name</text><path d="M2280 544.209C2280 516.479 2302.48 494 2330.21 494L2820.79 494C2848.52 494 2871 516.479 2871 544.209L2871 600.791C2871 628.521 2848.52 651 2820.79 651L2330.21 651C2302.48 651 2280 628.521 2280 600.791Z" fill="#595959" fill-rule="evenodd"/><text fill="#FFFFFF" font-family="Consolas,Consolas_MSFontService,sans-serif" font-weight="400" font-size="64" transform="matrix(1 0 0 1 2379.8 595)">description</text><path d="M1397.92 499.448 1606.76 733.387 1599.92 739.492 1391.08 505.552ZM1617.38 717.759 1630.81 767.212 1583.19 748.282Z" fill="#009BD2"/><path d="M2.43413-3.88355 140.425 82.6062 135.557 90.3733-2.43413 3.88355ZM146.278 64.6379 172.943 108.397 121.937 103.473Z" fill="#2867A0" transform="matrix(1 0 0 -1 1449.5 1075.9)"/><path d="M596 1004.22C596 973.723 620.723 949 651.219 949L1393.78 949C1424.28 949 1449 973.723 1449 1004.22L1449 1147.78C1449 1178.28 1424.28 1203 1393.78 1203L651.219 1203C620.723 1203 596 1178.28 596 1147.78Z" fill="#75ABDD" fill-rule="evenodd"/><path d="M541 949.219C541 918.723 565.723 894 596.219 894L1338.78 894C1369.28 894 1394 918.723 1394 949.219L1394 1092.78C1394 1123.28 1369.28 1148 1338.78 1148L596.219 1148C565.723 1148 541 1123.28 541 1092.78Z" fill="#478FD1" fill-rule="evenodd"/><path d="M486 894.219C486 863.723 510.723 839 541.219 839L1283.78 839C1314.28 839 1339 863.723 1339 894.219L1339 1037.78C1339 1068.28 1314.28 1093 1283.78 1093L541.219 1093C510.723 1093 486 1068.28 486 1037.78Z" fill="#2E75B6" fill-rule="evenodd"/><text fill="#FFFFFF" font-family="BIZ UDPGothic,BIZ UDPGothic_MSFontService,sans-serif" font-weight="700" font-size="83" transform="matrix(1 0 0 1 706.099 959)">保存先情報</text><text fill="#FFFFFF" font-family="Consolas,Consolas_MSFontService,sans-serif" font-weight="400" font-size="73" transform="matrix(1 0 0 1 651.672 1040)">RWStoringInfo</text><path d="M1620 1340.21C1620 1312.48 1642.48 1290 1670.21 1290L2162.79 1290C2190.52 1290 2213 1312.48 2213 1340.21L2213 1396.79C2213 1424.52 2190.52 1447 2162.79 1447L1670.21 1447C1642.48 1447 1620 1424.52 1620 1396.79Z" fill="#595959" fill-rule="evenodd"/><text fill="#FFFFFF" font-family="Consolas,Consolas_MSFontService,sans-serif" font-weight="400" font-size="64" transform="matrix(1 0 0 1 1650.21 1391)">contentLocation</text><path d="M594 1523C594 1492.63 618.625 1468 649.002 1468L1393 1468C1423.37 1468 1448 1492.63 1448 1523L1448 1666C1448 1696.37 1423.37 1721 1393 1721L649.002 1721C618.625 1721 594 1696.37 594 1666Z" fill="#ED8137" fill-rule="evenodd"/><path d="M539 1468C539 1437.63 563.625 1413 594.002 1413L1338 1413C1368.37 1413 1393 1437.63 1393 1468L1393 1611C1393 1641.37 1368.37 1666 1338 1666L594.002 1666C563.625 1666 539 1641.37 539 1611Z" fill="#E66914" fill-rule="evenodd"/><path d="M484 1413C484 1382.63 508.625 1358 539.002 1358L1283 1358C1313.37 1358 1338 1382.63 1338 1413L1338 1556C1338 1586.37 1313.37 1611 1283 1611L539.002 1611C508.625 1611 484 1586.37 484 1556Z" fill="#C55A11" fill-rule="evenodd"/><text fill="#FFFFFF" font-family="BIZ UDPGothic,BIZ UDPGothic_MSFontService,sans-serif" font-weight="700" font-size="83" transform="matrix(1 0 0 1 746.052 1477)">収集情報</text><text fill="#FFFFFF" font-family="Consolas,Consolas_MSFontService,sans-serif" font-weight="400" font-size="73" transform="matrix(1 0 0 1 590.219 1558)">RWCollectionInfo</text><path d="M3.41062-3.0618 260.095 282.866 253.274 288.99-3.41062 3.0618ZM270.675 267.208 284.24 316.623 236.569 297.826Z" fill="#843C0C" transform="matrix(1 0 0 -1 1338.5 1485.12)"/><path d="M3046.5 1163.5C3082.4 1163.5 3111.5 1192.6 3111.5 1228.5L3111.5 1228.5C3111.5 1264.4 3082.4 1293.5 3046.5 1293.5" stroke="#7F6000" stroke-width="9.16667" stroke-miterlimit="8" fill="none" fill-rule="evenodd"/><path d="M3046.73 1167.96 2912.7 1166.52 2912.8 1157.36 3046.83 1158.79ZM2917.09 1184.91 2871.5 1161.5 2917.58 1139.07Z" fill="#7F6000"/><path d="M594 2094.22C594 2063.72 618.723 2039 649.219 2039L1083.78 2039C1114.28 2039 1139 2063.72 1139 2094.22L1139 2237.78C1139 2268.28 1114.28 2293 1083.78 2293L649.219 2293C618.723 2293 594 2268.28 594 2237.78Z" fill="#A6A6A6" fill-rule="evenodd"/><path d="M539 2039.22C539 2008.72 563.723 1984 594.219 1984L1028.78 1984C1059.28 1984 1084 2008.72 1084 2039.22L1084 2182.78C1084 2213.28 1059.28 2238 1028.78 2238L594.219 2238C563.723 2238 539 2213.28 539 2182.78Z" fill="#7F7F7F" fill-rule="evenodd"/><path d="M484 1984.22C484 1953.72 508.723 1929 539.219 1929L973.781 1929C1004.28 1929 1029 1953.72 1029 1984.22L1029 2127.78C1029 2158.28 1004.28 2183 973.781 2183L539.219 2183C508.723 2183 484 2158.28 484 2127.78Z" fill="#595959" fill-rule="evenodd"/><text fill="#FFFFFF" font-family="BIZ UDPGothic,BIZ UDPGothic_MSFontService,sans-serif" font-weight="700" font-size="83" transform="matrix(1 0 0 1 591.552 2049)">収集場所</text><text fill="#FFFFFF" font-family="Consolas,Consolas_MSFontService,sans-serif" font-weight="400" font-size="73" transform="matrix(1 0 0 1 656.291 2130)">Where</text><path d="M3.92556-2.36578 463.49 760.195 455.639 764.926-3.92556 2.36578ZM476.827 746.807 480.857 797.892 437.571 770.465Z" fill="#404040" transform="matrix(1 0 0 -1 1139.5 2166.39)"/><path d="M1386 2094.22C1386 2063.72 1410.72 2039 1441.22 2039L1875.78 2039C1906.28 2039 1931 2063.72 1931 2094.22L1931 2237.78C1931 2268.28 1906.28 2293 1875.78 2293L1441.22 2293C1410.72 2293 1386 2268.28 1386 2237.78Z" fill="#A6A6A6" fill-rule="evenodd"/><path d="M1331 2039.22C1331 2008.72 1355.72 1984 1386.22 1984L1820.78 1984C1851.28 1984 1876 2008.72 1876 2039.22L1876 2182.78C1876 2213.28 1851.28 2238 1820.78 2238L1386.22 2238C1355.72 2238 1331 2213.28 1331 2182.78Z" fill="#7F7F7F" fill-rule="evenodd"/><path d="M1276 1984.22C1276 1953.72 1300.72 1929 1331.22 1929L1765.78 1929C1796.28 1929 1821 1953.72 1821 1984.22L1821 2127.78C1821 2158.28 1796.28 2183 1765.78 2183L1331.22 2183C1300.72 2183 1276 2158.28 1276 2127.78Z" fill="#595959" fill-rule="evenodd"/><text fill="#FFFFFF" font-family="BIZ UDPGothic,BIZ UDPGothic_MSFontService,sans-serif" font-weight="700" font-size="83" transform="matrix(1 0 0 1 1383.88 2049)">収集主体</text><text fill="#FFFFFF" font-family="Consolas,Consolas_MSFontService,sans-serif" font-weight="400" font-size="73" transform="matrix(1 0 0 1 1488.73 2130)">Who</text><path d="M2084 2100.22C2084 2069.72 2108.72 2045 2139.22 2045L2573.78 2045C2604.28 2045 2629 2069.72 2629 2100.22L2629 2243.78C2629 2274.28 2604.28 2299 2573.78 2299L2139.22 2299C2108.72 2299 2084 2274.28 2084 2243.78Z" fill="#A6A6A6" fill-rule="evenodd"/><path d="M2029 2045.22C2029 2014.72 2053.72 1990 2084.22 1990L2518.78 1990C2549.28 1990 2574 2014.72 2574 2045.22L2574 2188.78C2574 2219.28 2549.28 2244 2518.78 2244L2084.22 2244C2053.72 2244 2029 2219.28 2029 2188.78Z" fill="#7F7F7F" fill-rule="evenodd"/><path d="M1974 1990.22C1974 1959.72 1998.72 1935 2029.22 1935L2463.78 1935C2494.28 1935 2519 1959.72 2519 1990.22L2519 2133.78C2519 2164.28 2494.28 2189 2463.78 2189L2029.22 2189C1998.72 2189 1974 2164.28 1974 2133.78Z" fill="#595959" fill-rule="evenodd"/><text fill="#FFFFFF" font-family="BIZ UDPGothic,BIZ UDPGothic_MSFontService,sans-serif" font-weight="700" font-size="83" transform="matrix(1 0 0 1 2081.4 2055)">収集理由</text><text fill="#FFFFFF" font-family="Consolas,Consolas_MSFontService,sans-serif" font-weight="400" font-size="73" transform="matrix(1 0 0 1 2186.24 2136)">Why</text><path d="M2794 2100.22C2794 2069.72 2818.72 2045 2849.22 2045L3283.78 2045C3314.28 2045 3339 2069.72 3339 2100.22L3339 2243.78C3339 2274.28 3314.28 2299 3283.78 2299L2849.22 2299C2818.72 2299 2794 2274.28 2794 2243.78Z" fill="#A6A6A6" fill-rule="evenodd"/><path d="M2739 2045.22C2739 2014.72 2763.72 1990 2794.22 1990L3228.78 1990C3259.28 1990 3284 2014.72 3284 2045.22L3284 2188.78C3284 2219.28 3259.28 2244 3228.78 2244L2794.22 2244C2763.72 2244 2739 2219.28 2739 2188.78Z" fill="#7F7F7F" fill-rule="evenodd"/><path d="M2684 1990.22C2684 1959.72 2708.72 1935 2739.22 1935L3173.78 1935C3204.28 1935 3229 1959.72 3229 1990.22L3229 2133.78C3229 2164.28 3204.28 2189 3173.78 2189L2739.22 2189C2708.72 2189 2684 2164.28 2684 2133.78Z" fill="#595959" fill-rule="evenodd"/><text fill="#FFFFFF" font-family="BIZ UDPGothic,BIZ UDPGothic_MSFontService,sans-serif" font-weight="700" font-size="83" transform="matrix(1 0 0 1 2791.21 2055)">収集方法</text><text fill="#FFFFFF" font-family="Consolas,Consolas_MSFontService,sans-serif" font-weight="400" font-size="73" transform="matrix(1 0 0 1 2896.06 2136)">How</text><path d="M3559 2103.22C3559 2072.72 3583.72 2048 3614.22 2048L4047.78 2048C4078.28 2048 4103 2072.72 4103 2103.22L4103 2246.78C4103 2277.28 4078.28 2302 4047.78 2302L3614.22 2302C3583.72 2302 3559 2277.28 3559 2246.78Z" fill="#A6A6A6" fill-rule="evenodd"/><path d="M3504 2048.22C3504 2017.72 3528.72 1993 3559.22 1993L3992.78 1993C4023.28 1993 4048 2017.72 4048 2048.22L4048 2191.78C4048 2222.28 4023.28 2247 3992.78 2247L3559.22 2247C3528.72 2247 3504 2222.28 3504 2191.78Z" fill="#7F7F7F" fill-rule="evenodd"/><path d="M3449 1993.22C3449 1962.72 3473.72 1938 3504.22 1938L3937.78 1938C3968.28 1938 3993 1962.72 3993 1993.22L3993 2136.78C3993 2167.28 3968.28 2192 3937.78 2192L3504.22 2192C3473.72 2192 3449 2167.28 3449 2136.78Z" fill="#595959" fill-rule="evenodd"/><text fill="#FFFFFF" font-family="BIZ UDPGothic,BIZ UDPGothic_MSFontService,sans-serif" font-weight="700" font-size="83" transform="matrix(1 0 0 1 3556.03 2058)">収集内容</text><text fill="#FFFFFF" font-family="Consolas,Consolas_MSFontService,sans-serif" font-weight="400" font-size="73" transform="matrix(1 0 0 1 3640.82 2139)">What</text><path d="M3.40571-3.06726 231.188 249.849 224.376 255.983-3.40571 3.06726ZM241.743 234.174 255.387 283.567 207.686 264.846Z" fill="#404040" transform="matrix(1 0 0 -1 1549.5 1930.07)"/><path d="M4.58333-5.61213e-06 4.58364 253.485-4.58302 253.485-4.58333 5.61213e-06ZM22.917 248.902 0.000360892 294.735-22.9164 248.902Z" fill="#404040" transform="matrix(1 0 0 -1 2246.5 1936.23)"/><path d="M2953.82 1939.38 2714.12 1679.91 2720.86 1673.69 2960.55 1933.16ZM2703.77 1695.72 2689.5 1646.5 2737.43 1664.62Z" fill="#404040"/><path d="M3446.01 2068.51 2896.24 1403.22 2903.31 1397.38 3453.08 2062.67ZM2885.03 1418.43 2873.5 1368.5 2920.36 1389.23Z" fill="#404040"/><path d="M3321 484.219C3321 453.723 3345.72 429 3376.22 429L4118.78 429C4149.28 429 4174 453.723 4174 484.219L4174 627.781C4174 658.277 4149.28 683 4118.78 683L3376.22 683C3345.72 683 3321 658.277 3321 627.781Z" fill="#FF2121" fill-rule="evenodd"/><path d="M3266 429.219C3266 398.723 3290.72 374 3321.22 374L4063.78 374C4094.28 374 4119 398.723 4119 429.219L4119 572.781C4119 603.277 4094.28 628 4063.78 628L3321.22 628C3290.72 628 3266 603.277 3266 572.781Z" fill="#E20000" fill-rule="evenodd"/><path d="M3211 374.219C3211 343.723 3235.72 319 3266.22 319L4008.78 319C4039.28 319 4064 343.723 4064 374.219L4064 517.781C4064 548.277 4039.28 573 4008.78 573L3266.22 573C3235.72 573 3211 548.277 3211 517.781Z" fill="#C00000" fill-rule="evenodd"/><text fill="#FFFFFF" font-family="BIZ UDPGothic,BIZ UDPGothic_MSFontService,sans-serif" font-weight="700" font-size="83" transform="matrix(1 0 0 1 3431.4 439)">醸造時引数</text><text fill="#FFFFFF" font-family="Consolas,Consolas_MSFontService,sans-serif" font-weight="400" font-size="73" transform="matrix(1 0 0 1 3296.76 520)">RWBrewingArgument</text><path d="M3.14807-3.33116 313.052 289.54 306.756 296.202-3.14807 3.33116ZM322.313 273.067 339.884 321.204 290.833 306.379Z" fill="#960000" transform="matrix(-1 0 0 1 3211.38 446.5)"/><path d="M3321 907.22C3321 876.723 3345.72 852 3376.22 852L4118.78 852C4149.28 852 4174 876.723 4174 907.22L4174 1050.78C4174 1081.28 4149.28 1106 4118.78 1106L3376.22 1106C3345.72 1106 3321 1081.28 3321 1050.78Z" fill="#FF2121" fill-rule="evenodd"/><path d="M3266 852.22C3266 821.723 3290.72 797 3321.22 797L4063.78 797C4094.28 797 4119 821.723 4119 852.22L4119 995.781C4119 1026.28 4094.28 1051 4063.78 1051L3321.22 1051C3290.72 1051 3266 1026.28 3266 995.781Z" fill="#E20000" fill-rule="evenodd"/><path d="M3211 797.22C3211 766.723 3235.72 742 3266.22 742L4008.78 742C4039.28 742 4064 766.723 4064 797.22L4064 940.781C4064 971.278 4039.28 996.001 4008.78 996.001L3266.22 996.001C3235.72 996.001 3211 971.278 3211 940.781Z" fill="#C00000" fill-rule="evenodd"/><text fill="#FFFFFF" font-family="BIZ UDPGothic,BIZ UDPGothic_MSFontService,sans-serif" font-weight="700" font-size="83" transform="matrix(1 0 0 1 3472.55 861)">醸造酵母</text><text fill="#FFFFFF" font-family="Consolas,Consolas_MSFontService,sans-serif" font-weight="400" font-size="73" transform="matrix(1 0 0 1 3396.93 942)">RWBrewerInfo</text><path d="M1.27973-4.40105 301.458 82.8844 298.899 91.6865-1.27973 4.40105ZM302.176 64.0004 339.788 98.803 289.379 108.011Z" fill="#960000" transform="matrix(-1 0 0 1 3211.29 869.5)"/><path d="M3321 1447.7C3321 1412.52 3349.52 1384 3384.7 1384L4111.3 1384C4146.48 1384 4175 1412.52 4175 1447.7L4175 1613.3C4175 1648.48 4146.48 1677 4111.3 1677L3384.7 1677C3349.52 1677 3321 1648.48 3321 1613.3Z" fill="#5C8F39" fill-rule="evenodd"/><path d="M3266 1392.7C3266 1357.52 3294.52 1329 3329.7 1329L4056.3 1329C4091.48 1329 4120 1357.52 4120 1392.7L4120 1558.3C4120 1593.48 4091.48 1622 4056.3 1622L3329.7 1622C3294.52 1622 3266 1593.48 3266 1558.3Z" fill="#456B2B" fill-rule="evenodd"/><path d="M3211 1337.7C3211 1302.52 3239.52 1274 3274.7 1274L4001.3 1274C4036.48 1274 4065 1302.52 4065 1337.7L4065 1503.3C4065 1538.48 4036.48 1567 4001.3 1567L3274.7 1567C3239.52 1567 3211 1538.48 3211 1503.3Z" fill="#385723" fill-rule="evenodd"/><text fill="#FFFFFF" font-family="BIZ UDPGothic,BIZ UDPGothic_MSFontService,sans-serif" font-weight="700" font-size="83" transform="matrix(1 0 0 1 3318.84 1386)">使用履歴</text><text fill="#FFFFFF" font-family="Consolas,Consolas_MSFontService,sans-serif" font-weight="400" font-size="73" transform="matrix(1 0 0 1 3676.34 1386)">History</text><path d="M2987.58 1392.05 3303.5 1468.54 3301.34 1477.45 2985.42 1400.95ZM3303.36 1449.65 3342.51 1482.71 3292.57 1494.19Z" fill="#7F6000"/><path d="M3342 1462.78C3342 1442.47 3358.47 1426 3378.78 1426L3896.22 1426C3916.53 1426 3933 1442.47 3933 1462.78L3933 1503.22C3933 1523.53 3916.53 1540 3896.22 1540L3378.78 1540C3358.47 1540 3342 1523.53 3342 1503.22Z" fill="#BF9000" fill-rule="evenodd"/><text fill="#FFFFFF" font-family="Consolas,Consolas_MSFontService,sans-serif" font-weight="400" font-size="83" transform="matrix(1 0 0 1 3486.99 1511)">dataset</text></g></svg>