<svg width="3013" height="1675" xmlns="http://www.w3.org/2000/svg" xmlns:xlink="http://www.w3.org/1999/xlink" xml:space="preserve" overflow="hidden"><g transform="translate(-382 -526)"><g><g><g><path d="M2490.59 1165.81 2490.59 1087.19 2519.5 1087.19 2519.5 1111.47 2548.41 1111.47 2548.41 1165.81 2490.59 1165.81ZM2526.44 1090.08 2540.89 1104.53 2526.44 1104.53 2526.44 1090.08ZM2526.44 1080.25 2483.66 1080.25 2483.66 1172.75 2555.34 1172.75 2555.34 1105.69 2526.44 1080.25Z" fill="#2E75B6"/><path d="M2497.53 1123.03 2541.47 1123.03 2541.47 1127.66 2497.53 1127.66Z" fill="#2E75B6"/><path d="M2497.53 1113.78 2512.56 1113.78 2512.56 1118.41 2497.53 1118.41Z" fill="#2E75B6"/><path d="M2497.53 1132.28 2541.47 1132.28 2541.47 1136.91 2497.53 1136.91Z" fill="#2E75B6"/><path d="M2497.53 1141.53 2541.47 1141.53 2541.47 1146.16 2497.53 1146.16Z" fill="#2E75B6"/><path d="M2497.53 1150.78 2541.47 1150.78 2541.47 1155.41 2497.53 1155.41Z" fill="#2E75B6"/></g></g></g><text font-family="BIZ UDPGothic,BIZ UDPGothic_MSFontService,sans-serif" font-weight="700" font-size="64" transform="matrix(1 0 0 1 1155.32 1333)">基盤による</text><text font-family="BIZ UDPGothic,BIZ UDPGothic_MSFontService,sans-serif" font-weight="700" font-size="64" transform="matrix(1 0 0 1 1185.95 1410)">自動通知</text><g><g><g><path d="M203.844 128.219C189.406 128.219 178.062 116.531 178.062 102.438 178.062 88.3438 189.75 76.6562 203.844 76.6562 218.281 76.6562 229.625 88.3438 229.625 102.438 229.625 116.531 217.938 128.219 203.844 128.219ZM261.938 86.2812C260.562 81.4688 258.844 77 256.438 72.875L261.938 56.7188 249.562 44.3438 233.406 49.8438C229.281 47.4375 224.812 45.7188 220 44.3438L212.438 29.2188 195.25 29.2188 187.688 44.3438C182.875 45.7188 178.406 47.4375 174.281 49.8438L158.125 44.3438 145.75 56.7188 151.25 72.875C148.844 77 147.125 81.4688 145.75 86.2812L130.625 93.8438 130.625 111.031 145.75 118.594C147.125 123.406 148.844 127.875 151.25 132L145.75 148.156 157.781 160.188 173.938 154.688C178.062 157.094 182.531 158.812 187.344 160.188L194.906 175.312 212.094 175.312 219.656 160.188C224.469 158.812 228.938 157.094 233.063 154.688L249.219 160.188 261.594 148.156 256.094 132C258.5 127.875 260.562 123.062 261.938 118.594L277.062 111.031 277.062 93.8438 261.938 86.2812Z" fill="#2F5597" transform="matrix(-1 0 0 1 1483 938)"/><path d="M126.156 253.344C111.719 253.344 100.375 241.656 100.375 227.562 100.375 213.125 112.062 201.781 126.156 201.781 140.594 201.781 151.938 213.469 151.938 227.562 151.938 241.656 140.594 253.344 126.156 253.344L126.156 253.344ZM178.75 198 184.25 181.844 171.875 169.469 155.719 174.969C151.594 172.562 146.781 170.844 142.312 169.469L134.75 154.344 117.562 154.344 110 169.469C105.188 170.844 100.719 172.562 96.5938 174.969L80.4375 169.469 68.4062 181.5 73.5625 197.656C71.1562 201.781 69.4375 206.594 68.0625 211.062L52.9375 218.625 52.9375 235.812 68.0625 243.375C69.4375 248.187 71.1562 252.656 73.5625 256.781L68.4062 272.938 80.4375 284.969 96.5938 279.812C100.719 282.219 105.188 283.938 110 285.312L117.562 300.438 134.75 300.438 142.312 285.312C147.125 283.938 151.594 282.219 155.719 279.812L171.875 285.312 183.906 272.938 178.75 257.125C181.156 253 182.875 248.531 184.25 243.719L199.375 236.156 199.375 218.969 184.25 211.406C182.875 206.594 181.156 202.125 178.75 198Z" fill="#2F5597" transform="matrix(-1 0 0 1 1483 938)"/></g></g></g><rect x="1549" y="1077" width="257" height="57.0001" fill="#A6A6A6"/><rect x="1549" y="1882" width="257" height="57.0001" fill="#A6A6A6"/><path d="M1777 1480 2037 1480 2037 1452 2093 1508 2037 1564 2037 1536 1777 1536Z" fill="#A6A6A6" fill-rule="evenodd"/><g><g><g><path d="M1373 1846.13C1373 1876.5 1348.38 1901.13 1318 1901.13 1287.62 1901.13 1263 1876.5 1263 1846.13 1263 1815.75 1287.62 1791.13 1318 1791.13 1348.38 1791.13 1373 1815.75 1373 1846.13Z" fill="#2F5597"/><path d="M1428 2024.88 1428 1969.88C1428 1961.63 1423.87 1953.38 1417 1947.88 1401.87 1935.5 1382.62 1927.25 1363.37 1921.75 1349.62 1917.63 1334.5 1914.88 1318 1914.88 1302.87 1914.88 1287.75 1917.63 1272.62 1921.75 1253.37 1927.25 1234.12 1936.88 1219 1947.88 1212.12 1953.38 1208 1961.63 1208 1969.88L1208 2024.88 1428 2024.88Z" fill="#2F5597"/></g></g></g><text fill="#2E75B6" font-family="MS Mincho,MS Mincho_MSFontService,sans-serif" font-weight="700" font-size="55" transform="matrix(1 0 0 1 1436.56 1548)">➊</text><text fill="#2E75B6" font-family="BIZ UDPGothic,BIZ UDPGothic_MSFontService,sans-serif" font-weight="700" font-size="55" transform="matrix(1 0 0 1 1509.9 1548)">移動需要</text><text fill="#2E75B6" font-family="BIZ UDPGothic,BIZ UDPGothic_MSFontService,sans-serif" font-weight="700" font-size="55" transform="matrix(1 0 0 1 1500.43 1615)">(</text><text fill="#2E75B6" font-family="BIZ UDPGothic,BIZ UDPGothic_MSFontService,sans-serif" font-weight="700" font-size="55" transform="matrix(1 0 0 1 1527.93 1615)">指示</text><text fill="#2E75B6" font-family="BIZ UDPGothic,BIZ UDPGothic_MSFontService,sans-serif" font-weight="700" font-size="55" transform="matrix(1 0 0 1 1637.93 1615)">)</text><g><g><g><path d="M90.8813 19.6563 20.1188 19.6563C17.9348 19.669 16.1748 21.4497 16.1875 23.6336 16.1875 23.6336 16.1875 23.6338 16.1875 23.6338L16.1875 71.4331C16.1747 73.6171 17.9347 75.3978 20.1186 75.4107 20.1186 75.4107 20.1188 75.4107 20.1188 75.4107L63.3625 75.4107 79.0875 91.3438 79.0875 75.4107 90.8813 75.4107C93.0652 75.3979 94.8252 73.6172 94.8125 71.4333 94.8125 71.4333 94.8125 71.4331 94.8125 71.4331L94.8125 23.6338C94.8254 21.4498 93.0653 19.6691 90.8814 19.6563 90.8814 19.6563 90.8813 19.6563 90.8813 19.6563ZM37 53.1875C33.8071 53.1875 31.2188 50.5991 31.2188 47.4063 31.2188 44.2134 33.8071 41.625 37 41.625 40.1929 41.625 42.7813 44.2134 42.7813 47.4063 42.7813 50.5991 40.1929 53.1875 37 53.1875ZM55.5 53.1875C52.3071 53.1875 49.7188 50.5991 49.7188 47.4063 49.7188 44.2134 52.3071 41.625 55.5 41.625 58.6929 41.625 61.2813 44.2134 61.2813 47.4063 61.2813 50.5991 58.6929 53.1875 55.5 53.1875ZM74 53.1875C70.8072 53.1875 68.2188 50.5991 68.2188 47.4063 68.2188 44.2134 70.8072 41.625 74 41.625 77.1929 41.625 79.7813 44.2134 79.7813 47.4063 79.7813 50.5991 77.1929 53.1875 74 53.1875Z" fill="#2E75B6" transform="matrix(1.00901 0 0 1 1528 1389)"/></g></g></g><text font-family="BIZ UDPGothic,BIZ UDPGothic_MSFontService,sans-serif" font-weight="700" font-size="64" transform="matrix(1 0 0 1 1185.66 2152)">手動通知</text><g><g><g><path d="M2178.5 1401.44 2178.5 1614.56 2453.5 1614.56 2453.5 1401.44ZM2415.69 1422.06C2419.48 1422.06 2422.56 1425.14 2422.56 1428.94 2422.56 1432.73 2419.48 1435.81 2415.69 1435.81 2411.89 1435.81 2408.81 1432.73 2408.81 1428.94 2408.81 1425.14 2411.89 1422.06 2415.69 1422.06ZM2391.62 1422.06C2395.42 1422.06 2398.5 1425.14 2398.5 1428.94 2398.5 1432.73 2395.42 1435.81 2391.62 1435.81 2387.83 1435.81 2384.75 1432.73 2384.75 1428.94 2384.75 1425.14 2387.83 1422.06 2391.62 1422.06ZM2367.56 1422.06C2371.36 1422.06 2374.44 1425.14 2374.44 1428.94 2374.44 1432.73 2371.36 1435.81 2367.56 1435.81 2363.77 1435.81 2360.69 1432.73 2360.69 1428.94 2360.69 1425.14 2363.77 1422.06 2367.56 1422.06ZM2432.87 1593.94 2199.12 1593.94 2199.12 1456.44 2432.87 1456.44Z" fill="#2E75B6"/></g></g></g><text font-family="BIZ UDPGothic,BIZ UDPGothic_MSFontService,sans-serif" font-weight="700" font-size="64" transform="matrix(1 0 0 1 2187.5 1722)">移動酵母</text><text font-family="BIZ UDPGothic,BIZ UDPGothic_MSFontService,sans-serif" font-weight="700" font-size="64" transform="matrix(1 0 0 1 2013.91 1799)">(</text><text font-family="BIZ UDPGothic,BIZ UDPGothic_MSFontService,sans-serif" font-weight="700" font-size="64" transform="matrix(1 0 0 1 2046.57 1799)">マイクロプログラム</text><text font-family="BIZ UDPGothic,BIZ UDPGothic_MSFontService,sans-serif" font-weight="700" font-size="64" transform="matrix(1 0 0 1 2585.11 1799)">)</text><path d="M0 27.9999 173 27.9999 173 0 229 56.0001 173 112 173 84 0 84Z" fill="#A6A6A6" fill-rule="evenodd" transform="matrix(6.12323e-17 1 1 -6.12323e-17 2182 1076)"/><path d="M0 28 173 28 173 0 229 56.0002 173 112 173 84.0001 0 84.0001Z" fill="#A6A6A6" fill-rule="evenodd" transform="matrix(-1.83697e-16 -1 -1 1.83697e-16 2451 1299)"/><g><g><g><path d="M2011.34 653.187 2183.56 653.187 2183.56 636C2183.56 628.437 2177.38 622.25 2169.81 622.25L2066.69 622.25 2028.87 597.156C2026.47 595.781 2024.06 594.75 2021.31 594.75L1956.69 594.75C1949.12 594.75 1942.94 600.937 1942.94 608.5L1942.94 776.937C1942.94 777.625 1987.28 669.344 1987.28 669.344 1991.41 659.719 2000.69 653.187 2011.34 653.187Z" fill="#7F6000"/><path d="M2211.06 680.687C2211.06 673.469 2205.91 667.625 2198.69 666.937L2011.34 666.937C2006.19 666.937 2001.72 670.031 1999.66 674.5L1953.25 787.25 2162.94 787.25 2209.69 686.875C2210.72 684.812 2211.06 682.75 2211.06 680.687L2211.06 680.687Z" fill="#7F6000"/></g></g></g><g><g><g><path d="M2086.83 1296.67 2086.83 1217.33 2116 1217.33 2116 1241.83 2145.17 1241.83 2145.17 1296.67 2086.83 1296.67ZM2123 1220.25 2137.58 1234.83 2123 1234.83 2123 1220.25ZM2123 1210.33 2079.83 1210.33 2079.83 1303.67 2152.17 1303.67 2152.17 1236 2123 1210.33Z" fill="#7F6000"/><path d="M2093.83 1253.5 2138.17 1253.5 2138.17 1258.17 2093.83 1258.17Z" fill="#7F6000"/><path d="M2093.83 1244.17 2109 1244.17 2109 1248.83 2093.83 1248.83Z" fill="#7F6000"/><path d="M2093.83 1262.83 2138.17 1262.83 2138.17 1267.5 2093.83 1267.5Z" fill="#7F6000"/><path d="M2093.83 1272.17 2138.17 1272.17 2138.17 1276.83 2093.83 1276.83Z" fill="#7F6000"/><path d="M2093.83 1281.5 2138.17 1281.5 2138.17 1286.17 2093.83 1286.17Z" fill="#7F6000"/></g></g></g><text font-family="BIZ UDPGothic,BIZ UDPGothic_MSFontService,sans-serif" font-weight="700" font-size="64" transform="matrix(1 0 0 1 1980.73 920)">実世界</text><text font-family="BIZ UDPGothic,BIZ UDPGothic_MSFontService,sans-serif" font-weight="700" font-size="64" transform="matrix(1 0 0 1 1875.89 997)">データストア</text><text font-family="BIZ UDPGothic,BIZ UDPGothic_MSFontService,sans-serif" font-weight="700" font-size="64" transform="matrix(1 0 0 1 2228.23 997)">A</text><text fill="#7F6000" font-family="MS Mincho,MS Mincho_MSFontService,sans-serif" font-weight="700" font-size="55" transform="matrix(1 0 0 1 1922.87 1119)">➋</text><text fill="#7F6000" font-family="BIZ UDPGothic,BIZ UDPGothic_MSFontService,sans-serif" font-weight="700" font-size="55" transform="matrix(1 0 0 1 1996.21 1119)">移動前</text><text fill="#7F6000" font-family="BIZ UDPGothic,BIZ UDPGothic_MSFontService,sans-serif" font-weight="700" font-size="55" transform="matrix(1 0 0 1 2004.8 1186)">データ</text><text fill="#2E75B6" font-family="MS Mincho,MS Mincho_MSFontService,sans-serif" font-weight="700" font-size="55" transform="matrix(1 0 0 1 2483.94 1238)">➌</text><text fill="#2E75B6" font-family="BIZ UDPGothic,BIZ UDPGothic_MSFontService,sans-serif" font-weight="700" font-size="55" transform="matrix(1 0 0 1 2557.27 1238)">移動後</text><text fill="#2E75B6" font-family="BIZ UDPGothic,BIZ UDPGothic_MSFontService,sans-serif" font-weight="700" font-size="55" transform="matrix(1 0 0 1 2483.94 1305)">データ</text><path d="M2565 1487 2909 1487 2909 1459 2965 1515 2909 1571 2909 1543 2565 1543Z" fill="#A6A6A6" fill-rule="evenodd"/><text fill="#2E75B6" font-family="MS Mincho,MS Mincho_MSFontService,sans-serif" font-weight="700" font-size="55" transform="matrix(1 0 0 1 2592.45 1612)">➍</text><text fill="#2E75B6" font-family="BIZ UDPGothic,BIZ UDPGothic_MSFontService,sans-serif" font-weight="700" font-size="55" transform="matrix(1 0 0 1 2665.78 1612)">移動供給</text><text fill="#2E75B6" font-family="BIZ UDPGothic,BIZ UDPGothic_MSFontService,sans-serif" font-weight="700" font-size="55" transform="matrix(1 0 0 1 2601.32 1679)">(</text><text fill="#2E75B6" font-family="BIZ UDPGothic,BIZ UDPGothic_MSFontService,sans-serif" font-weight="700" font-size="55" transform="matrix(1 0 0 1 2628.82 1679)">結果通知</text><text fill="#2E75B6" font-family="BIZ UDPGothic,BIZ UDPGothic_MSFontService,sans-serif" font-weight="700" font-size="55" transform="matrix(1 0 0 1 2848.82 1679)">)</text><g><g><g><path d="M90.8813 19.6563 20.1188 19.6563C17.9348 19.669 16.1748 21.4497 16.1875 23.6336 16.1875 23.6336 16.1875 23.6338 16.1875 23.6338L16.1875 71.4331C16.1747 73.6171 17.9347 75.3978 20.1186 75.4107 20.1186 75.4107 20.1188 75.4107 20.1188 75.4107L63.3625 75.4107 79.0875 91.3438 79.0875 75.4107 90.8813 75.4107C93.0652 75.3979 94.8252 73.6172 94.8125 71.4333 94.8125 71.4333 94.8125 71.4331 94.8125 71.4331L94.8125 23.6338C94.8254 21.4498 93.0653 19.6691 90.8814 19.6563 90.8814 19.6563 90.8813 19.6563 90.8813 19.6563ZM37 53.1875C33.8071 53.1875 31.2188 50.5991 31.2188 47.4063 31.2188 44.2134 33.8071 41.625 37 41.625 40.1929 41.625 42.7813 44.2134 42.7813 47.4063 42.7813 50.5991 40.1929 53.1875 37 53.1875ZM55.5 53.1875C52.3071 53.1875 49.7188 50.5991 49.7188 47.4063 49.7188 44.2134 52.3071 41.625 55.5 41.625 58.6929 41.625 61.2813 44.2134 61.2813 47.4063 61.2813 50.5991 58.6929 53.1875 55.5 53.1875ZM74 53.1875C70.8072 53.1875 68.2188 50.5991 68.2188 47.4063 68.2188 44.2134 70.8072 41.625 74 41.625 77.1929 41.625 79.7813 44.2134 79.7813 47.4063 79.7813 50.5991 77.1929 53.1875 74 53.1875Z" fill="#2E75B6" transform="matrix(1.00901 0 0 1 2683 1373)"/></g></g></g><g><g><g><path d="M235.125 55.6875C235.125 69.3565 196.342 80.4375 148.5 80.4375 100.658 80.4375 61.875 69.3565 61.875 55.6875 61.875 42.0185 100.658 30.9375 148.5 30.9375 196.342 30.9375 235.125 42.0185 235.125 55.6875Z" fill="#ED7D31" transform="matrix(1 0 0 1.00337 3023 1366)"/><path d="M210.375 117.562C206.663 117.562 204.188 115.088 204.188 111.375 204.188 107.662 206.663 105.188 210.375 105.188 214.087 105.188 216.562 107.662 216.562 111.375 216.562 115.088 214.087 117.562 210.375 117.562ZM148.5 92.8125C100.856 92.8125 61.875 81.675 61.875 68.0625L61.875 117.562C61.875 131.175 100.856 142.312 148.5 142.312 196.144 142.312 235.125 131.175 235.125 117.562L235.125 68.0625C235.125 81.675 196.144 92.8125 148.5 92.8125Z" fill="#ED7D31" transform="matrix(1 0 0 1.00337 3023 1366)"/><path d="M210.375 179.438C206.663 179.438 204.188 176.963 204.188 173.25 204.188 169.537 206.663 167.062 210.375 167.062 214.087 167.062 216.562 169.537 216.562 173.25 216.562 176.963 214.087 179.438 210.375 179.438ZM148.5 154.688C100.856 154.688 61.875 143.55 61.875 129.938L61.875 179.438C61.875 193.05 100.856 204.188 148.5 204.188 196.144 204.188 235.125 193.05 235.125 179.438L235.125 129.938C235.125 143.55 196.144 154.688 148.5 154.688Z" fill="#ED7D31" transform="matrix(1 0 0 1.00337 3023 1366)"/><path d="M210.375 241.312C206.663 241.312 204.188 238.837 204.188 235.125 204.188 231.413 206.663 228.938 210.375 228.938 214.087 228.938 216.562 231.413 216.562 235.125 216.562 238.837 214.087 241.312 210.375 241.312ZM148.5 216.562C100.856 216.562 61.875 205.425 61.875 191.812L61.875 241.312C61.875 254.925 100.856 266.062 148.5 266.062 196.144 266.062 235.125 254.925 235.125 241.312L235.125 191.812C235.125 205.425 196.144 216.562 148.5 216.562Z" fill="#ED7D31" transform="matrix(1 0 0 1.00337 3023 1366)"/></g></g></g><text font-family="BIZ UDPGothic,BIZ UDPGothic_MSFontService,sans-serif" font-weight="700" font-size="64" transform="matrix(1 0 0 1 3012.83 1722)">JSON</text><text font-family="BIZ UDPGothic,BIZ UDPGothic_MSFontService,sans-serif" font-weight="700" font-size="64" transform="matrix(1 0 0 1 3206.48 1722)">-</text><text font-family="BIZ UDPGothic,BIZ UDPGothic_MSFontService,sans-serif" font-weight="700" font-size="64" transform="matrix(1 0 0 1 3237.41 1722)">LD</text><text font-family="BIZ UDPGothic,BIZ UDPGothic_MSFontService,sans-serif" font-weight="700" font-size="64" transform="matrix(1 0 0 1 2987.92 1799)">データベース</text><rect x="1964.5" y="1944.5" width="1177" height="241" stroke="#2E75B6" stroke-width="4.58333" stroke-miterlimit="8" fill="none"/><text fill="#2E75B6" font-family="Arial,Arial_MSFontService,sans-serif" font-weight="400" font-size="50" transform="matrix(1 0 0 1 2010.35 2036)">•</text><text fill="#2E75B6" font-family="BIZ UDPGothic,BIZ UDPGothic_MSFontService,sans-serif" font-weight="400" font-size="50" transform="matrix(1 0 0 1 2049.31 2036)">対象データセット</text><text fill="#2E75B6" font-family="Consolas,Consolas_MSFontService,sans-serif" font-weight="400" font-size="50" transform="matrix(1 0 0 1 2517.04 2036)">RWDataset</text><text fill="#2E75B6" font-family="Arial,Arial_MSFontService,sans-serif" font-weight="400" font-size="50" transform="matrix(1 0 0 1 2010.35 2096)">•</text><text fill="#2E75B6" font-family="BIZ UDPGothic,BIZ UDPGothic_MSFontService,sans-serif" font-weight="400" font-size="50" transform="matrix(1 0 0 1 2049.31 2096)">時間範囲</text><text fill="#2E75B6" font-family="Consolas,Consolas_MSFontService,sans-serif" font-weight="400" font-size="50" transform="matrix(1 0 0 1 2517.04 2096)">timePeriodStart</text><text fill="#2E75B6" font-family="Consolas,Consolas_MSFontService,sans-serif" font-weight="400" font-size="50" transform="matrix(1 0 0 1 2929.54 2096)">/End</text><text fill="#2E75B6" font-family="Arial,Arial_MSFontService,sans-serif" font-weight="400" font-size="50" transform="matrix(1 0 0 1 2010.35 2157)">•</text><text fill="#2E75B6" font-family="BIZ UDPGothic,BIZ UDPGothic_MSFontService,sans-serif" font-weight="400" font-size="50" transform="matrix(1 0 0 1 2049.31 2157)">データ移動先</text><text fill="#2E75B6" font-family="Consolas,Consolas_MSFontService,sans-serif" font-weight="400" font-size="50" transform="matrix(1 0 0 1 2517.04 2157)">RWDataStoringInfo</text><path d="M1583.5 1641.5 1964.56 2065.77" stroke="#2E75B6" stroke-width="4.58333" stroke-miterlimit="8" fill="none" fill-rule="evenodd"/><rect x="1749" y="1077" width="57.0001" height="862" fill="#A6A6A6"/><text font-family="BIZ UDPGothic,BIZ UDPGothic_MSFontService,sans-serif" font-weight="700" font-size="64" transform="matrix(1 0 0 1 498.096 1333)">傾向に基づき</text><text font-family="BIZ UDPGothic,BIZ UDPGothic_MSFontService,sans-serif" font-weight="700" font-size="64" transform="matrix(1 0 0 1 444.517 1410)">自動スケジュール</text><text font-family="BIZ UDPGothic,BIZ UDPGothic_MSFontService,sans-serif" font-weight="700" font-size="64" transform="matrix(1 0 0 1 443.938 1896)">手動スケジュール</text><path d="M937 932C987.258 932 1028 972.452 1028 1022.35L1028 1022.35C1028 1072.25 1068.74 1112.7 1119 1112.7 1068.74 1112.7 1028 1153.15 1028 1203.05L1028 1897.65C1028 1947.55 987.258 1988 937 1988" stroke="#A6A6A6" stroke-width="13.75" stroke-miterlimit="8" fill="none" fill-rule="evenodd"/><g><g><g><path d="M150 70.3124C150 91.0231 133.211 107.812 112.5 107.812 91.7892 107.812 74.9999 91.0231 74.9999 70.3124 74.9999 49.6018 91.7892 32.8125 112.5 32.8125 133.211 32.8125 150 49.6018 150 70.3124Z" fill="#548235" transform="matrix(1 0 0 1 528 1600)"/><path d="M187.5 192.187 187.5 154.687C187.5 149.062 184.687 143.437 180 139.687 169.687 131.25 156.562 125.625 143.437 121.875 134.062 119.062 123.75 117.187 112.5 117.187 102.187 117.187 91.8749 119.062 81.5624 121.875 68.4374 125.625 55.3125 132.187 45 139.687 40.3125 143.437 37.5 149.062 37.5 154.687L37.5 192.187 187.5 192.187Z" fill="#548235" transform="matrix(1 0 0 1 528 1600)"/></g></g></g><path d="M690.5 1608.5C690.5 1572.6 719.602 1543.5 755.5 1543.5 791.399 1543.5 820.5 1572.6 820.5 1608.5 820.5 1644.4 791.399 1673.5 755.5 1673.5 719.602 1673.5 690.5 1644.4 690.5 1608.5Z" stroke="#507E32" stroke-width="11.4583" stroke-miterlimit="8" fill="none" fill-rule="evenodd"/><path d="M750 1561 760.096 1561 760.096 1603.66 802 1603.66 802 1613 750 1613Z" fill="#548235" fill-rule="evenodd"/><g><g><g><path d="M138.984 87.4219C129.141 87.4219 121.406 79.4532 121.406 69.8438 121.406 60.2344 129.375 52.2657 138.984 52.2657 148.828 52.2657 156.563 60.2344 156.563 69.8438 156.563 79.4532 148.594 87.4219 138.984 87.4219ZM178.594 58.8282C177.656 55.5469 176.485 52.5 174.844 49.6875L178.594 38.6719 170.156 30.2344 159.141 33.9844C156.328 32.3438 153.281 31.1719 150 30.2344L144.844 19.9219 133.125 19.9219 127.969 30.2344C124.688 31.1719 121.641 32.3438 118.828 33.9844L107.813 30.2344 99.3751 38.6719 103.125 49.6875C101.484 52.5 100.313 55.5469 99.3751 58.8282L89.0626 63.9844 89.0626 75.7032 99.3751 80.8594C100.313 84.1407 101.484 87.1876 103.125 90.0001L99.3751 101.016 107.578 109.219 118.594 105.469C121.406 107.109 124.453 108.281 127.734 109.219L132.891 119.531 144.609 119.531 149.766 109.219C153.047 108.281 156.094 107.109 158.906 105.469L169.922 109.219 178.359 101.016 174.609 90.0001C176.25 87.1876 177.656 83.9063 178.594 80.8594L188.906 75.7032 188.906 63.9844 178.594 58.8282Z" fill="#548235" transform="matrix(-1 0 0 1 750 1031)"/><path d="M86.0157 172.734C76.1719 172.734 68.4376 164.766 68.4376 155.156 68.4376 145.313 76.4063 137.578 86.0157 137.578 95.8594 137.578 103.594 145.547 103.594 155.156 103.594 164.766 95.8594 172.734 86.0157 172.734L86.0157 172.734ZM121.875 135 125.625 123.984 117.188 115.547 106.172 119.297C103.359 117.656 100.078 116.484 97.0313 115.547L91.8751 105.234 80.1563 105.234 75.0001 115.547C71.7188 116.484 68.6719 117.656 65.8594 119.297L54.8438 115.547 46.6407 123.75 50.1563 134.766C48.5157 137.578 47.3438 140.859 46.4063 143.906L36.0938 149.063 36.0938 160.781 46.4063 165.938C47.3438 169.219 48.5157 172.266 50.1563 175.078L46.6407 186.094 54.8438 194.297 65.8594 190.781C68.6719 192.422 71.7188 193.594 75.0001 194.531L80.1563 204.844 91.8751 204.844 97.0313 194.531C100.313 193.594 103.359 192.422 106.172 190.781L117.188 194.531 125.391 186.094 121.875 175.313C123.516 172.5 124.688 169.453 125.625 166.172L135.938 161.016 135.938 149.297 125.625 144.141C124.688 140.859 123.516 137.813 121.875 135Z" fill="#548235" transform="matrix(-1 0 0 1 750 1031)"/></g></g></g><path d="M682.5 1036.5C682.5 1000.6 711.601 971.5 747.5 971.5 783.399 971.5 812.5 1000.6 812.5 1036.5 812.5 1072.4 783.399 1101.5 747.5 1101.5 711.601 1101.5 682.5 1072.4 682.5 1036.5Z" stroke="#507E32" stroke-width="11.4583" stroke-miterlimit="8" fill="none" fill-rule="evenodd"/><path d="M742 989 752.096 989 752.096 1031.66 794 1031.66 794 1041 742 1041Z" fill="#548235" fill-rule="evenodd"/><g><g><g><path d="M2309.84 1482.21 2290.96 1482.21 2322.67 1524.5 2290.96 1566.79 2309.84 1566.79 2341.55 1524.5 2309.84 1482.21Z" fill="#2E75B6"/><path d="M2254.71 1566.79 2273.59 1566.79 2305.3 1524.5 2273.59 1482.21 2254.71 1482.21 2286.42 1524.5 2254.71 1566.79Z" fill="#2E75B6"/><path d="M2346.09 1482.21 2327.21 1482.21 2358.92 1524.5 2327.21 1566.79 2346.09 1566.79 2377.8 1524.5 2346.09 1482.21Z" fill="#2E75B6"/></g></g></g><g><g><g><path d="M2495.34 653.187 2667.56 653.187 2667.56 636C2667.56 628.437 2661.38 622.25 2653.81 622.25L2550.69 622.25 2512.88 597.156C2510.47 595.781 2508.06 594.75 2505.31 594.75L2440.69 594.75C2433.12 594.75 2426.94 600.937 2426.94 608.5L2426.94 776.937C2426.94 777.625 2471.28 669.344 2471.28 669.344 2475.41 659.719 2484.69 653.187 2495.34 653.187Z" fill="#BF9000"/><path d="M2695.06 680.687C2695.06 673.469 2689.91 667.625 2682.69 666.937L2495.34 666.937C2490.19 666.937 2485.72 670.031 2483.66 674.5L2437.25 787.25 2646.94 787.25 2693.69 686.875C2694.72 684.812 2695.06 682.75 2695.06 680.687L2695.06 680.687Z" fill="#BF9000"/></g></g></g><text font-family="BIZ UDPGothic,BIZ UDPGothic_MSFontService,sans-serif" font-weight="700" font-size="64" transform="matrix(1 0 0 1 2464.43 920)">実世界</text><text font-family="BIZ UDPGothic,BIZ UDPGothic_MSFontService,sans-serif" font-weight="700" font-size="64" transform="matrix(1 0 0 1 2359.88 997)">データストア</text><text font-family="BIZ UDPGothic,BIZ UDPGothic_MSFontService,sans-serif" font-weight="700" font-size="64" transform="matrix(1 0 0 1 2712.22 997)">B</text><rect x="1998" y="1909" width="483" height="70.0001" fill="#FFFFFF"/><text fill="#2E75B6" font-family="Consolas,Consolas_MSFontService,sans-serif" font-weight="700" font-size="50" transform="matrix(1 0 0 1 2019.36 1961)">RWDataMoveDemand</text></g></svg>