<svg width="2503" height="1339" xmlns="http://www.w3.org/2000/svg" xmlns:xlink="http://www.w3.org/1999/xlink" xml:space="preserve" overflow="hidden"><g transform="translate(-892 -526)"><path d="M1665 1427 2010 1427 2010 1399 2066 1455 2010 1511 2010 1483 1665 1483Z" fill="#A6A6A6" fill-rule="evenodd"/><g><g><g><path d="M1333.9 1562.41 1294.65 1523.19 1333.9 1483.97 1343.6 1493.66 1314.1 1523.19 1343.6 1552.72 1333.9 1562.41Z"/><path d="M1426.1 1562.41 1416.4 1552.72 1445.9 1523.19 1416.4 1493.66 1426.1 1483.97 1465.35 1523.19 1426.1 1562.41Z"/><path d="M1356.97 1562.11 1389.86 1482.75 1402.56 1488.01 1369.68 1567.37Z"/><path d="M1242.5 1399.44 1242.5 1612.56 1517.5 1612.56 1517.5 1399.44ZM1479.69 1420.06C1483.48 1420.06 1486.56 1423.14 1486.56 1426.94 1486.56 1430.73 1483.48 1433.81 1479.69 1433.81 1475.89 1433.81 1472.81 1430.73 1472.81 1426.94 1472.81 1423.14 1475.89 1420.06 1479.69 1420.06ZM1455.63 1420.06C1459.42 1420.06 1462.5 1423.14 1462.5 1426.94 1462.5 1430.73 1459.42 1433.81 1455.63 1433.81 1451.83 1433.81 1448.75 1430.73 1448.75 1426.94 1448.75 1423.14 1451.83 1420.06 1455.63 1420.06ZM1431.56 1420.06C1435.36 1420.06 1438.44 1423.14 1438.44 1426.94 1438.44 1430.73 1435.36 1433.81 1431.56 1433.81 1427.77 1433.81 1424.69 1430.73 1424.69 1426.94 1424.69 1423.14 1427.77 1420.06 1431.56 1420.06ZM1496.88 1591.94 1263.13 1591.94 1263.13 1454.44 1496.88 1454.44Z"/></g></g></g><text fill="#2E75B6" font-family="MS Mincho,MS Mincho_MSFontService,sans-serif" font-weight="700" font-size="55" transform="matrix(1 0 0 1 1706.32 1331)">➊</text><text fill="#2E75B6" font-family="BIZ UDPGothic,BIZ UDPGothic_MSFontService,sans-serif" font-weight="700" font-size="55" transform="matrix(1 0 0 1 1779.65 1331)">読込需要</text><text fill="#2E75B6" font-family="BIZ UDPGothic,BIZ UDPGothic_MSFontService,sans-serif" font-weight="700" font-size="55" transform="matrix(1 0 0 1 1770.19 1398)">(</text><text fill="#2E75B6" font-family="BIZ UDPGothic,BIZ UDPGothic_MSFontService,sans-serif" font-weight="700" font-size="55" transform="matrix(1 0 0 1 1797.69 1398)">指示</text><text fill="#2E75B6" font-family="BIZ UDPGothic,BIZ UDPGothic_MSFontService,sans-serif" font-weight="700" font-size="55" transform="matrix(1 0 0 1 1907.69 1398)">)</text><g><g><g><path d="M1892.7 1196.83 1821.3 1196.83C1819.1 1196.85 1817.32 1198.64 1817.33 1200.85 1817.33 1200.85 1817.33 1200.85 1817.33 1200.85L1817.33 1249.08C1817.32 1251.28 1819.1 1253.08 1821.3 1253.09 1821.3 1253.09 1821.3 1253.09 1821.3 1253.09L1864.93 1253.09 1880.8 1269.17 1880.8 1253.09 1892.7 1253.09C1894.9 1253.08 1896.68 1251.28 1896.67 1249.08 1896.67 1249.08 1896.67 1249.08 1896.67 1249.08L1896.67 1200.85C1896.68 1198.64 1894.9 1196.85 1892.7 1196.83 1892.7 1196.83 1892.7 1196.83 1892.7 1196.83ZM1838.33 1230.67C1835.11 1230.67 1832.5 1228.05 1832.5 1224.83 1832.5 1221.61 1835.11 1219 1838.33 1219 1841.55 1219 1844.17 1221.61 1844.17 1224.83 1844.17 1228.05 1841.55 1230.67 1838.33 1230.67ZM1857 1230.67C1853.78 1230.67 1851.17 1228.05 1851.17 1224.83 1851.17 1221.61 1853.78 1219 1857 1219 1860.22 1219 1862.83 1221.61 1862.83 1224.83 1862.83 1228.05 1860.22 1230.67 1857 1230.67ZM1875.67 1230.67C1872.44 1230.67 1869.83 1228.05 1869.83 1224.83 1869.83 1221.61 1872.44 1219 1875.67 1219 1878.89 1219 1881.5 1221.61 1881.5 1224.83 1881.5 1228.05 1878.89 1230.67 1875.67 1230.67Z" fill="#2E75B6"/></g></g></g><text font-family="BIZ UDPGothic,BIZ UDPGothic_MSFontService,sans-serif" font-weight="700" font-size="64" transform="matrix(1 0 0 1 1162.53 1722)">分析プログラム</text><g><g><g><path d="M2178.5 1401.44 2178.5 1614.56 2453.5 1614.56 2453.5 1401.44ZM2415.69 1422.06C2419.48 1422.06 2422.56 1425.14 2422.56 1428.94 2422.56 1432.73 2419.48 1435.81 2415.69 1435.81 2411.89 1435.81 2408.81 1432.73 2408.81 1428.94 2408.81 1425.14 2411.89 1422.06 2415.69 1422.06ZM2391.62 1422.06C2395.42 1422.06 2398.5 1425.14 2398.5 1428.94 2398.5 1432.73 2395.42 1435.81 2391.62 1435.81 2387.83 1435.81 2384.75 1432.73 2384.75 1428.94 2384.75 1425.14 2387.83 1422.06 2391.62 1422.06ZM2367.56 1422.06C2371.36 1422.06 2374.44 1425.14 2374.44 1428.94 2374.44 1432.73 2371.36 1435.81 2367.56 1435.81 2363.77 1435.81 2360.69 1432.73 2360.69 1428.94 2360.69 1425.14 2363.77 1422.06 2367.56 1422.06ZM2432.87 1593.94 2199.12 1593.94 2199.12 1456.44 2432.87 1456.44Z" fill="#2E75B6"/></g></g></g><text font-family="BIZ UDPGothic,BIZ UDPGothic_MSFontService,sans-serif" font-weight="700" font-size="64" transform="matrix(1 0 0 1 2187.5 1722)">読込酵母</text><path d="M0 28 173 28 173 0 229 56.0002 173 112 173 84.0001 0 84.0001Z" fill="#A6A6A6" fill-rule="evenodd" transform="matrix(6.12323e-17 1 1 -6.12323e-17 2257 1076)"/><g><g><g><path d="M2250.34 653.187 2422.56 653.187 2422.56 636C2422.56 628.437 2416.37 622.25 2408.81 622.25L2305.69 622.25 2267.87 597.156C2265.47 595.781 2263.06 594.75 2260.31 594.75L2195.69 594.75C2188.12 594.75 2181.94 600.937 2181.94 608.5L2181.94 776.937C2181.94 777.625 2226.28 669.344 2226.28 669.344 2230.41 659.719 2239.69 653.187 2250.34 653.187Z" fill="#7F6000"/><path d="M2450.06 680.687C2450.06 673.469 2444.91 667.625 2437.69 666.937L2250.34 666.937C2245.19 666.937 2240.72 670.031 2238.66 674.5L2192.25 787.25 2401.94 787.25 2448.69 686.875C2449.72 684.812 2450.06 682.75 2450.06 680.687L2450.06 680.687Z" fill="#7F6000"/></g></g></g><text font-family="BIZ UDPGothic,BIZ UDPGothic_MSFontService,sans-serif" font-weight="700" font-size="64" transform="matrix(1 0 0 1 2217.35 920)">実世界</text><text font-family="BIZ UDPGothic,BIZ UDPGothic_MSFontService,sans-serif" font-weight="700" font-size="64" transform="matrix(1 0 0 1 2137.44 997)">データストア</text><path d="M2565 1487 2909 1487 2909 1459 2965 1515 2909 1571 2909 1543 2565 1543Z" fill="#A6A6A6" fill-rule="evenodd"/><text fill="#2E75B6" font-family="MS Mincho,MS Mincho_MSFontService,sans-serif" font-weight="700" font-size="55" transform="matrix(1 0 0 1 2592.45 1612)">➍</text><text fill="#2E75B6" font-family="BIZ UDPGothic,BIZ UDPGothic_MSFontService,sans-serif" font-weight="700" font-size="55" transform="matrix(1 0 0 1 2665.78 1612)">読込供給</text><text fill="#2E75B6" font-family="BIZ UDPGothic,BIZ UDPGothic_MSFontService,sans-serif" font-weight="700" font-size="55" transform="matrix(1 0 0 1 2601.32 1679)">(</text><text fill="#2E75B6" font-family="BIZ UDPGothic,BIZ UDPGothic_MSFontService,sans-serif" font-weight="700" font-size="55" transform="matrix(1 0 0 1 2628.82 1679)">結果通知</text><text fill="#2E75B6" font-family="BIZ UDPGothic,BIZ UDPGothic_MSFontService,sans-serif" font-weight="700" font-size="55" transform="matrix(1 0 0 1 2848.82 1679)">)</text><g><g><g><path d="M90.8813 19.6563 20.1188 19.6563C17.9348 19.669 16.1748 21.4497 16.1875 23.6336 16.1875 23.6336 16.1875 23.6338 16.1875 23.6338L16.1875 71.4331C16.1747 73.6171 17.9347 75.3978 20.1186 75.4107 20.1186 75.4107 20.1188 75.4107 20.1188 75.4107L63.3625 75.4107 79.0875 91.3438 79.0875 75.4107 90.8813 75.4107C93.0652 75.3979 94.8252 73.6172 94.8125 71.4333 94.8125 71.4333 94.8125 71.4331 94.8125 71.4331L94.8125 23.6338C94.8254 21.4498 93.0653 19.6691 90.8814 19.6563 90.8814 19.6563 90.8813 19.6563 90.8813 19.6563ZM37 53.1875C33.8071 53.1875 31.2188 50.5991 31.2188 47.4063 31.2188 44.2134 33.8071 41.625 37 41.625 40.1929 41.625 42.7813 44.2134 42.7813 47.4063 42.7813 50.5991 40.1929 53.1875 37 53.1875ZM55.5 53.1875C52.3071 53.1875 49.7188 50.5991 49.7188 47.4063 49.7188 44.2134 52.3071 41.625 55.5 41.625 58.6929 41.625 61.2813 44.2134 61.2813 47.4063 61.2813 50.5991 58.6929 53.1875 55.5 53.1875ZM74 53.1875C70.8072 53.1875 68.2188 50.5991 68.2188 47.4063 68.2188 44.2134 70.8072 41.625 74 41.625 77.1929 41.625 79.7813 44.2134 79.7813 47.4063 79.7813 50.5991 77.1929 53.1875 74 53.1875Z" fill="#2E75B6" transform="matrix(1.00901 0 0 1 2683 1373)"/></g></g></g><g><g><g><path d="M235.125 55.6875C235.125 69.3565 196.342 80.4375 148.5 80.4375 100.658 80.4375 61.875 69.3565 61.875 55.6875 61.875 42.0185 100.658 30.9375 148.5 30.9375 196.342 30.9375 235.125 42.0185 235.125 55.6875Z" fill="#ED7D31" transform="matrix(1 0 0 1.00337 3023 1366)"/><path d="M210.375 117.562C206.663 117.562 204.188 115.088 204.188 111.375 204.188 107.662 206.663 105.188 210.375 105.188 214.087 105.188 216.562 107.662 216.562 111.375 216.562 115.088 214.087 117.562 210.375 117.562ZM148.5 92.8125C100.856 92.8125 61.875 81.675 61.875 68.0625L61.875 117.562C61.875 131.175 100.856 142.312 148.5 142.312 196.144 142.312 235.125 131.175 235.125 117.562L235.125 68.0625C235.125 81.675 196.144 92.8125 148.5 92.8125Z" fill="#ED7D31" transform="matrix(1 0 0 1.00337 3023 1366)"/><path d="M210.375 179.438C206.663 179.438 204.188 176.963 204.188 173.25 204.188 169.537 206.663 167.062 210.375 167.062 214.087 167.062 216.562 169.537 216.562 173.25 216.562 176.963 214.087 179.438 210.375 179.438ZM148.5 154.688C100.856 154.688 61.875 143.55 61.875 129.938L61.875 179.438C61.875 193.05 100.856 204.188 148.5 204.188 196.144 204.188 235.125 193.05 235.125 179.438L235.125 129.938C235.125 143.55 196.144 154.688 148.5 154.688Z" fill="#ED7D31" transform="matrix(1 0 0 1.00337 3023 1366)"/><path d="M210.375 241.312C206.663 241.312 204.188 238.837 204.188 235.125 204.188 231.413 206.663 228.938 210.375 228.938 214.087 228.938 216.562 231.413 216.562 235.125 216.562 238.837 214.087 241.312 210.375 241.312ZM148.5 216.562C100.856 216.562 61.875 205.425 61.875 191.812L61.875 241.312C61.875 254.925 100.856 266.062 148.5 266.062 196.144 266.062 235.125 254.925 235.125 241.312L235.125 191.812C235.125 205.425 196.144 216.562 148.5 216.562Z" fill="#ED7D31" transform="matrix(1 0 0 1.00337 3023 1366)"/></g></g></g><text font-family="BIZ UDPGothic,BIZ UDPGothic_MSFontService,sans-serif" font-weight="700" font-size="64" transform="matrix(1 0 0 1 3012.83 1722)">JSON</text><text font-family="BIZ UDPGothic,BIZ UDPGothic_MSFontService,sans-serif" font-weight="700" font-size="64" transform="matrix(1 0 0 1 3206.48 1722)">-</text><text font-family="BIZ UDPGothic,BIZ UDPGothic_MSFontService,sans-serif" font-weight="700" font-size="64" transform="matrix(1 0 0 1 3237.41 1722)">LD</text><text font-family="BIZ UDPGothic,BIZ UDPGothic_MSFontService,sans-serif" font-weight="700" font-size="64" transform="matrix(1 0 0 1 2987.92 1799)">データベース</text><rect x="894.5" y="969.5" width="1145" height="191" stroke="#2E75B6" stroke-width="4.58333" stroke-miterlimit="8" fill="none"/><text fill="#2E75B6" font-family="Arial,Arial_MSFontService,sans-serif" font-weight="400" font-size="50" transform="matrix(1 0 0 1 939.692 1071)">•</text><text fill="#2E75B6" font-family="BIZ UDPGothic,BIZ UDPGothic_MSFontService,sans-serif" font-weight="400" font-size="50" transform="matrix(1 0 0 1 978.65 1071)">対象データセット</text><text fill="#2E75B6" font-family="Consolas,Consolas_MSFontService,sans-serif" font-weight="400" font-size="50" transform="matrix(1 0 0 1 1446.38 1071)">RWDataset</text><text fill="#2E75B6" font-family="Arial,Arial_MSFontService,sans-serif" font-weight="400" font-size="50" transform="matrix(1 0 0 1 939.692 1131)">•</text><text fill="#2E75B6" font-family="BIZ UDPGothic,BIZ UDPGothic_MSFontService,sans-serif" font-weight="400" font-size="50" transform="matrix(1 0 0 1 978.65 1131)">時間範囲</text><text fill="#2E75B6" font-family="Consolas,Consolas_MSFontService,sans-serif" font-weight="400" font-size="50" transform="matrix(1 0 0 1 1446.38 1131)">timePeriodStart</text><text fill="#2E75B6" font-family="Consolas,Consolas_MSFontService,sans-serif" font-weight="400" font-size="50" transform="matrix(1 0 0 1 1858.88 1131)">/End</text><path d="M1666.86 1341.14 1466.5 1160.5" stroke="#2E75B6" stroke-width="4.58333" stroke-miterlimit="8" fill="none" fill-rule="evenodd"/><rect x="934" y="929" width="482" height="69.9998" fill="#FFFFFF"/><text fill="#2E75B6" font-family="Consolas,Consolas_MSFontService,sans-serif" font-weight="700" font-size="50" transform="matrix(1 0 0 1 955.075 981)">RWDataReadDemand</text><g><g><g><path d="M26.8333 95.6664 26.8333 16.3333 55.9999 16.3333 55.9999 40.8332 85.1664 40.8332 85.1664 95.6664 26.8333 95.6664ZM62.9998 19.25 77.5831 33.8332 62.9998 33.8332 62.9998 19.25ZM62.9998 9.33331 19.8333 9.33331 19.8333 102.666 92.1664 102.666 92.1664 34.9999 62.9998 9.33331Z" fill="#7F6000" transform="matrix(1 0 0 1 2172 1074)"/><path d="M33.8332 52.4999 78.1665 52.4999 78.1665 57.1665 33.8332 57.1665Z" fill="#7F6000" transform="matrix(1 0 0 1 2172 1074)"/><path d="M33.8332 43.1666 48.9999 43.1666 48.9999 47.8332 33.8332 47.8332Z" fill="#7F6000" transform="matrix(1 0 0 1 2172 1074)"/><path d="M33.8332 61.8332 78.1665 61.8332 78.1665 66.4998 33.8332 66.4998Z" fill="#7F6000" transform="matrix(1 0 0 1 2172 1074)"/><path d="M33.8332 71.1665 78.1665 71.1665 78.1665 75.8331 33.8332 75.8331Z" fill="#7F6000" transform="matrix(1 0 0 1 2172 1074)"/><path d="M33.8332 80.4998 78.1665 80.4998 78.1665 85.1664 33.8332 85.1664Z" fill="#7F6000" transform="matrix(1 0 0 1 2172 1074)"/></g></g></g><text fill="#7F6000" font-family="MS Mincho,MS Mincho_MSFontService,sans-serif" font-weight="700" font-size="55" transform="matrix(1 0 0 1 2367.85 1129)">➋</text><text fill="#7F6000" font-family="BIZ UDPGothic,BIZ UDPGothic_MSFontService,sans-serif" font-weight="700" font-size="55" transform="matrix(1 0 0 1 2441.19 1129)">対象の</text><text fill="#7F6000" font-family="BIZ UDPGothic,BIZ UDPGothic_MSFontService,sans-serif" font-weight="700" font-size="55" transform="matrix(1 0 0 1 2449.78 1196)">データ</text><path d="M0 27.9999 345 27.9999 345 0 401 55.9998 345 112 345 83.9997 0 83.9997Z" fill="#A6A6A6" fill-rule="evenodd" transform="matrix(-1 0 0 1 2066 1497)"/><g><g><g><path d="M2287.35 1511.5 2362.5 1511.5 2362.5 1504C2362.5 1500.7 2359.8 1498 2356.5 1498L2311.5 1498 2295 1487.05C2293.95 1486.45 2292.9 1486 2291.7 1486L2263.5 1486C2260.2 1486 2257.5 1488.7 2257.5 1492L2257.5 1565.5C2257.5 1565.8 2276.85 1518.55 2276.85 1518.55 2278.65 1514.35 2282.7 1511.5 2287.35 1511.5Z" fill="#2E75B6"/><path d="M2374.5 1523.5C2374.5 1520.35 2372.25 1517.8 2369.1 1517.5L2287.35 1517.5C2285.1 1517.5 2283.15 1518.85 2282.25 1520.8L2262 1570 2353.5 1570 2373.9 1526.2C2374.35 1525.3 2374.5 1524.4 2374.5 1523.5L2374.5 1523.5Z" fill="#2E75B6"/></g></g></g><text fill="#2E75B6" font-family="MS Mincho,MS Mincho_MSFontService,sans-serif" font-weight="700" font-size="55" transform="matrix(1 0 0 1 1717.21 1756)">➌</text><text fill="#2E75B6" font-family="BIZ UDPGothic,BIZ UDPGothic_MSFontService,sans-serif" font-weight="700" font-size="55" transform="matrix(1 0 0 1 1790.54 1756)">読込供給</text><text fill="#2E75B6" font-family="BIZ UDPGothic,BIZ UDPGothic_MSFontService,sans-serif" font-weight="700" font-size="55" transform="matrix(1 0 0 1 1702.88 1823)">(</text><text fill="#2E75B6" font-family="BIZ UDPGothic,BIZ UDPGothic_MSFontService,sans-serif" font-weight="700" font-size="55" transform="matrix(1 0 0 1 1730.38 1823)">データ付き</text><text fill="#2E75B6" font-family="BIZ UDPGothic,BIZ UDPGothic_MSFontService,sans-serif" font-weight="700" font-size="55" transform="matrix(1 0 0 1 1996.79 1823)">)</text><g><g><g><path d="M91.6998 19.8333 20.2999 19.8333C18.0964 19.8461 16.3205 21.6429 16.3333 23.8465 16.3333 23.8465 16.3333 23.8466 16.3333 23.8466L16.3333 72.0765C16.3203 74.2801 18.0962 76.0769 20.2998 76.0898 20.2998 76.0898 20.2999 76.0898 20.2999 76.0898L63.9332 76.0898 79.7998 92.1664 79.7998 76.0898 91.6998 76.0898C93.9034 76.077 95.6793 74.2802 95.6664 72.0766 95.6664 72.0766 95.6664 72.0765 95.6664 72.0765L95.6664 23.8466C95.6794 21.643 93.9035 19.8462 91.6999 19.8333 91.6999 19.8333 91.6998 19.8333 91.6998 19.8333ZM37.3332 53.6665C34.1116 53.6665 31.4999 51.0548 31.4999 47.8332 31.4999 44.6116 34.1116 41.9999 37.3332 41.9999 40.5549 41.9999 43.1666 44.6116 43.1666 47.8332 43.1666 51.0548 40.5549 53.6665 37.3332 53.6665ZM55.9999 53.6665C52.7782 53.6665 50.1665 51.0548 50.1665 47.8332 50.1665 44.6116 52.7782 41.9999 55.9999 41.9999 59.2215 41.9999 61.8332 44.6116 61.8332 47.8332 61.8332 51.0548 59.2215 53.6665 55.9999 53.6665ZM74.6665 53.6665C71.4448 53.6665 68.8332 51.0548 68.8332 47.8332 68.8332 44.6116 71.4448 41.9999 74.6665 41.9999 77.8881 41.9999 80.4998 44.6116 80.4998 47.8332 80.4998 51.0548 77.8881 53.6665 74.6665 53.6665Z" fill="#2E75B6" transform="matrix(1 0 0 1 1775 1582)"/></g></g></g><g><g><g><path d="M26.5938 94.8125 26.5938 16.1875 55.5 16.1875 55.5 40.4688 84.4063 40.4688 84.4063 94.8125 26.5938 94.8125ZM62.4375 19.0781 76.8906 33.5313 62.4375 33.5313 62.4375 19.0781ZM62.4375 9.25 19.6563 9.25 19.6563 101.75 91.3438 101.75 91.3438 34.6875 62.4375 9.25Z" fill="#7F6000" transform="matrix(1.00901 0 0 1 1876 1583)"/><path d="M33.5313 52.0313 77.4688 52.0313 77.4688 56.6563 33.5313 56.6563Z" fill="#7F6000" transform="matrix(1.00901 0 0 1 1876 1583)"/><path d="M33.5313 42.7813 48.5625 42.7813 48.5625 47.4063 33.5313 47.4063Z" fill="#7F6000" transform="matrix(1.00901 0 0 1 1876 1583)"/><path d="M33.5313 61.2813 77.4688 61.2813 77.4688 65.9063 33.5313 65.9063Z" fill="#7F6000" transform="matrix(1.00901 0 0 1 1876 1583)"/><path d="M33.5313 70.5313 77.4688 70.5313 77.4688 75.1563 33.5313 75.1563Z" fill="#7F6000" transform="matrix(1.00901 0 0 1 1876 1583)"/><path d="M33.5313 79.7813 77.4688 79.7813 77.4688 84.4063 33.5313 84.4063Z" fill="#7F6000" transform="matrix(1.00901 0 0 1 1876 1583)"/></g></g></g></g></svg>