<svg width="3352" height="1104" xmlns="http://www.w3.org/2000/svg" xmlns:xlink="http://www.w3.org/1999/xlink" xml:space="preserve" overflow="hidden"><g transform="translate(-123 -440)"><g><g><g><path d="M1243.94 540.688 1243.94 628.344C1243.94 630.167 1244.66 631.915 1245.95 633.204L1256.56 643.812 1244.23 656.139C1242.94 657.428 1242.22 659.177 1242.22 661L1242.22 707.406C1242.24 727.331 1258.39 743.477 1278.31 743.5L1426.13 743.5C1445.11 743.519 1460.52 728.144 1460.53 709.16 1460.55 692.799 1449.03 678.693 1433 675.438L1433 583.656C1433 581.412 1431.91 579.309 1430.07 578.022L1419.01 570.281 1431.41 555.4C1433.28 553.154 1433.52 549.969 1432.02 547.463L1424.46 534.878 1430.97 528.347C1432.26 527.063 1432.99 525.321 1433 523.5L1433 508.031C1432.98 488.107 1416.83 471.96 1396.91 471.938L1221.59 471.938C1201.75 471.877 1185.6 487.89 1185.5 507.732 1185.49 518.616 1190.47 528.905 1199.01 535.652 1199.13 535.751 1199.26 535.848 1199.39 535.937 1203.74 539.003 1208.92 540.671 1214.23 540.718ZM1235.58 526.938C1236.54 524.622 1237.05 522.143 1237.06 519.636 1237.14 508.403 1228.1 499.232 1216.87 499.151 1216.73 499.15 1216.58 499.15 1216.44 499.152 1212.64 499.152 1209.56 502.23 1209.56 506.027 1209.56 509.824 1212.64 512.902 1216.44 512.902 1220.11 512.782 1223.19 515.665 1223.31 519.34 1223.31 519.439 1223.31 519.538 1223.31 519.636 1223.14 522.3 1221.51 524.651 1219.08 525.755 1215.3 527.609 1210.8 527.218 1207.4 524.741 1202.25 520.597 1199.25 514.343 1199.25 507.732 1199.33 495.392 1209.4 485.456 1221.74 485.538 1234.08 485.62 1244.02 495.691 1243.94 508.031L1243.94 526.938ZM1288.63 674.784C1284.3 674.585 1279.99 675.525 1276.14 677.51 1269.18 680.978 1264.72 688.025 1264.56 695.801 1264.48 707.034 1273.52 716.206 1284.76 716.287 1284.9 716.288 1285.04 716.287 1285.19 716.285 1288.98 716.285 1292.06 713.207 1292.06 709.41 1292.06 705.613 1288.98 702.535 1285.19 702.535 1281.51 702.655 1278.44 699.773 1278.32 696.098 1278.31 695.999 1278.31 695.9 1278.31 695.801 1278.49 693.138 1280.11 690.786 1282.54 689.683 1286.33 687.834 1290.82 688.231 1294.23 690.714 1299.37 694.854 1302.37 701.101 1302.38 707.705 1302.28 719.957 1292.28 729.819 1280.03 729.75L1278.31 729.75C1265.98 729.735 1255.98 719.74 1255.97 707.406L1255.97 663.85 1271.14 648.673C1273.83 645.988 1273.83 641.637 1271.14 638.952L1257.69 625.494 1257.69 508.031C1257.7 499.92 1254.96 492.045 1249.92 485.688L1396.91 485.688C1409.24 485.703 1419.23 495.698 1419.25 508.031L1419.25 520.65 1410.95 528.952C1408.72 531.183 1408.3 534.645 1409.92 537.35L1417.72 550.35 1403.65 567.225C1401.22 570.142 1401.62 574.477 1404.54 576.908 1404.68 577.031 1404.84 577.148 1404.99 577.259L1419.25 587.238 1419.25 674.75ZM1426.13 729.75 1308.41 729.75C1317.87 717.867 1318.7 701.268 1310.47 688.5L1426.13 688.5C1437.52 688.5 1446.75 697.734 1446.75 709.125 1446.75 720.516 1437.52 729.75 1426.13 729.75Z" fill="#843C0C"/><path d="M1326.44 526.938 1384.88 526.938 1384.88 540.688 1326.44 540.688Z" fill="#843C0C"/><path d="M1292.06 526.938 1312.69 526.938 1312.69 540.688 1292.06 540.688Z" fill="#843C0C"/><path d="M1326.44 630.062 1384.88 630.062 1384.88 643.812 1326.44 643.812Z" fill="#843C0C"/><path d="M1292.06 630.062 1312.69 630.062 1312.69 643.812 1292.06 643.812Z" fill="#843C0C"/><path d="M1292.06 561.312 1350.5 561.312 1350.5 575.062 1292.06 575.062Z" fill="#843C0C"/><path d="M1364.25 561.312 1384.88 561.312 1384.88 575.062 1364.25 575.062Z" fill="#843C0C"/><path d="M1292.06 595.688 1384.88 595.688 1384.88 609.438 1292.06 609.438Z" fill="#843C0C"/></g></g></g><g><g><g><path d="M3144.06 1285.88 3144.06 1052.13 3230 1052.13 3230 1124.31 3315.94 1124.31 3315.94 1285.88 3144.06 1285.88ZM3250.62 1060.72 3293.59 1103.69 3250.62 1103.69 3250.62 1060.72ZM3250.62 1031.5 3123.44 1031.5 3123.44 1306.5 3336.56 1306.5 3336.56 1107.13 3250.62 1031.5Z" fill="#00B0F0"/><path d="M3164.69 1158.69 3295.31 1158.69 3295.31 1172.44 3164.69 1172.44Z" fill="#00B0F0"/><path d="M3164.69 1131.19 3209.37 1131.19 3209.37 1144.94 3164.69 1144.94Z" fill="#00B0F0"/><path d="M3164.69 1186.19 3295.31 1186.19 3295.31 1199.94 3164.69 1199.94Z" fill="#00B0F0"/><path d="M3164.69 1213.69 3295.31 1213.69 3295.31 1227.44 3164.69 1227.44Z" fill="#00B0F0"/><path d="M3164.69 1241.19 3295.31 1241.19 3295.31 1254.94 3164.69 1254.94Z" fill="#00B0F0"/></g></g></g><rect x="3163" y="1126" width="147" height="144" fill="#FFFFFF"/><g><g><g><path d="M289.344 1131.19 461.563 1131.19 461.563 1114C461.563 1106.44 455.375 1100.25 447.813 1100.25L344.688 1100.25 306.875 1075.16C304.469 1073.78 302.063 1072.75 299.313 1072.75L234.688 1072.75C227.125 1072.75 220.938 1078.94 220.938 1086.5L220.938 1254.94C220.938 1255.63 265.281 1147.34 265.281 1147.34 269.406 1137.72 278.688 1131.19 289.344 1131.19Z" fill="#7F6000"/><path d="M489.063 1158.69C489.063 1151.47 483.906 1145.63 476.688 1144.94L289.344 1144.94C284.188 1144.94 279.719 1148.03 277.656 1152.5L231.25 1265.25 440.938 1265.25 487.688 1164.88C488.719 1162.81 489.063 1160.75 489.063 1158.69L489.063 1158.69Z" fill="#7F6000"/></g></g></g><g><g><g><path d="M26.8333 95.6664 26.8333 16.3333 55.9999 16.3333 55.9999 40.8332 85.1664 40.8332 85.1664 95.6664 26.8333 95.6664ZM62.9998 19.25 77.5831 33.8332 62.9998 33.8332 62.9998 19.25ZM62.9998 9.33331 19.8333 9.33331 19.8333 102.666 92.1664 102.666 92.1664 34.9999 62.9998 9.33331Z" fill="#7F6000" transform="matrix(1 0 0 1 774 1014)"/><path d="M33.8332 52.4999 78.1665 52.4999 78.1665 57.1665 33.8332 57.1665Z" fill="#7F6000" transform="matrix(1 0 0 1 774 1014)"/><path d="M33.8332 43.1666 48.9999 43.1666 48.9999 47.8332 33.8332 47.8332Z" fill="#7F6000" transform="matrix(1 0 0 1 774 1014)"/><path d="M33.8332 61.8332 78.1665 61.8332 78.1665 66.4998 33.8332 66.4998Z" fill="#7F6000" transform="matrix(1 0 0 1 774 1014)"/><path d="M33.8332 71.1665 78.1665 71.1665 78.1665 75.8331 33.8332 75.8331Z" fill="#7F6000" transform="matrix(1 0 0 1 774 1014)"/><path d="M33.8332 80.4998 78.1665 80.4998 78.1665 85.1664 33.8332 85.1664Z" fill="#7F6000" transform="matrix(1 0 0 1 774 1014)"/></g></g></g><g><g><g><path d="M1360.84 1132.22C1346.41 1132.22 1335.06 1120.53 1335.06 1106.44 1335.06 1092.34 1346.75 1080.66 1360.84 1080.66 1375.28 1080.66 1386.63 1092.34 1386.63 1106.44 1386.63 1120.53 1374.94 1132.22 1360.84 1132.22ZM1418.94 1090.28C1417.56 1085.47 1415.84 1081 1413.44 1076.88L1418.94 1060.72 1406.56 1048.34 1390.41 1053.84C1386.28 1051.44 1381.81 1049.72 1377 1048.34L1369.44 1033.22 1352.25 1033.22 1344.69 1048.34C1339.88 1049.72 1335.41 1051.44 1331.28 1053.84L1315.13 1048.34 1302.75 1060.72 1308.25 1076.88C1305.84 1081 1304.13 1085.47 1302.75 1090.28L1287.63 1097.84 1287.63 1115.03 1302.75 1122.59C1304.13 1127.41 1305.84 1131.88 1308.25 1136L1302.75 1152.16 1314.78 1164.19 1330.94 1158.69C1335.06 1161.09 1339.53 1162.81 1344.34 1164.19L1351.91 1179.31 1369.09 1179.31 1376.66 1164.19C1381.47 1162.81 1385.94 1161.09 1390.06 1158.69L1406.22 1164.19 1418.59 1152.16 1413.09 1136C1415.5 1131.88 1417.56 1127.06 1418.94 1122.59L1434.06 1115.03 1434.06 1097.84 1418.94 1090.28Z" fill="#2F5597"/><path d="M1283.16 1257.34C1268.72 1257.34 1257.38 1245.66 1257.38 1231.56 1257.38 1217.13 1269.06 1205.78 1283.16 1205.78 1297.59 1205.78 1308.94 1217.47 1308.94 1231.56 1308.94 1245.66 1297.59 1257.34 1283.16 1257.34L1283.16 1257.34ZM1335.75 1202 1341.25 1185.84 1328.88 1173.47 1312.72 1178.97C1308.59 1176.56 1303.78 1174.84 1299.31 1173.47L1291.75 1158.34 1274.56 1158.34 1267 1173.47C1262.19 1174.84 1257.72 1176.56 1253.59 1178.97L1237.44 1173.47 1225.41 1185.5 1230.56 1201.66C1228.16 1205.78 1226.44 1210.59 1225.06 1215.06L1209.94 1222.63 1209.94 1239.81 1225.06 1247.38C1226.44 1252.19 1228.16 1256.66 1230.56 1260.78L1225.41 1276.94 1237.44 1288.97 1253.59 1283.81C1257.72 1286.22 1262.19 1287.94 1267 1289.31L1274.56 1304.44 1291.75 1304.44 1299.31 1289.31C1304.13 1287.94 1308.59 1286.22 1312.72 1283.81L1328.88 1289.31 1340.91 1276.94 1335.75 1261.13C1338.16 1257 1339.88 1252.53 1341.25 1247.72L1356.38 1240.16 1356.38 1222.97 1341.25 1215.41C1339.88 1210.59 1338.16 1206.13 1335.75 1202Z" fill="#2F5597"/></g></g></g><path d="M638 1141 982 1141 982 1113 1038 1169 982 1225 982 1197 638 1197Z" fill="#A6A6A6" fill-rule="evenodd"/><text font-family="BIZ UDPGothic,BIZ UDPGothic_MSFontService,sans-serif" font-weight="700" font-size="64" transform="matrix(1 0 0 1 258.539 1419)">実世界</text><text font-family="BIZ UDPGothic,BIZ UDPGothic_MSFontService,sans-serif" font-weight="700" font-size="64" transform="matrix(1 0 0 1 178.629 1496)">データストア</text><text font-family="MS Mincho,MS Mincho_MSFontService,sans-serif" font-weight="700" font-size="64" transform="matrix(1 0 0 1 1123.5 1417)">➊</text><text font-family="BIZ UDPGothic,BIZ UDPGothic_MSFontService,sans-serif" font-weight="700" font-size="64" transform="matrix(1 0 0 1 1208.87 1417)">データ骨格</text><text font-family="BIZ UDPGothic,BIZ UDPGothic_MSFontService,sans-serif" font-weight="700" font-size="64" transform="matrix(1 0 0 1 1138.97 1496)">認識エンジン</text><rect x="1832" y="618" width="57.0001" height="848" fill="#A6A6A6"/><path d="M1613 1141 1833 1141 1833 1113 1889 1169 1833 1225 1833 1197 1613 1197Z" fill="#A6A6A6" fill-rule="evenodd"/><text font-family="BIZ UDPGothic,BIZ UDPGothic_MSFontService,sans-serif" font-weight="700" font-size="64" transform="matrix(1 0 0 1 1193.7 846)">構造情報</text><text font-family="BIZ UDPGothic,BIZ UDPGothic_MSFontService,sans-serif" font-weight="700" font-size="64" transform="matrix(1 0 0 1 1077.1 923)">生成用プロンプト</text><g><g><g><path d="M2198.14 520.332C2198.14 476.592 2233.59 441.137 2277.33 441.137L2448.65 441.137C2492.41 441.137 2527.86 476.592 2527.86 520.332L2527.86 771 2277.33 771C2233.59 771 2198.14 735.545 2198.14 691.806L2198.14 520.332Z" fill="#74AA9C"/><path d="M2349.87 482.024C2322.72 482.024 2298.59 499.484 2290.18 525.269L2287.15 542.976 2287.15 601.666C2287.15 604.601 2288.66 607.207 2291.18 608.716L2338.44 635.943 2338.44 555.293 2338.45 555.293 2338.45 551.466 2386.28 523.843C2390.9 521.166 2395.94 519.336 2401.15 518.38L2396.55 502.762C2384.67 489.485 2367.68 481.941 2349.87 482.024ZM2349.87 498.14 2349.79 498.222C2360.72 498.222 2371.23 501.994 2379.64 508.975 2379.29 509.14 2378.62 509.565 2378.13 509.812L2328.68 538.286C2326.16 539.712 2324.65 542.4 2324.65 545.335L2324.65 612.172 2303.38 599.91 2303.38 544.663C2303.36 519.001 2324.17 498.181 2349.87 498.14Z" fill="#FFFFFF"/><path d="M2463.8 532.644C2450.23 509.126 2423.04 496.962 2396.51 502.573L2379.66 508.802 2328.83 538.147C2326.29 539.614 2324.79 542.224 2324.74 545.164L2324.79 599.698 2394.63 559.373 2394.64 559.385 2397.95 557.471 2445.79 585.079C2450.42 587.745 2454.52 591.192 2457.96 595.231L2469.18 583.435C2474.74 566.51 2472.78 548.021 2463.8 532.644ZM2449.85 540.702 2449.73 540.672C2455.2 550.139 2457.19 561.124 2455.34 571.896 2455.03 571.681 2454.33 571.312 2453.87 571.007L2404.48 542.424C2401.99 540.951 2398.9 540.989 2396.36 542.456L2338.48 575.875 2338.46 551.321 2386.31 523.697C2408.53 510.854 2436.96 518.463 2449.85 540.702Z" fill="#FFFFFF"/><path d="M2476.93 656.621C2490.51 633.102 2487.45 603.478 2469.32 583.304L2455.5 571.826 2404.68 542.481C2402.14 541.013 2399.12 541.017 2396.56 542.448L2349.35 569.755 2419.2 610.08 2419.19 610.091 2422.5 612.005 2422.51 667.236C2422.52 672.58 2421.58 677.856 2419.8 682.851L2435.63 686.673C2453.07 683.025 2468.1 672.08 2476.93 656.621ZM2462.97 648.563 2462.94 648.45C2457.48 657.917 2448.96 665.13 2438.71 668.921 2438.74 668.541 2438.7 667.747 2438.74 667.196L2438.8 610.138C2438.83 607.239 2437.25 604.589 2434.71 603.121L2376.83 569.703 2398.09 557.41 2445.93 585.034C2468.16 597.853 2475.79 626.283 2462.97 648.563Z" fill="#FFFFFF"/><path d="M2376.13 729.976C2403.28 729.976 2427.41 712.516 2435.82 686.731L2438.85 669.024 2438.85 610.334C2438.85 607.399 2437.34 604.793 2434.82 603.284L2387.56 576.057 2387.56 656.707 2387.55 656.707 2387.55 660.534 2339.72 688.157C2335.1 690.834 2330.06 692.664 2324.85 693.62L2329.45 709.238C2341.33 722.515 2358.32 730.059 2376.13 729.976ZM2376.13 713.86 2376.21 713.778C2365.28 713.778 2354.77 710.006 2346.36 703.025 2346.71 702.86 2347.38 702.435 2347.87 702.188L2397.32 673.715C2399.84 672.288 2401.35 669.6 2401.35 666.665L2401.35 599.828 2422.62 612.09 2422.62 667.337C2422.64 692.999 2401.83 713.819 2376.13 713.86Z" fill="#FFFFFF"/><path d="M2262.2 679.356C2275.77 702.874 2302.96 715.038 2329.49 709.427L2346.34 703.198 2397.17 673.854C2399.71 672.386 2401.21 669.776 2401.26 666.836L2401.21 612.303 2331.37 652.628 2331.36 652.616 2328.05 654.529 2280.21 626.922C2275.58 624.255 2271.48 620.808 2268.04 616.769L2256.82 628.565C2251.26 645.49 2253.22 663.979 2262.2 679.356ZM2276.15 671.298 2276.27 671.328C2270.8 661.861 2268.81 650.877 2270.66 640.105 2270.97 640.319 2271.67 640.689 2272.13 640.993L2321.52 669.577C2324.01 671.049 2327.1 671.011 2329.64 669.544L2387.52 636.126 2387.54 660.679 2339.69 688.303C2317.47 701.146 2289.04 693.537 2276.15 671.298Z" fill="#FFFFFF"/><path d="M2249.07 555.38C2235.49 578.898 2238.55 608.522 2256.68 628.696L2270.5 640.175 2321.32 669.519C2323.86 670.987 2326.88 670.983 2329.44 669.552L2376.65 642.245 2306.8 601.921 2306.81 601.909 2303.5 599.995 2303.49 544.765C2303.48 539.421 2304.42 534.144 2306.2 529.149L2290.37 525.327C2272.93 528.975 2257.9 539.921 2249.07 555.38ZM2263.03 563.438 2263.06 563.55C2268.52 554.083 2277.04 546.87 2287.29 543.08 2287.26 543.459 2287.3 544.253 2287.26 544.805L2287.2 601.862C2287.17 604.761 2288.75 607.412 2291.29 608.879L2349.17 642.298 2327.91 654.59 2280.07 626.966C2257.84 614.147 2250.21 585.718 2263.03 563.438Z" fill="#FFFFFF"/></g></g></g><g><g><g><path d="M32.375 48.5625 78.625 48.5625 78.625 50.875 32.375 50.875Z" fill="#7F6000" transform="matrix(1 0 0 1.00901 1903 1001)"/><path d="M32.375 39.3125 54.3438 39.3125 54.3438 41.625 32.375 41.625Z" fill="#7F6000" transform="matrix(1 0 0 1.00901 1903 1001)"/><path d="M32.375 57.8125 78.625 57.8125 78.625 60.125 32.375 60.125Z" fill="#7F6000" transform="matrix(1 0 0 1.00901 1903 1001)"/><path d="M32.375 67.0625 78.625 67.0625 78.625 69.375 32.375 69.375Z" fill="#7F6000" transform="matrix(1 0 0 1.00901 1903 1001)"/><path d="M32.375 76.3125 78.625 76.3125 78.625 78.625 32.375 78.625Z" fill="#7F6000" transform="matrix(1 0 0 1.00901 1903 1001)"/><path d="M32.375 85.5625 78.625 85.5625 78.625 87.875 32.375 87.875Z" fill="#7F6000" transform="matrix(1 0 0 1.00901 1903 1001)"/><path d="M20.8125 9.25 20.8125 101.75 90.1875 101.75 90.1875 34.2088 65.2287 9.25ZM65.9259 13.2171 86.2204 33.5116C86.2249 33.5161 86.2248 33.5235 86.2203 33.5279 86.2181 33.53 86.2153 33.5313 86.2123 33.5313L65.9063 33.5313 65.9063 13.2252C65.9064 13.2188 65.9116 13.2137 65.918 13.2137 65.921 13.2139 65.9239 13.215 65.9259 13.2171ZM23.125 99.4375 23.125 11.5625 63.5938 11.5625 63.5938 35.8438 87.875 35.8438 87.875 99.4375Z" fill="#7F6000" transform="matrix(1 0 0 1.00901 1903 1001)"/></g></g></g><g><g><g><path d="M1935.38 1286.56 1981.62 1286.56 1981.62 1288.87 1935.38 1288.87Z" fill="#2F5597"/><path d="M1935.38 1277.31 1957.34 1277.31 1957.34 1279.62 1935.38 1279.62Z" fill="#2F5597"/><path d="M1935.38 1295.81 1981.62 1295.81 1981.62 1298.12 1935.38 1298.12Z" fill="#2F5597"/><path d="M1935.38 1305.06 1981.62 1305.06 1981.62 1307.37 1935.38 1307.37Z" fill="#2F5597"/><path d="M1935.38 1314.31 1981.62 1314.31 1981.62 1316.62 1935.38 1316.62Z" fill="#2F5597"/><path d="M1935.38 1323.56 1981.62 1323.56 1981.62 1325.87 1935.38 1325.87Z" fill="#2F5597"/><path d="M1923.81 1247.25 1923.81 1339.75 1993.19 1339.75 1993.19 1272.21 1968.23 1247.25ZM1968.93 1251.22 1989.22 1271.51C1989.22 1271.52 1989.22 1271.52 1989.22 1271.53 1989.22 1271.53 1989.22 1271.53 1989.21 1271.53L1968.91 1271.53 1968.91 1251.23C1968.91 1251.22 1968.91 1251.21 1968.92 1251.21 1968.92 1251.21 1968.92 1251.21 1968.93 1251.22ZM1926.12 1337.44 1926.12 1249.56 1966.59 1249.56 1966.59 1273.84 1990.88 1273.84 1990.88 1337.44Z" fill="#2F5597"/></g></g></g><text fill="#7F6000" font-family="BIZ UDPGothic,BIZ UDPGothic_MSFontService,sans-serif" font-weight="700" font-size="55" transform="matrix(1 0 0 1 2022.5 1081)">実世界データの一部分</text><text fill="#2F5597" font-family="BIZ UDPGothic,BIZ UDPGothic_MSFontService,sans-serif" font-weight="700" font-size="55" transform="matrix(1 0 0 1 2022.5 1316)">データ骨格情</text><text fill="#2F5597" font-family="BIZ UDPGothic,BIZ UDPGothic_MSFontService,sans-serif" font-weight="700" font-size="55" transform="matrix(1 0 0 1 2352.5 1316)">報</text><text fill="#7F6000" font-family="BIZ UDPGothic,BIZ UDPGothic_MSFontService,sans-serif" font-weight="700" font-size="55" transform="matrix(1 0 0 1 668.934 1295)">実世界データ</text><text font-family="MS Mincho,MS Mincho_MSFontService,sans-serif" font-weight="700" font-size="64" transform="matrix(1 0 0 1 2159.87 876)">➋</text><text font-family="BIZ UDPGothic,BIZ UDPGothic_MSFontService,sans-serif" font-weight="700" font-size="64" transform="matrix(1 0 0 1 2245.24 876)">ChatGPT</text><rect x="2829" y="594" width="57" height="862" fill="#A6A6A6"/><rect x="2629" y="592" width="257" height="57.0001" fill="#A6A6A6"/><rect x="1832" y="1409" width="1054" height="57.0001" fill="#A6A6A6"/><path d="M2836 1141 3009 1141 3009 1113 3065 1169 3009 1225 3009 1197 2836 1197Z" fill="#A6A6A6" fill-rule="evenodd"/><path d="M1613 592.25 2061.5 592.25 2061.5 564 2118 620.5 2061.5 677 2061.5 648.75 1613 648.75Z" fill="#A6A6A6" fill-rule="evenodd"/><g><g><g><path d="M61.354 109.791 93.6456 109.791 93.6456 132.396 61.354 132.396Z" fill="#00B0F0" transform="matrix(-1.84882e-16 -1.00645 1 -1.83697e-16 3151 1282)"/><path d="M61.354 22.6041 93.6456 22.6041 93.6456 45.2082 61.354 45.2082Z" fill="#00B0F0" transform="matrix(-1.84882e-16 -1.00645 1 -1.83697e-16 3151 1282)"/><path d="M12.9166 109.791 45.2082 109.791 45.2082 132.396 12.9166 132.396Z" fill="#00B0F0" transform="matrix(-1.84882e-16 -1.00645 1 -1.83697e-16 3151 1282)"/><path d="M109.791 109.791 142.083 109.791 142.083 132.396 109.791 132.396Z" fill="#00B0F0" transform="matrix(-1.84882e-16 -1.00645 1 -1.83697e-16 3151 1282)"/><path d="M80.729 74.2707 80.729 51.6666 74.2707 51.6666 74.2707 74.2707 25.8333 74.2707 25.8333 103.333 32.2916 103.333 32.2916 80.729 74.2707 80.729 74.2707 103.333 80.729 103.333 80.729 80.729 122.708 80.729 122.708 103.333 129.166 103.333 129.166 74.2707Z" fill="#00B0F0" transform="matrix(-1.84882e-16 -1.00645 1 -1.83697e-16 3151 1282)"/></g></g></g><rect x="1934" y="1275" width="51.0002" height="59.0001" fill="#FFFFFF"/><g><g><g><path d="M11.875 30.6249 29.3749 30.6249 29.3749 40.6249 30.6249 40.6249 30.6249 30.6249 48.1248 30.6249 48.1248 40.6249 49.3748 40.6249 49.3748 29.3749 30.6249 29.3749 30.6249 19.3749 29.3749 19.3749 29.3749 29.3749 10.625 29.3749 10.625 40.6249 11.875 40.6249 11.875 30.6249Z" fill="#2F5597" transform="matrix(-1.83698e-16 -1.00001 1 -1.83697e-16 1927 1336)"/><path d="M36.2499 8.74997 23.7499 8.74997 23.7499 17.4999 36.2499 17.4999ZM34.9999 16.2499 24.9999 16.2499 24.9999 9.99997 34.9999 9.99997Z" fill="#2F5597" transform="matrix(-1.83698e-16 -1.00001 1 -1.83697e-16 1927 1336)"/><path d="M23.7499 42.4999 23.7499 51.2498 36.2499 51.2498 36.2499 42.4999ZM34.9999 49.9998 24.9999 49.9998 24.9999 43.7499 34.9999 43.7499Z" fill="#2F5597" transform="matrix(-1.83698e-16 -1.00001 1 -1.83697e-16 1927 1336)"/><path d="M42.4999 51.2498 54.9998 51.2498 54.9998 42.4999 42.4999 42.4999ZM43.7499 43.7499 53.7498 43.7499 53.7498 49.9998 43.7499 49.9998Z" fill="#2F5597" transform="matrix(-1.83698e-16 -1.00001 1 -1.83697e-16 1927 1336)"/><path d="M17.4999 42.4999 4.99998 42.4999 4.99998 51.2498 17.4999 51.2498ZM16.2499 49.9998 6.24998 49.9998 6.24998 43.7499 16.2499 43.7499Z" fill="#2F5597" transform="matrix(-1.83698e-16 -1.00001 1 -1.83697e-16 1927 1336)"/></g></g></g><g><g><g><path d="M28.9063 33.5313 28.9063 63.0156C28.9064 63.6289 29.1501 64.217 29.5838 64.6506L33.1509 68.2188 29.0057 72.3651C28.572 72.7987 28.3282 73.3867 28.3281 74L28.3281 89.6094C28.3358 96.3113 33.7669 101.742 40.4688 101.75L90.1875 101.75C96.5733 101.757 101.755 96.5849 101.762 90.1992 101.767 84.6959 97.8932 79.9514 92.5 78.8563L92.5 47.9844C92.5003 47.2296 92.1321 46.5222 91.5137 46.0893L87.7929 43.4854 91.9647 38.48C92.5939 37.7244 92.6765 36.6534 92.1705 35.8102L89.6267 31.5772 91.8178 29.3803C92.2521 28.9486 92.4975 28.3624 92.5 27.75L92.5 22.5469C92.4924 15.845 87.0613 10.4139 80.3594 10.4063L21.3906 10.4063C14.7163 10.3858 9.28504 15.7721 9.25 22.4463 9.24663 26.1073 10.9212 29.5681 13.7941 31.8374 13.8357 31.8709 13.8785 31.9033 13.9236 31.9333 15.3851 32.9647 17.1264 33.5257 18.9151 33.5417ZM26.0966 28.9063C26.4196 28.1275 26.5886 27.2935 26.5938 26.4504 26.6209 22.672 23.58 19.587 19.8016 19.5598 19.7531 19.5595 19.7047 19.5596 19.6563 19.5603 18.3791 19.5603 17.3438 20.5956 17.3438 21.8728 17.3438 23.15 18.3791 24.1853 19.6563 24.1853 20.8925 24.1449 21.9274 25.1145 21.9677 26.3507 21.9688 26.3839 21.9691 26.4172 21.9688 26.4504 21.9105 27.3462 21.3639 28.1372 20.5466 28.5085 19.2741 29.132 17.7613 29.0007 16.6153 28.1674 14.8829 26.7736 13.8754 24.6699 13.875 22.4463 13.9028 18.2955 17.2902 14.9532 21.4409 14.981 25.5918 15.0087 28.934 18.3961 28.9063 22.5469L28.9063 28.9063ZM43.9375 78.6366C42.4819 78.5695 41.0343 78.8858 39.7392 79.5535 37.3972 80.7198 35.8964 83.0901 35.8438 85.7059 35.8166 89.4843 38.8575 92.5693 42.6359 92.5965 42.6844 92.5968 42.7328 92.5967 42.7813 92.596 44.0585 92.596 45.0938 91.5607 45.0938 90.2835 45.0938 89.0063 44.0585 87.971 42.7813 87.971 41.545 88.0113 40.5102 87.0418 40.4698 85.8056 40.4688 85.7724 40.4684 85.7391 40.4688 85.7059 40.527 84.81 41.0736 84.0191 41.8909 83.6478 43.1644 83.0259 44.6773 83.1595 45.8222 83.9946 47.553 85.3872 48.5604 87.4885 48.5625 89.71 48.53 93.831 45.168 97.1481 41.0469 97.125L40.4688 97.125C36.3201 97.1199 32.9582 93.758 32.9531 89.6094L32.9531 74.9586 38.0568 69.8537C38.9596 68.9507 38.9596 67.4869 38.0568 66.5838L33.5313 62.0571 33.5313 22.5469C33.5343 19.8186 32.6137 17.1696 30.9193 15.0313L80.3594 15.0313C84.508 15.0363 87.8699 18.3983 87.875 22.5469L87.875 26.7915 85.0838 29.5838C84.3339 30.3343 84.1909 31.4989 84.737 32.4085L87.3605 36.7815 82.6291 42.4575C81.8115 43.4387 81.9443 44.8969 82.9255 45.7144 82.9753 45.756 83.0269 45.7954 83.0801 45.8326L87.875 49.1892 87.875 78.625ZM90.1875 97.125 50.5917 97.125C53.7759 93.1279 54.0552 87.5448 51.2855 83.25L90.1875 83.25C94.019 83.25 97.125 86.3561 97.125 90.1875 97.125 94.019 94.019 97.125 90.1875 97.125Z" fill="#843C0C" transform="matrix(1.00901 0 0 1 1889 440)"/><path d="M56.6563 28.9063 76.3125 28.9063 76.3125 33.5313 56.6563 33.5313Z" fill="#843C0C" transform="matrix(1.00901 0 0 1 1889 440)"/><path d="M45.0938 28.9063 52.0313 28.9063 52.0313 33.5313 45.0938 33.5313Z" fill="#843C0C" transform="matrix(1.00901 0 0 1 1889 440)"/><path d="M56.6563 63.5938 76.3125 63.5938 76.3125 68.2188 56.6563 68.2188Z" fill="#843C0C" transform="matrix(1.00901 0 0 1 1889 440)"/><path d="M45.0938 63.5938 52.0313 63.5938 52.0313 68.2188 45.0938 68.2188Z" fill="#843C0C" transform="matrix(1.00901 0 0 1 1889 440)"/><path d="M45.0938 40.4688 64.75 40.4688 64.75 45.0938 45.0938 45.0938Z" fill="#843C0C" transform="matrix(1.00901 0 0 1 1889 440)"/><path d="M69.375 40.4688 76.3125 40.4688 76.3125 45.0938 69.375 45.0938Z" fill="#843C0C" transform="matrix(1.00901 0 0 1 1889 440)"/><path d="M45.0938 52.0313 76.3125 52.0313 76.3125 56.6563 45.0938 56.6563Z" fill="#843C0C" transform="matrix(1.00901 0 0 1 1889 440)"/></g></g></g><g><g><g><path d="M32.6666 48.9999 79.3331 48.9999 79.3331 51.3332 32.6666 51.3332Z" fill="#7F6000" transform="matrix(1 0 0 1 1927 467)"/><path d="M32.6666 39.6666 54.8332 39.6666 54.8332 41.9999 32.6666 41.9999Z" fill="#7F6000" transform="matrix(1 0 0 1 1927 467)"/><path d="M32.6666 58.3332 79.3331 58.3332 79.3331 60.6665 32.6666 60.6665Z" fill="#7F6000" transform="matrix(1 0 0 1 1927 467)"/><path d="M32.6666 67.6665 79.3331 67.6665 79.3331 69.9998 32.6666 69.9998Z" fill="#7F6000" transform="matrix(1 0 0 1 1927 467)"/><path d="M32.6666 76.9998 79.3331 76.9998 79.3331 79.3331 32.6666 79.3331Z" fill="#7F6000" transform="matrix(1 0 0 1 1927 467)"/><path d="M32.6666 86.3331 79.3331 86.3331 79.3331 88.6664 32.6666 88.6664Z" fill="#7F6000" transform="matrix(1 0 0 1 1927 467)"/><path d="M20.9999 9.33331 20.9999 102.666 90.9998 102.666 90.9998 34.5169 65.8162 9.33331ZM66.5197 13.3361 86.9969 33.8134C87.0015 33.818 87.0014 33.8254 86.9968 33.8299 86.9946 33.832 86.9918 33.8332 86.9888 33.8332L66.4998 33.8332 66.4998 13.3443C66.4999 13.3379 66.5052 13.3327 66.5116 13.3327 66.5146 13.3329 66.5176 13.334 66.5197 13.3361ZM23.3333 100.333 23.3333 11.6666 64.1665 11.6666 64.1665 36.1666 88.6664 36.1666 88.6664 100.333Z" fill="#7F6000" transform="matrix(1 0 0 1 1927 467)"/></g></g></g><text font-family="MS Mincho,MS Mincho_MSFontService,sans-serif" font-weight="700" font-size="64" transform="matrix(1 0 0 1 3057.48 1427)">➌</text><text font-family="BIZ UDPGothic,BIZ UDPGothic_MSFontService,sans-serif" font-weight="700" font-size="64" transform="matrix(1 0 0 1 3142.84 1427)">構造情報</text><g><g><g><path d="M235.125 55.6875C235.125 69.3565 196.342 80.4375 148.5 80.4375 100.658 80.4375 61.875 69.3565 61.875 55.6875 61.875 42.0185 100.658 30.9375 148.5 30.9375 196.342 30.9375 235.125 42.0185 235.125 55.6875Z" fill="#ED7D31" transform="matrix(1.00337 0 0 1 3076 443)"/><path d="M210.375 117.562C206.663 117.562 204.188 115.088 204.188 111.375 204.188 107.662 206.663 105.188 210.375 105.188 214.087 105.188 216.562 107.662 216.562 111.375 216.562 115.088 214.087 117.562 210.375 117.562ZM148.5 92.8125C100.856 92.8125 61.875 81.675 61.875 68.0625L61.875 117.562C61.875 131.175 100.856 142.312 148.5 142.312 196.144 142.312 235.125 131.175 235.125 117.562L235.125 68.0625C235.125 81.675 196.144 92.8125 148.5 92.8125Z" fill="#ED7D31" transform="matrix(1.00337 0 0 1 3076 443)"/><path d="M210.375 179.438C206.663 179.438 204.188 176.963 204.188 173.25 204.188 169.537 206.663 167.062 210.375 167.062 214.087 167.062 216.562 169.537 216.562 173.25 216.562 176.963 214.087 179.438 210.375 179.438ZM148.5 154.688C100.856 154.688 61.875 143.55 61.875 129.938L61.875 179.438C61.875 193.05 100.856 204.188 148.5 204.188 196.144 204.188 235.125 193.05 235.125 179.438L235.125 129.938C235.125 143.55 196.144 154.688 148.5 154.688Z" fill="#ED7D31" transform="matrix(1.00337 0 0 1 3076 443)"/><path d="M210.375 241.312C206.663 241.312 204.188 238.837 204.188 235.125 204.188 231.413 206.663 228.938 210.375 228.938 214.087 228.938 216.562 231.413 216.562 235.125 216.562 238.837 214.087 241.312 210.375 241.312ZM148.5 216.562C100.856 216.562 61.875 205.425 61.875 191.812L61.875 241.312C61.875 254.925 100.856 266.062 148.5 266.062 196.144 266.062 235.125 254.925 235.125 241.312L235.125 191.812C235.125 205.425 196.144 216.562 148.5 216.562Z" fill="#ED7D31" transform="matrix(1.00337 0 0 1 3076 443)"/></g></g></g><text font-family="BIZ UDPGothic,BIZ UDPGothic_MSFontService,sans-serif" font-weight="700" font-size="64" transform="matrix(1 0 0 1 3065.98 799)">JSON</text><text font-family="BIZ UDPGothic,BIZ UDPGothic_MSFontService,sans-serif" font-weight="700" font-size="64" transform="matrix(1 0 0 1 3259.62 799)">-</text><text font-family="BIZ UDPGothic,BIZ UDPGothic_MSFontService,sans-serif" font-weight="700" font-size="64" transform="matrix(1 0 0 1 3290.56 799)">LD</text><text font-family="BIZ UDPGothic,BIZ UDPGothic_MSFontService,sans-serif" font-weight="700" font-size="64" transform="matrix(1 0 0 1 3041.06 876)">データベース</text><path d="M3197 994 3197 948.5 3169 948.5 3225 903 3281 948.5 3253 948.5 3253 994Z" fill="#A6A6A6" fill-rule="evenodd"/></g></svg>