<?xml version="1.0" encoding="UTF-8" standalone="no"?>
<svg
   width="653"
   height="653"
   xml:space="preserve"
   overflow="hidden"
   version="1.1"
   id="svg35"
   sodipodi:docname="favicon.svg"
   inkscape:version="1.1.2 (b8e25be833, 2022-02-05)"
   xmlns:inkscape="http://www.inkscape.org/namespaces/inkscape"
   xmlns:sodipodi="http://sodipodi.sourceforge.net/DTD/sodipodi-0.dtd"
   xmlns="http://www.w3.org/2000/svg"
   xmlns:svg="http://www.w3.org/2000/svg"><sodipodi:namedview
     id="namedview37"
     pagecolor="#ffffff"
     bordercolor="#666666"
     borderopacity="1.0"
     inkscape:pageshadow="2"
     inkscape:pageopacity="0.0"
     inkscape:pagecheckerboard="0"
     showgrid="false"
     fit-margin-top="9.66666"
     fit-margin-bottom="9.66666"
     fit-margin-left="0.125"
     fit-margin-right="0.125"
     inkscape:zoom="1.3769716"
     inkscape:cx="222.58992"
     inkscape:cy="326.80412"
     inkscape:window-width="2560"
     inkscape:window-height="1377"
     inkscape:window-x="-8"
     inkscape:window-y="-8"
     inkscape:window-maximized="1"
     inkscape:current-layer="svg35" /><defs
     id="defs5"><clipPath
       id="clip0"><rect
         x="-23"
         y="632"
         width="653"
         height="634"
         id="rect2" /></clipPath></defs><g
     clip-path="url(#clip0)"
     transform="translate(23.041651,-622.49999)"
     id="g33"><path
       d="m 188.5,689.5 c 0,-21.539 17.461,-39 39,-39 21.539,0 39,17.461 39,39 0,21.539 -17.461,39 -39,39 -21.539,0 -39,-17.461 -39,-39 z"
       stroke="#4169e1"
       stroke-width="36.6667"
       stroke-miterlimit="8"
       fill="none"
       fill-rule="evenodd"
       id="path7" /><path
       d="m 188.5,948.5 c 0,-21.539 17.461,-39 39,-39 21.539,0 39,17.461 39,39 0,21.539 -17.461,39 -39,39 -21.539,0 -39,-17.461 -39,-39 z"
       stroke="#4169e1"
       stroke-width="36.6667"
       stroke-miterlimit="8"
       fill="none"
       fill-rule="evenodd"
       id="path9" /><path
       d="m 533.5,948.5 c 0,-21.539 17.461,-39 39,-39 21.539,0 39,17.461 39,39 0,21.539 -17.461,39 -39,39 -21.539,0 -39,-17.461 -39,-39 z"
       stroke="#4169e1"
       stroke-width="36.6667"
       stroke-miterlimit="8"
       fill="none"
       fill-rule="evenodd"
       id="path11" /><path
       d="m 188.5,1208.5 c 0,-21.54 17.461,-39 39,-39 21.539,0 39,17.46 39,39 0,21.54 -17.461,39 -39,39 -21.539,0 -39,-17.46 -39,-39 z"
       stroke="#4169e1"
       stroke-width="36.6667"
       stroke-miterlimit="8"
       fill="none"
       fill-rule="evenodd"
       id="path13" /><path
       d="m 533.5,1208.5 c 0,-21.54 17.461,-39 39,-39 21.539,0 39,17.46 39,39 0,21.54 -17.461,39 -39,39 -21.539,0 -39,-17.46 -39,-39 z"
       stroke="#4169e1"
       stroke-width="36.6667"
       stroke-miterlimit="8"
       fill="none"
       fill-rule="evenodd"
       id="path15" /><path
       d="M 0,0 58.4646,7.21785e-4"
       stroke="#4169e1"
       stroke-width="45.8333"
       stroke-miterlimit="8"
       fill="none"
       fill-rule="evenodd"
       transform="matrix(1,0,0,-1,130,689.001)"
       id="path17" /><path
       d="M 0,0 58.4642,3.60892e-4"
       stroke="#4169e1"
       stroke-width="45.8333"
       stroke-miterlimit="8"
       fill="none"
       fill-rule="evenodd"
       transform="matrix(1,0,0,-1,130,1208)"
       id="path19" /><path
       d="M 0,818.5 C 0,746.979 58.2029,689 130,689"
       stroke="#4169e1"
       stroke-width="45.8333"
       stroke-miterlimit="8"
       fill="none"
       fill-rule="evenodd"
       id="path21" /><path
       d="M 130,1208 C 58.203,1208 3.05176e-5,1149.8 3.05176e-5,1078"
       stroke="#4169e1"
       stroke-width="45.8333"
       stroke-miterlimit="8"
       fill="none"
       fill-rule="evenodd"
       id="path23" /><path
       d="m 0,819 3.60892e-4,259.84"
       stroke="#4169e1"
       stroke-width="45.8333"
       stroke-miterlimit="8"
       fill="none"
       fill-rule="evenodd"
       id="path25" /><path
       d="M 0,0 188.387,7.21785e-4"
       stroke="#4169e1"
       stroke-width="45.8333"
       stroke-miterlimit="8"
       fill="none"
       fill-rule="evenodd"
       transform="matrix(-1,0,0,1,188.387,948)"
       id="path27" /><path
       d="m 265.042,948.003 c 71.795,-0.529 130.425,57.247 130.954,129.037 0.529,71.8 -57.243,130.43 -129.038,130.96 -0.319,0 -0.638,0 -0.958,0"
       stroke="#4169e1"
       stroke-width="45.8333"
       stroke-miterlimit="8"
       fill="none"
       fill-rule="evenodd"
       id="path29" /><path
       d="m 533.958,1208 c -71.795,0.53 -130.425,-57.25 -130.955,-129.04 -0.529,-71.8 57.244,-130.427 129.039,-130.956 C 532.361,948.002 532.681,948 533,948"
       stroke="#4169e1"
       stroke-width="45.8333"
       stroke-miterlimit="8"
       fill="none"
       fill-rule="evenodd"
       id="path31" /></g></svg>
